<?xml version="1.0" encoding="UTF-8"?>
<svg enable-background="new 0 0 491.52 491.52" version="1.1" viewBox="0 0 491.52 491.52" xml:space="preserve" xmlns="http://www.w3.org/2000/svg">
		<path d="m471.04 163.84h-32.768c-8.192 0-16.384 6.144-20.48 14.336l-18.432 81.92-14.336-40.96c0-8.192-8.192-14.336-16.384-14.336h-40.96v-20.48c0-12.288-8.192-20.48-20.48-20.48h-225.28c-10.24 0-20.48 8.192-20.48 20.48v163.84c0 2.048 0 6.144 2.048 8.192l28.672 61.44c4.096 8.192 10.24 12.288 18.432 12.288h247.81c8.192 0 14.336-4.096 18.432-10.24l18.432-30.72h6.144l18.432 49.152c4.096 8.192 10.24 12.288 18.432 12.288h32.768c12.288 0 20.48-8.192 20.48-20.48v-245.76c0-12.288-8.192-20.48-20.48-20.48zm-12.288 258.05-24.576-61.44c-4.096-6.144-10.24-12.288-20.48-12.288h-32.768c-8.192 0-14.336 4.096-18.432 10.24l-16.384 30.72h-221.18l-22.528-45.056v-139.26h184.32v20.48c0 12.288 8.192 20.48 20.48 20.48h47.104l8.192 26.624c2.048 8.192 10.24 14.336 18.432 14.336h32.768c8.192 0 16.384-6.144 20.48-14.336l24.576-81.92v231.42z"/>
		<path d="m81.92 266.24h-61.44c-12.288 0-20.48 8.192-20.48 20.48s10.24 20.48 20.48 20.48h61.44c12.288 0 20.48-8.192 20.48-20.48s-8.192-20.48-20.48-20.48z"/>
		<path d="m20.48 225.28c-12.288 0-20.48 8.192-20.48 20.48v81.92c0 12.288 8.192 20.48 20.48 20.48s20.48-8.192 20.48-20.48v-81.92c0-12.288-8.192-20.48-20.48-20.48z"/>
		<path d="m245.76 102.4h-81.92c-10.24 0-20.48 8.192-20.48 20.48v61.44c0 12.288 10.24 20.48 20.48 20.48h81.92c12.288 0 20.48-8.192 20.48-20.48v-61.44c0-12.288-8.192-20.48-20.48-20.48zm-20.48 61.44h-40.96v-20.48h40.96v20.48z"/>
		<path d="m286.72 40.96h-163.84c-10.24 0-20.48 8.192-20.48 20.48v61.44c0 12.288 10.24 20.48 20.48 20.48h163.84c12.288 0 20.48-8.192 20.48-20.48v-61.44c0-12.288-8.192-20.48-20.48-20.48zm-20.48 61.44h-122.88v-20.48h122.88v20.48z"/>
</svg>
