<?xml version="1.0" encoding="UTF-8"?>
<svg width="640" height="400" version="1.1" viewBox="0 0 640 400" xmlns="http://www.w3.org/2000/svg">
 <path d="m489.23 153.85v169.23c0 8.4954-6.8892 15.385-15.385 15.385-8.4954 0-15.385-6.8892-15.385-15.385v-61.538c0-25.489-20.665-46.154-46.154-46.154h-46.154v-184.62c0-16.994-13.775-30.769-30.769-30.769h-184.62c-16.994 0-30.769 13.775-30.769 30.769v338.46c0 16.994 13.775 30.769 30.769 30.769h184.62c16.994 0 30.769-13.775 30.769-30.769v-123.08h46.154c8.4954 0 15.385 6.8892 15.385 15.385v61.538c0 25.489 20.665 46.154 46.154 46.154s46.154-20.665 46.154-46.154v-200c0-16.994-13.775-30.769-30.769-30.769v-46.462c-0.16615-8.3754-7.0062-15.08-15.385-15.077-8.6646 0.14462-15.575 7.2831-15.431 15.951 6e-3 0.32308 0.0215 0.64923 0.0462 0.97231v75.385c0 16.994 13.775 30.769 30.769 30.769s30.769-13.775 30.769-30.769c0-16.994-13.775-30.769-30.769-30.769m-153.85 76.923c0 8.4954-6.8892 15.385-15.385 15.385h-153.85c-8.4954 0-15.385-6.8892-15.385-15.385v-92.308c0-8.4954 6.8892-15.385 15.385-15.385h153.85c8.4954 0 15.385 6.8892 15.385 15.385z" stroke-width="30.769"/>
</svg>
