<?xml version="1.0" encoding="UTF-8"?>
<!-- Created with Inkscape (http://www.inkscape.org/) -->
<svg width="2e3mm" height="1250mm" version="1.1" viewBox="0 0 2e3 1250" xmlns="http://www.w3.org/2000/svg">
 <g stroke-width=".66135">
  <path d="m1594.9 624.99c0 328.53-266.32 594.86-594.86 594.86-328.53 0-594.86-266.32-594.86-594.86 0-328.53 266.32-594.86 594.86-594.86 328.53 0 594.86 266.32 594.86 594.86z" fill="#1e1d51"/>
  <g>
   <path d="m997.7 207.48c-50.805 0.95564-99.546 9.9976-144.85 25.813v326.56h144.85zm-263.49 97.324c-75.539 64.114-128.81 152.54-146.92 252.71h146.92zm113.5 370.91v341.4c46.502 15.788 96.517 24.818 148.66 25.772v-367.17zm-260.9 0.9305c15.059 106.69 69.455 201.05 148.33 268.51v-268.51z" fill="#a5f6f7"/>
   <path d="m1008.2 211.68c224.45 4.3894 405.1 187.82 405.1 413.32 0 225.51-180.64 408.83-405.1 413.22z" fill="#276a9e"/>
   <path d="m842.05 238.48v330.63h153.39v97.602h-153.39v345.67a422.44 422.44 0 0 1-98.283-57.116v-288.55h-159.79a420.54 420.54 0 0 1-2.0251-41.24 419.37 419.37 0 0 1 3.7968-56.362h158.02v-273.49a422.49 422.49 0 0 1 98.283-57.138z" fill="#860d16"/>
  </g>
  <path d="m736.34 306.63" fill="#fff38d"/>
  <path d="m1112.8 350.88h142.19v19.84h-142.19z" fill="#9d0d16"/>
  <path d="m1001.7 7.94e-4c-216.39-0.34456-427.09 111.77-542.99 312.51-172.49 298.76-70.004 681.25 228.77 853.73 298.76 172.49 681.25 70.004 853.73-228.77 172.49-298.76 70.004-681.25-228.77-853.73-98.032-56.599-205.07-83.574-310.75-83.74zm-1.736 30.132c328.36 0 594.86 266.5 594.86 594.86 0 328.36-266.5 594.86-594.86 594.86-328.36 0-594.86-266.5-594.86-594.86 0-328.36 266.5-594.86 594.86-594.86zm-35.816 20.832v123.3h37.572v-41.541l30.339 41.541 49.436 7.2338-42.843-55.367c9.4011-1.9536 27.033-11.936 27.033-32.964 0-31.481-28.349-41.541-46.15-41.541zm47.472 27.033c10.219 0 17.465 6.9269 17.794 14.509 0.33 7.5823-4.9152 15.81-16.472 15.81h-11.884l-0.6409-29.657zm177.12 7.0063c-0.6666-0.0041-1.3412 0.0073-2.0045 0.02047-32.415 0.66003-59.822 20.314-66.386 52.412-6.5334 31.969 22.501 69.799 57.992 77.854 38.507 8.7404 74.441-9.5439 82.543-51.048 6.9375-35.539-19.184-70.433-57.971-77.834-4.7723-0.90936-9.5116-1.3763-14.178-1.4047zm-454.68 32.551-33.626 17.794 15.811 139.11 35.61-26.371-4.6089-21.08 38.895-23.085 17.794 13.186 40.879-16.472zm455.54 1.529c2.2857 7e-3 4.605 0.2156 6.9442 0.66135 18.715 3.5686 30.595 19.749 27.322 36.911-3.2717 17.163-20.469 28.845-39.185 25.276-18.714-3.5686-27.949-21.692-24.676-38.854 2.8636-15.017 13.597-24.038 29.595-23.994zm-454.22 42.636 28.335 21.762-20.44 11.863zm626.98 17.815-105.48 73.185 30.98 24.387 50.779-39.556-25.73 63.944 13.186 12.525 64.626-26.371-38.895 52.742 23.726 33.626 74.501-106.81-23.746-28.335-60.658 24.387 24.408-61.319zm-362.4 15.583c-237.2 0-429.9 192.7-429.9 429.9 0 237.2 192.7 429.88 429.9 429.88 237.2 0 429.9-192.68 429.9-429.88 0-237.2-192.7-429.9-429.9-429.9zm-393.81 14.074-51.42 59.335 89.652 79.772 25.069-28.996-34.287-30.339 25.048-27.033-21.762-19.778-25.048 27.694-12.525-11.863 27.033-29.678zm385.51 2.5006v341.18h-133.74v-316.18c41.834-15.314 86.828-24.061 133.74-24.987zm16.534 0c157.41 3.0779 293.27 94.222 360.39 226.18a125.54 125.54 0 0 0-2.6454-3.4099c-16.444-20.427-37.161-33.975-54.809-45.323a8.2721 8.2721 0 0 0-4.7121-1.3022 8.2675 8.2675 0 0 0-6.4686 3.4311c-4.107 5.6876-11.861 10.416-21.969 10.416h-76.161c-3.8212 0-7.4507 1.041-10.582 3.3067-3.1302 2.2664-5.9111 6.3205-5.9111 11.119v8.6802c-0.039 0.0503-0.1072 0.18385-0.4338 0.43384-0.7454 0.57207-2.2096 1.1779-3.8438 1.1779h-65.618l0.062-5.4766v-0.10317c0-9.9896-5.0943-19.065-12.958-24.801l-0.1243-0.10317-0.1032-0.0622-28.686-19.448-0.041-0.041-0.041-0.0205c-4.5666-3.0151-9.6709-4.4436-14.488-4.3398a21.731 21.731 0 0 0-4.6916 0.62035c-6.0513 1.4827-10.976 5.3053-14.157 10.189-6.3622 9.7681-4.9013 25.207 7.3369 33.956l13.454 10.292 0.1031 0.0827 0.1032 0.0622c2.8312 2.0257 4.402 4.4727 4.402 5.1459l-0.3307 21.804v0.12433c0 0.26587-0.04 0.33134-0.062 0.43385-0.377-1e-3 -1.1005-0.0853-2.6044-0.57868-3.1817-1.043-5.5963-2.3868-9.3415-3.8027-3.7445-1.4153-8.5605-2.5422-14.756-2.5422-10.907 0-19.869 4.9231-25.482 11.47a35.563 35.563 0 0 0-4.8357 7.2953v-254.87zm-166.8 31.456v326.25h150.27v96.305h-150.27v341.09a413.16 413.16 0 0 1-96.286-56.359v-284.73h-156.55a418.13 418.13 0 0 1-1.984-40.693 416.79 416.79 0 0 1 3.72-55.615h154.81v-269.87a413.22 413.22 0 0 1 96.286-56.38zm280.23 63.551c-6.7537 0-12.235 5.4812-12.235 12.235 0 6.7544 5.4819 12.235 12.235 12.235 6.7543 0 12.235-5.4806 12.235-12.235 0-6.7537-5.4806-12.235-12.235-12.235zm31.166 0c-6.7536 0-12.235 5.4812-12.235 12.235 0 6.7544 5.4813 12.235 12.235 12.235 6.7544 0 12.235-5.4806 12.235-12.235 0-6.7537-5.4806-12.235-12.235-12.235zm31.146 0c-6.753 0-12.235 5.4812-12.235 12.235 0 6.7544 5.4819 12.235 12.235 12.235 6.7544 0 12.235-5.4806 12.235-12.235 0-6.7537-5.4806-12.235-12.235-12.235zm31.146 0c-6.7537 0-12.235 5.4812-12.235 12.235 0 6.7544 5.4819 12.235 12.235 12.235 6.7544 0 12.235-5.4806 12.235-12.235 0-6.7537-5.4805-12.235-12.235-12.235zm31.166 0c-6.7537 0-12.235 5.4812-12.235 12.235 0 6.7544 5.4812 12.235 12.235 12.235 6.7543 0 12.235-5.4806 12.235-12.235 0-6.7537-5.4806-12.235-12.235-12.235zm-517.67 6.5096v239.66h-135.72c16.734-95.003 65.934-178.85 135.72-239.66zm384.26 25.462v19.84h142.19v-19.84zm0 26.702v19.84h142.19v-19.84zm395.9 0.0827-112.08 45.488 31.642 73.846 29.658-12.525-16.472-37.594 13.847-6.593 15.831 36.271 27.012-11.222-15.149-34.927 13.186-5.9316 15.81 37.572 27.694-11.202zm-1023.9 13.847-15.81 34.927 109.43 50.779 34.948-71.22-27.033-13.847-21.101 36.932zm574.69 9.1967c1.3048-0.0754 2.8259 0.2652 4.8979 1.6329l28.603 19.407c3.5653 2.5998 5.9316 7.4064 5.9316 11.284l-0.3306 26.805v0.10317c0 10.557 5.3396 19.553 12.235 25.834 4.066 3.7036 8.7219 6.626 13.702 8.4117-4.9806 1.7863-9.6358 4.7081-13.702 8.4117-6.8952 6.2815-12.235 15.278-12.235 25.834v0.10317l0.3306 26.909c0 3.8781-2.6143 8.7476-6.1796 11.346l-28.438 19.282c-2.7625 1.824-4.4535 1.7982-6.0554 1.4054-1.6004-0.39218-3.1724-1.529-4.2365-3.1619-2.1276-3.2657-3.0535-7.0704 3.1004-11.47l0.2063-0.16534 13.682-10.437c4.6275-3.3107 11.098-8.874 11.098-18.435v-0.12434l-0.3307-21.928c0-4.6777-1.6804-9.9599-6.4071-13.537-4.726-3.5766-11.478-4.019-17.939-1.9014-4.6136 1.5125-7.628 3.1381-10.045 4.0508-2.4152 0.91332-4.4614 1.4675-8.9077 1.4675-6.2298 0-10.056-2.3425-12.937-5.7041-2.8815-3.361-4.361-8.0433-4.361-11.119v-1.6534c0-3.0746 1.4788-7.7569 4.361-11.119 2.8815-3.361 6.708-5.7041 12.937-5.7041 4.4463 0 6.4918 0.55487 8.9077 1.4675 2.4159 0.91332 5.431 2.5389 10.045 4.0508 6.4613 2.1183 13.213 1.6758 17.939-1.9014 4.726-3.5766 6.4071-8.9824 6.4071-13.661l0.3307-21.804v-0.12433c0-9.5604-6.6776-15.269-11.305-18.58l-13.475-10.292-0.2063-0.16534c-6.1532-4.3986-5.2273-8.204-3.1004-11.47 1.0641-1.6329 2.6361-2.7697 4.2365-3.1619a6.9508 6.9508 0 0 1 1.2401-0.18584zm248.46 18.373c15.825 10.343 32.237 22.019 45.075 37.965 14.411 17.9 24.615 40.929 24.615 74.878 0 63.782-59.562 115.01-116.85 115.01h-138.45c-3.9343 0-7.958 1.8028-10.396 4.5884-2.4371 2.7862-3.4152 6.1485-3.3894 9.362 0.026 3.2148 1.0614 6.4998 3.4721 9.2384 2.4105 2.7393 6.372 4.5673 10.313 4.5673h135.17c48.596 0 74.507 31.277 74.507 68.198 0 35.984-26.912 69.812-74.177 69.812h-139.27c-3.3755 0-6.962 1.5297-9.1762 3.9886-2.2135 2.4595-3.1381 5.4495-3.1209 8.3078 0.018 2.859 0.9497 5.8014 3.1414 8.2258 2.1924 2.4245 5.7683 3.9681 9.1557 3.9681h103.67c22.313 0 41.293 21.744 41.293 42.512 0 10.531-2.9925 20.254-9.61 27.322-6.6168 7.0684-17.188 12.194-34.969 12.194h-62.167c-2.4775 0-5.0838 0.54227-7.4812 2.2737-2.3974 1.7314-4.3583 5.0388-4.2578 8.4732 0.1019 3.435 2.08 6.38 4.3815 8.0188 2.3014 1.6395 4.8715 2.232 7.3575 2.232h41.231c5.8166 0 10.118 2.5442 13.517 6.6756 3.3986 4.1321 5.3735 9.9222 5.3735 14.55 0 5.7636-2.1289 11.091-5.89 14.425-2.439 2.1633-5.8113 3.6658-10.437 4.0302 0.2276-2.3822 0.2666-5.0798-1.3226-8.3078-1.8855-3.8305-7.1445-6.882-11.615-6.882h-24.738c-8.6154 0-18.125-3.2485-25.152-9.3832-7.0261-6.1333-11.842-14.827-11.842-27.343 0-11.507 4.8106-19.713 11.636-25.607 6.8251-5.8926 15.89-8.9692 22.568-8.9692h60.803c2.7453 0 5.4197-0.47356 7.9772-2.0251 2.558-1.5515 5.1916-4.8205 5.1876-8.8872-0.01-4.0653-2.6534-7.337-5.2081-8.8872-2.5548-1.5495-5.2121-2.0045-7.9567-2.0045h-95.254c-36.651 0-57.062-25.936-57.062-53.9 0-24.948 21.367-54.52 53.755-54.52h141.75c3.8589 0 7.829-1.8002 10.189-4.5468 2.3604-2.746 3.2882-6.015 3.2657-9.1346-0.022-3.1195-0.9907-6.3277-3.3272-9.0313-2.3359-2.7036-6.259-4.5263-10.127-4.5263h-144.38c-40.361 0-72.292-29.929-72.292-75.122 0-37.752 30.891-76.465 76.571-76.465h130.87c7.136 0 13.539-3.2102 17.464-7.8952 3.9257-4.6843 5.6743-10.457 5.7041-16.141 0.03-5.6836-1.6653-11.506-5.601-16.224-3.9356-4.7167-10.385-7.9157-17.567-7.9157h-139.62l-0.1032-7.833c0-4.8344 2.6276-9.698 6.8411-13.537 4.2147-3.8385 9.8825-6.0348 13.351-6.0348h78.244c3.0277 0 6.0242-0.6997 8.9692-2.728 2.9449-2.0277 5.6836-6.4018 5.6836-11.863 0-5.6254-1.6739-8.4699-5.6836-11.863-2.945-2.0277-5.9415-2.728-8.9692-2.728h-78.244c-3.4681 0-9.1365-2.1957-13.351-6.0348-4.2135-3.8385-6.8411-8.7847-6.8411-13.62l0.062-4.7948h95.505c5.2868 0 10.11-1.6944 13.909-4.6089 3.7988-2.9132 6.9032-7.3833 6.9032-13.021v-7.089h46.439c12.044 3e-3 22.512-4.4866 30.005-11.343zm84.262 87.589c13.651 41.039 21.039 84.937 21.039 130.56 0 144.39-74.044 271.48-186.25 345.39 4.3807-6.2312 6.4276-13.745 6.4276-21.163 0-8.8376-3.1725-17.8-9.1345-25.048-0.2355-0.28708-0.5178-0.54497-0.7645-0.82671 18.807-0.908 33.123-7.2715 42.45-17.236 10.082-10.769 14.074-24.924 14.074-38.627 0-20.244-11.334-39.724-28.5-50.469h6.2828c55.388 0 90.71-41.841 90.71-86.345 0-37.734-24.544-71.538-65.37-81.617 58.617-11.011 111-63.757 111-129.35 0-8.9804-0.6964-17.38-1.9635-25.256zm-384.06 2.9344a35.537 35.537 0 0 0 4.8358 7.2953c5.6135 6.5473 14.575 11.47 25.482 11.47 6.1955 0 11.012-1.1263 14.756-2.5422 3.7452-1.4153 6.1598-2.7591 9.3415-3.8028 1.5033-0.4927 2.2268-0.57669 2.6044-0.57868 0.022 0.10384 0.062 0.17724 0.062 0.43385v0.12433l0.3307 21.928c0 0.67458-1.5707 2.9966-4.4019 5.0223l-0.1032 0.0622-0.1032 0.0827-13.661 10.457c-12.238 8.7496-13.492 24.023-7.13 33.791 2.7075 4.1552 6.6815 7.5315 11.532 9.3627-13.242 16.579-20.812 37.294-20.812 58.115 0 45.923 29.78 80.737 69.276 89.467-29.581 10.108-48.113 39.658-48.113 67.418 0 36.396 28.826 70.433 73.595 70.433h3.2446c-0.7255 0.56612-1.4656 1.1078-2.1699 1.7156-9.9195 8.5657-17.36 21.775-17.36 38.131 0 17.001 7.1888 30.818 17.485 39.805 10.296 8.9877 23.411 13.454 36.043 13.454h20.708c-0.4272 1.5099-0.9093 2.9139-0.9093 2.9139a8.2715 8.2715 0 0 0 5.9521 11.449c5.9177 1.172 11.509 1.2533 16.575 0.39289-58.259 33.405-125.43 53.037-197.06 54.437zm-445.54 14.405-128.57 42.202-4.609 38.234 121.98 65.928-0.66139-44.165-18.435-8.5353 2.7697-45.405 21.597-5.394zm945.4 3.9681c-43.033 0-64.606 35.265-64.606 70.539 0 35.272 25.52 70.559 64.606 70.559 39.068 0 65.267-31.989 65.267-70.559 0-37.909-22.892-70.539-65.267-70.539zm-392.62 24.738h139.44c2.8245 0 3.8622 0.76716 4.8774 1.984 1.0152 1.2175 1.7685 3.3114 1.7566 5.5388-0.012 2.2281-0.7924 4.3517-1.8393 5.601-1.0462 1.2493-2.0898 1.984-4.7947 1.984h-130.87c-3.9846 0-7.8766 0.25528-11.677 0.72351 2.0058-4.0362 3.1413-8.5148 3.1413-13.206v-0.10317zm393.44 13.495c18.969 0 30.029 17.713 30.029 32.303 0 14.26-11.469 32.303-30.029 32.303-18.567 0-29.368-15.655-29.368-32.303 0-16.647 10.4-32.303 29.368-32.303zm-1002.7 13.289-1.5707 25.297-34.927-16.182zm84.302 114.95h138.08v254.51c-73.416-63.942-124.06-153.39-138.08-254.51zm267.44 0h133.74v355.99c-46.908-0.9246-91.901-9.6795-133.74-24.986z" fill="#f8d45e"/>
  <path d="m1059.6 388.5c1.3049-0.0754 2.826 0.2652 4.8979 1.6329l28.603 19.407c3.5653 2.5998 5.9316 7.4064 5.9316 11.284l-0.3307 26.805v0.10317c0 10.557 5.3398 19.553 12.235 25.834 4.066 3.7035 8.7218 6.626 13.702 8.4117-4.9806 1.7863-9.6358 4.7081-13.702 8.4117-6.8952 6.2815-12.235 15.278-12.235 25.834v0.10317l0.3307 26.909c0 3.8781-2.6143 8.7476-6.1796 11.346l-28.438 19.282c-2.7624 1.824-4.4535 1.7982-6.0552 1.4054-1.6005-0.39218-3.1725-1.529-4.2366-3.1619-2.1276-3.2657-3.0535-7.0705 3.1004-11.47l0.2063-0.16534 13.682-10.437c4.6274-3.3107 11.098-8.874 11.098-18.435v-0.12433l-0.3306-21.928c0-4.6777-1.6805-9.9599-6.4071-13.537-4.726-3.5766-11.478-4.019-17.939-1.9014-4.6136 1.5125-7.628 3.1381-10.044 4.0508-2.4153 0.91332-4.4615 1.4675-8.9077 1.4675-6.2299 0-10.056-2.3425-12.937-5.7041-2.8815-3.361-4.3609-8.0433-4.3609-11.119v-1.6534c0-3.0746 1.4788-7.7569 4.3609-11.119 2.8815-3.361 6.708-5.7041 12.937-5.7041 4.4462 0 6.4918 0.55487 8.9077 1.4675 2.4159 0.91332 5.4309 2.5389 10.044 4.0508 6.4614 2.1183 13.213 1.6758 17.939-1.9014 4.726-3.5766 6.4071-8.9824 6.4071-13.661l0.3306-21.804v-0.12433c0-9.5604-6.6776-15.269-11.305-18.58l-13.475-10.292-0.2063-0.16534c-6.1532-4.3986-5.2273-8.204-3.1004-11.47 1.0641-1.6329 2.6361-2.7697 4.2366-3.1619a6.9508 6.9508 0 0 1 1.24-0.18584z" fill="#9d0d16"/>
  <path d="m1308.1 406.87c15.825 10.343 32.237 22.019 45.075 37.965 14.411 17.9 24.615 40.929 24.615 74.878 0 63.782-59.562 115.01-116.85 115.01h-138.45c-3.9344 0-7.958 1.8028-10.396 4.5884-2.4371 2.7863-3.4152 6.1486-3.3894 9.362 0.026 3.2148 1.0614 6.4997 3.4721 9.2384 2.4106 2.7393 6.372 4.5673 10.313 4.5673h135.17c48.596 0 74.507 31.277 74.507 68.198 0 35.984-26.912 69.812-74.177 69.812h-139.27c-3.3756 0-6.9621 1.5296-9.1762 3.9886-2.2136 2.4596-3.1381 5.4495-3.121 8.3078 0.018 2.859 0.9497 5.8013 3.1414 8.2258 2.1924 2.4245 5.7684 3.968 9.1558 3.968h103.67c22.313 0 41.293 21.744 41.293 42.512 0 10.531-2.9926 20.254-9.6101 27.322-6.6168 7.0684-17.188 12.194-34.969 12.194h-62.167c-2.4774 0-5.0837 0.54234-7.4811 2.2737s-4.3583 5.0388-4.2578 8.4732c0.1018 3.435 2.08 6.38 4.3814 8.0188 2.3015 1.6394 4.8715 2.2321 7.3575 2.2321h41.231c5.8166 0 10.118 2.5442 13.517 6.6756 3.3987 4.1321 5.3735 9.9222 5.3735 14.55 0 5.7636-2.1289 11.091-5.89 14.425-2.439 2.1633-5.8112 3.6658-10.437 4.0303 0.2275-2.3822 0.2666-5.0798-1.3227-8.3078-1.8855-3.8305-7.1445-6.882-11.615-6.882h-24.738c-8.6154 0-18.125-3.2486-25.152-9.3832-7.0261-6.1334-11.842-14.827-11.842-27.343 0-11.507 4.8106-19.713 11.636-25.607 6.8251-5.8926 15.89-8.9692 22.568-8.9692h60.803c2.7452 0 5.4197-0.47349 7.9771-2.025 2.5581-1.5516 5.1916-4.8206 5.1876-8.8872-0.01-4.0653-2.6533-7.337-5.2081-8.8872-2.5548-1.5495-5.212-2.0046-7.9566-2.0046h-95.254c-36.651 0-57.062-25.936-57.062-53.9 0-24.948 21.367-54.52 53.755-54.52h141.75c3.859 0 7.829-1.8002 10.189-4.5468 2.3604-2.7459 3.2882-6.0149 3.2657-9.1345-0.022-3.1196-0.9907-6.3277-3.3272-9.0313-2.3359-2.7036-6.2589-4.5263-10.126-4.5263h-144.38c-40.361 0-72.292-29.929-72.292-75.122 0-37.752 30.891-76.465 76.571-76.465h130.87c7.1359 0 13.539-3.2102 17.464-7.8952 3.9257-4.6843 5.6744-10.457 5.7041-16.141 0.03-5.6836-1.6653-11.506-5.6009-16.224-3.9357-4.7167-10.385-7.9157-17.567-7.9157h-139.62l-0.1032-7.833c0-4.8344 2.6275-9.698 6.841-13.537 4.2148-3.8385 9.8825-6.0348 13.351-6.0348h78.244c3.0277 0 6.0243-0.69971 8.9692-2.7281 2.945-2.0277 5.6837-6.4018 5.6837-11.863 0-5.6254-1.6739-8.4699-5.6837-11.863-2.9449-2.0277-5.9415-2.7281-8.9692-2.7281h-78.244c-3.468 0-9.1364-2.1957-13.351-6.0348-4.2135-3.8385-6.841-8.7847-6.841-13.62l0.062-4.7948h95.505c5.2868 0 10.11-1.6944 13.909-4.6089 3.7988-2.9132 6.9031-7.3833 6.9031-13.021v-7.089h46.439c12.044 3e-3 22.512-4.4866 30.005-11.343z" fill="#13652c"/>
 </g>
</svg>
