<?xml version="1.0" encoding="UTF-8"?>
<svg width="211.96pt" height="152.1pt" version="1.1" viewBox="0 0 211.96 152.1" xmlns="http://www.w3.org/2000/svg">
<defs>
<clipPath id="b">
<path d="m0 46h168v106.1h-168z"/>
</clipPath>
<clipPath id="a">
<path d="m163 47h48.961v64h-48.961z"/>
</clipPath>
</defs>
<path d="m113.63 46.398c0 1.4414-1.168 2.6055-2.6055 2.6055s-2.6094-1.1641-2.6094-2.6055c0-1.4375 1.1719-2.6016 2.6094-2.6016s2.6055 1.1641 2.6055 2.6016" fill="#eccb2f"/>
<path d="m115.67 46.176c9.1602 0.87109 24.707-3.1875 24.707-3.1875s-16.074 0.015625-24.707 3.1875" fill="#eccb2f"/>
<path d="m115.45 44.98c9.0859-1.5195 23.051-9.4688 23.051-9.4688s-15.516 4.1758-23.051 9.4688" fill="#eccb2f"/>
<path d="m114.93 43.887c8.3867-3.832 19.824-15.117 19.824-15.117s-13.91 8.0469-19.824 15.117" fill="#eccb2f"/>
<path d="m114.14 42.965c7.1016-5.8594 15.23-19.73 15.23-19.73s-11.359 11.371-15.23 19.73" fill="#eccb2f"/>
<path d="m113.16 42.27c5.3398-7.4961 9.5977-23 9.5977-23s-8.0234 13.926-9.5977 23" fill="#eccb2f"/>
<path d="m112.01 41.863c3.2227-8.6211 3.3164-24.699 3.3164-24.699s-4.1406 15.527-3.3164 24.699" fill="#eccb2f"/>
<path d="m110.8 41.766c0.86719-9.168-3.1836-24.727-3.1836-24.727s0.015625 16.07 3.1836 24.727" fill="#eccb2f"/>
<path d="m109.6 41.973c-1.5195-9.0742-9.4727-23.051-9.4727-23.051s4.1836 15.52 9.4727 23.051" fill="#eccb2f"/>
<path d="m108.52 42.496c-3.8281-8.3711-15.125-19.816-15.125-19.816s8.0625 13.91 15.125 19.816" fill="#eccb2f"/>
<path d="m107.59 43.277c-5.8594-7.1016-19.723-15.223-19.723-15.223s11.363 11.348 19.723 15.223" fill="#eccb2f"/>
<path d="m106.89 44.27c-7.5-5.3359-22.988-9.5938-22.988-9.5938s13.918 8.0156 22.988 9.5938" fill="#eccb2f"/>
<path d="m106.48 45.418c-8.6094-3.2148-24.699-3.3281-24.699-3.3281s15.535 4.1445 24.699 3.3281" fill="#eccb2f"/>
<path d="m106.39 46.617c-9.168-0.86719-24.719 3.1875-24.719 3.1875s16.078-0.019532 24.727-3.1875" fill="#eccb2f"/>
<path d="m106.59 47.812c-9.0742 1.5312-23.043 9.4766-23.043 9.4766s15.52-4.1797 23.043-9.4766" fill="#eccb2f"/>
<path d="m107.11 48.914c-8.3672 3.8242-19.809 15.117-19.809 15.117s13.914-8.0547 19.809-15.117" fill="#eccb2f"/>
<path d="m107.9 49.84c-7.0977 5.8594-15.219 19.73-15.219 19.73s11.355-11.379 15.219-19.73" fill="#eccb2f"/>
<path d="m108.91 50.527c-5.3477 7.5039-9.6016 23-9.6016 23s8.0156-13.926 9.6016-23" fill="#eccb2f"/>
<path d="m110.05 50.941c-3.2188 8.625-3.3242 24.703-3.3242 24.703s4.1445-15.539 3.3242-24.703" fill="#eccb2f"/>
<path d="m111.25 51.039c-0.87109 9.1719 3.1875 24.715 3.1875 24.715s-0.011719-16.062-3.1875-24.715" fill="#eccb2f"/>
<path d="m112.43 50.824c1.5352 9.082 9.4766 23.051 9.4766 23.051s-4.1641-15.523-9.4766-23.051" fill="#eccb2f"/>
<path d="m113.54 50.305c3.8203 8.375 15.113 19.816 15.113 19.816s-8.0508-13.918-15.113-19.816" fill="#eccb2f"/>
<path d="m114.46 49.527c5.8594 7.0938 19.734 15.227 19.734 15.227s-11.383-11.359-19.734-15.227" fill="#eccb2f"/>
<path d="m115.16 48.531c7.5 5.3359 22.988 9.6016 22.988 9.6016s-13.922-8.0234-22.988-9.6055" fill="#eccb2f"/>
<path d="m115.57 47.391c8.625 3.2188 24.699 3.3164 24.699 3.3164s-15.531-4.1406-24.699-3.3164" fill="#eccb2f"/>
<path d="m190.93-0.0039062c-7.3555 17.883-20.043 35.434-47.418 34.293-24.445-1.0156-36.785-1.5859-46.746-1.5859-9.957 0-25.121 1.9297-42.32 24.113 17.656-35.207 23.766-45.727 49.566-44.711 25.809 1.0234 32.371 2.3789 46.516 2.3789 14.148 0 26.824-1.9219 40.402-14.488" fill="#f5821f"/>
<g clip-path="url(#b)">
<path d="m167.05 46.172c-5.4336 12.797-23.102 31.129-48.781 31.695-25.684 0.55859-30.215 0.67578-40.172 1.0156-9.9648 0.33984-18.57 2.7188-31.012 17.195-12.457 14.484-41.195 49.008-47.082 56.023 6.6758-12.453 29.77-53.41 38.828-67.57 9.0469-14.145 21.957-26.594 47.637-26.141 25.691 0.46484 27.957 1.0273 43.352 0.68359 19.367-0.42578 26.035-4.3047 37.23-12.902" fill="#11b04a"/>
</g>
<g clip-path="url(#a)">
<path d="m174.29 47.98h35.883c1.8125 0 2.0391 0.91016 1.582 2.2656-0.45312 1.3555-13.852 55.227-13.852 55.227l1.6328 4.9844h-34.18c-1.8203 0-2.043-0.91016-1.5938-2.2617 0.45703-1.3594 15.113-54.84 15.113-54.84" fill="#ec1c23"/>
</g>
</svg>
