<?xml version="1.0" encoding="UTF-8"?>
<!-- Created with Inkscape (http://www.inkscape.org/) -->
<svg width="640" height="400" version="1.1" viewBox="0 0 169.33 105.83" xmlns="http://www.w3.org/2000/svg">
 <circle cx="84.667" cy="52.917" r="52.917" fill="#d3d2d2"/>
 <path class="st0" d="m69.66 24.506s5.8469-7.0275 14.302-7.28c8.4549-0.2104 13.503 5.0497 13.503 5.0497l29.445 32.234s5.0477 6.0596 2.8604 12.54c-2.1873 6.4805-13.965 20.998-44.588 21.545-30.665 0.63121-43.536-15.949-43.536-15.949s-6.0572-9.8048 0.21032-17.169c6.2255-7.1958 27.804-30.972 27.804-30.972zm1.4302 2.6511s5.1318-6.9013 12.956-7.0275c7.8239-0.2104 12.241 4.8393 12.241 4.8393l26.879 30.088s5.4683 5.1759 3.4072 11.109c-1.977 5.9755-13.25 18.726-41.391 19.273-28.225 0.58912-40.129-14.308-40.129-14.308s-5.7628-7.7008 0-14.392c5.7628-6.6488 26.038-29.583 26.038-29.583" fill="#d3d2d2" stroke-width=".42072"/>
 <circle cx="84.667" cy="52.917" r="50.535" fill="#f1bd18"/>
 <path d="m77.367 85.551c-12.22-0.99847-23.699-5.5324-30.802-12.166-3.2356-3.0217-4.4433-5.616-4.4811-9.6262-0.0318-3.3738 0.6713-4.7677 4.738-9.3927 19.275-21.922 26.445-29.885 27.751-30.824 2.207-1.5862 4.7146-2.7648 6.8438-3.2165 4.6723-0.9913 10.761 0.69452 14.207 3.9336 1.9242 1.8086 29.01 32.338 29.825 33.616 1.9563 3.0698 2.3428 6.4838 1.0517 9.2902-2.6976 5.8639-9.4953 11.279-18.309 14.585-8.503 3.1893-20.381 4.6538-30.824 3.8005z" fill="#1c5637" stroke-width=".26458"/>
 <g transform="matrix(.42064 0 0 .42081 1.548 -5.0243)" fill="#d3d2d2">
  <path class="st0" d="m166 132c0.1-0.2 0.2-0.2 0 0z"/>
  <path class="st0" d="m234.2 136.4c-2-1.2-3 0.8-3 0.8l-2.7 2.4s-10.3 7.3-24.4 7.8c-14 0.7-18.1-4.4-24-9.8s-7.4-17.6-7.4-17.6l3.2-4.9 5.1 0.2s-0.8 7.8 3 12.5c3.9 4.9 9.5 5.6 9.5 5.6v1.4c0 1.2-1 1.7-3.6 2.5-2.4 1-0.2 2.7-0.2 2.7l25.7-0.2s11.8-2.9 11.8-14c0-11-10-13-10-13s6.4-0.5 6.4-10-9.3-9.1-9.3-9.1l-34.3 0.3v2.2s0.2 0.3 0.7 1.7c0.5 1.5-0.5 2.2-0.5 2.2l-7.9 11.3s-0.7-12.3 8.1-21.6c9-9.5 21-7.6 21-7.6h5.4s11.2 2.4 18.1 6.3c6.8 3.9 5.2-0.8 5.2-0.8s-3.4-5.2-4.9-8.5c-1.7-3.2-2.5-1.5-4.7 0.2s-5.2 0-5.2 0-16.6-5.6-33.3 1.4c-16.6 7.1-19.6 28.6-20 32.6-0.3 4.1 1.4 13.7 1.4 13.7s-2.9 4.4-4.7 7.3c-1.9 3-7.6 3.2-7.6 3.2s-1.7-0.2-1.7 1.7c0 2 1 1.5 1 1.5l15.9-0.2s1.2-1.9-1.2-3.2c-1.9-0.9 0.4-4.4 1-5.2v-0.1c0.2-0.2 0.1-0.2 0 0.1-0.7 1.6 14.4 23.8 35.9 22.4 21.8-1.4 30.3-12.9 30.3-12.9s3.9-4.3 1.9-5.3zm-40.8-9.5s-3.2-0.7-4.6-3.6c-1.4-2.7-1.2-8.1-1.2-8.1h5.8zm-5.6-16.6s0-1.2 1.7-3.4c1.5-2.2 3.7-2.5 3.7-2.5v5.9zm31.5 15.1c0 8.5-7.1 10.5-7.1 10.5s-1 0.3-4.6 0.5c-3.7 0.2-6.1-1.2-6.1-1.2l0.2-1.9s3.9-0.3 7.4-2c3.6-1.9 4.7-3.9 4.7-3.9s1.9-2.4 0.7-3.4c-1.2-0.8-1.7-0.3-1.7-0.3s0.8-0.5-2.9 2.7-8.6 2.2-8.6 2.2l-0.3-13.2h10s8.3 1.7 8.3 10zm-18.6-22.2s4.6-1.5 8.3 1.9 3.4-0.5 3.4-0.5-0.2-1.2-2-3.4c-1.9-2.2-3.6-0.3-3.6-0.3l-6.1-0.2v-2.9h10.8s4.2 0.5 4.2 5.9c0 5.6-4.2 6.6-4.2 6.6h-10.8zm-15.6-2.8c0.8-1.9 2.2-1.9 2.2-1.9s2-0.2 4.6-0.3c2.4-0.2 1.5 2.9 1.5 2.9s-3.7 1-7.1 3.4c-3.2 2.4-4.6 6.3-4.6 6.3l-2.4-0.2c0.1-0.1 4.8-8.4 5.8-10.2z"/>
  <path class="st0" d="m141.8 177-6.8 8.8-29.9-21.5 1.2-1.5c0.5 0.3 1.2 0.7 1.9 1.2 0.8 0.3 1.4 0.7 1.7 0.7 0.7 0.2 1.2 0.2 1.7 0 0.3-0.2 0.8-0.5 1.2-1l13.4-20.5c0.3-0.5 0.5-0.8 0.7-1.4 0-0.5-0.2-1-0.7-1.7-0.3-0.5-0.8-1.2-1.4-1.7-0.7-0.7-1.2-1-1.5-1.4l1-1.7 17.9 12.9-1.2 1.5c-0.5-0.2-1-0.5-1.9-1-0.7-0.3-1.2-0.7-1.9-0.8-0.7-0.3-1.4-0.3-1.7-0.2-0.5 0.3-0.8 0.7-1.2 1.2l-12.5 18.9c-0.7 0.8-1 1.7-1.2 2.2-0.2 0.7-0.2 1.4 0 1.9s0.7 1 1.4 1.7c0.7 0.5 1.5 1.2 2.9 2.2 1.2 0.8 2.4 1.7 3.7 2.4 1.2 0.7 2.2 1 3 0.8 1.2 0 2.5-0.5 4.2-1.2s3-1.4 4.2-2z"/>
  <path class="st0" d="m178.9 169.2c1 1.9 1.7 3.9 1.9 6.3 0.3 2.2-0.2 4.6-1 7.1-0.8 2.4-2 4.4-3.6 6.3-1.5 1.7-3.2 3.2-5.2 4.2-2.2 1.2-4.4 1.9-6.9 2.2-2.4 0.2-5.1 0-7.9-0.8-2.4-0.7-4.6-1.7-6.3-3-1.9-1.2-3.4-2.9-4.4-4.7-1.2-1.9-1.9-3.9-2-6.1-0.2-2.2 0.2-4.6 1-7.1 1-2.5 2.2-4.7 3.9-6.4 1.7-1.9 3.6-3.4 5.6-4.4 2.2-1 4.4-1.5 6.9-1.9 2.4-0.2 4.7 0.2 7.3 0.8 2.4 0.7 4.6 1.7 6.4 3 1.7 1.3 3.1 2.8 4.3 4.5zm-14.1 20.8c1.2-1.2 2.2-2.5 3.2-4.2 0.8-1.5 1.7-3.4 2.5-5.6 0.5-1.7 1-3.6 1.5-5.2 0.3-1.9 0.3-3.6 0.2-5.1s-0.7-2.7-1.4-3.9c-0.8-1-2-1.9-3.7-2.4-2.7-0.7-5.2 0-7.6 2.2-2.4 2-4.4 5.4-5.9 10-0.7 1.9-1.2 3.9-1.5 5.6-0.3 1.9-0.3 3.6-0.2 4.9 0.2 1.5 0.7 2.9 1.5 3.9 0.7 1 1.9 1.7 3.4 2 1.5 0.5 3 0.5 4.4 0 1.4-0.3 2.6-1.2 3.6-2.2"/>
  <path class="st0" d="m213 173.9h-1.7c-0.3-1.5-1.2-3-2.2-4.6-1-1.7-1.9-2.5-2.7-2.5-0.5-0.2-1-0.2-1.7-0.2h-2.9l0.5 26.2c0 0.5 0 1 0.2 1.4 0.3 0.5 0.7 0.8 1.2 1 0.3 0.2 0.8 0.3 1.5 0.5 0.7 0 1.4 0.2 1.9 0.2v1.9l-17.1 0.3v-1.9c0.3 0 1-0.2 1.7-0.2 0.8-0.2 1.4-0.2 1.5-0.3 0.5-0.3 1-0.7 1.2-1 0.2-0.5 0.2-1 0.2-1.5l-0.3-26.4h-2.9c-0.7 0.2-1.2 0.2-1.7 0.2-0.8 0.2-1.7 1.2-2.7 2.7-0.8 1.7-1.5 3.2-2 4.7h-1.7l-0.2-9.6 29.8-0.5z"/>
  <path class="st0" d="m253.1 155c-0.5 0.2-1.2 0.5-1.9 1-0.8 0.3-1.5 0.8-2 1.4-0.5 0.5-0.7 1.4-0.7 2.4s0.2 2.5 0.7 4.4l3.2 11.7c0.8 3.6 0.3 6.6-1.5 9.3-2 2.9-4.9 4.9-9 6.1-4.7 1.4-8.8 1.4-11.8 0-3.2-1.2-5.2-3.7-6.1-7.3l-4.2-16.1c-0.2-0.7-0.5-1-0.7-1.4-0.3-0.3-0.8-0.5-1.5-0.7h-1.7c-0.5 0-1 0.2-1.5 0.2l-0.3-1.7 17.4-4.9 0.3 1.7c-0.3 0.2-0.8 0.3-1.4 0.5-0.5 0.3-1 0.5-1.5 0.8s-0.8 0.8-1 1.2c0 0.5 0 1 0.2 1.5l4.1 15.9c0.8 3 2.2 5.2 4.1 6.1 1.9 1 4.1 1.2 6.9 0.3 2.7-0.7 4.6-2 5.8-4.1 1.2-2 1.4-4.6 0.5-7.6l-2.9-10.7c-0.5-1.9-1-3.2-1.5-4.1s-1-1.5-1.7-1.7c-0.5-0.3-1.4-0.3-2.4-0.3-1.2 0-1.9 0-2.4 0.2l-0.3-1.7 14.4-4.2z"/>
  <path class="st0" d="m280 173.9c-2 1.2-4.1 2-6.1 2.5-2 0.7-3.7 1-5.2 1.2l-0.8 2.2-2 1.2-5.8-10 2-1.2c1 0.8 2.2 1.5 3.4 2 1.4 0.7 2.5 1.2 4.1 1.5 1.4 0.3 2.9 0.5 4.2 0.3 1.5-0.2 3-0.7 4.6-1.5 2.2-1.4 3.6-2.7 4.2-4.2 0.7-1.5 0.7-2.9 0-4.2-0.5-1-1.5-1.7-2.9-1.9s-3.2 0-5.6 0.5c-1.5 0.5-2.9 0.8-4.1 1.2-1.4 0.3-2.5 0.7-3.7 0.8-2.5 0.5-4.7 0.5-6.6-0.3-1.9-0.7-3.2-2-4.2-3.7-0.5-1.2-0.8-2.4-0.8-3.7 0.2-1.2 0.5-2.5 1.2-4.1 0.5-1.4 1.5-2.7 2.9-4.1 1.4-1.5 3-2.7 4.9-3.7 1.9-1.2 3.7-1.9 5.6-2.4s3.4-0.8 4.6-0.8l0.7-2 2.2-1.2 5.2 9.3-2 1.2c-1-0.7-2.2-1.4-3.4-2.2-1.2-0.7-2.4-1.2-3.4-1.5-1.2-0.3-2.4-0.3-3.7-0.2-1.2 0-2.5 0.5-3.9 1.4-1.7 0.8-2.9 2-3.6 3.6-0.5 1.4-0.5 2.7 0 3.9 0.7 1 1.5 1.7 2.9 1.9s3 0 5.4-0.5c1.4-0.3 2.7-0.7 4.1-1.2 1.4-0.3 2.5-0.7 3.7-0.8 2.7-0.5 4.9-0.5 6.8 0 1.9 0.7 3.4 2 4.4 3.9 0.7 1.2 0.8 2.5 0.8 4.1-0.2 1.5-0.5 3-1.2 4.4-0.8 1.5-2 3-3.4 4.4s-3.3 2.6-5.5 3.9"/>
 </g>
</svg>
