<?xml version="1.0" encoding="UTF-8"?>
<svg version="1.1" viewBox="0 0 960.47 480" xmlns="http://www.w3.org/2000/svg" xmlns:xlink="http://www.w3.org/1999/xlink">
 <linearGradient id="y" x1="-964.01" x2="-845.66" y1="1311" y2="1255.8" gradientTransform="matrix(2.5953 0 0 -2.5953 2828.6 3570.6)" gradientUnits="userSpaceOnUse">
  <stop stop-color="#131313" offset=".86"/>
  <stop stop-color="#595031" offset="1"/>
 </linearGradient>
 <linearGradient id="x" x1="-887.77" x2="-828.42" y1="1370.9" y2="1286.1" gradientTransform="matrix(2.5953 0 0 -2.5953 2828.6 3570.6)" gradientUnits="userSpaceOnUse">
  <stop offset="0"/>
  <stop stop-color="#413500" offset=".012"/>
  <stop stop-color="#5f512a" offset=".028"/>
  <stop stop-color="#736540" offset=".045"/>
  <stop stop-color="#82744f" offset=".061"/>
  <stop stop-color="#8b7d59" offset=".078"/>
  <stop stop-color="#8e805c" offset=".096"/>
  <stop stop-color="#b8ad91" offset=".5"/>
  <stop stop-color="#b4a98c" offset=".607"/>
  <stop stop-color="#a99d7e" offset=".721"/>
  <stop stop-color="#988b69" offset=".837"/>
  <stop stop-color="#8e805c" offset=".893"/>
  <stop stop-color="#8e805c" offset=".961"/>
 </linearGradient>
 <linearGradient id="w" x1="-918.59" x2="-918.59" y1="1283.8" y2="1230.3" gradientTransform="matrix(2.5953 0 0 -2.5953 2828.6 3570.6)" gradientUnits="userSpaceOnUse">
  <stop stop-color="#dcdac4" offset=".253"/>
  <stop stop-color="#c5c0ac" offset=".54"/>
  <stop stop-color="#beb8a4" offset=".77"/>
  <stop stop-color="#afaa97" offset=".82"/>
 </linearGradient>
 <linearGradient id="v" x1="-916" x2="-920.59" y1="1284.7" y2="1337.2" gradientTransform="matrix(2.5953 0 0 -2.5953 2828.6 3570.6)" gradientUnits="userSpaceOnUse">
  <stop stop-color="#867a5c" offset=".59"/>
  <stop stop-color="#6a6044" offset=".691"/>
 </linearGradient>
 <linearGradient id="u" x1="-909.67" x2="-909.67" y1="1229.3" y2="1371.8" gradientTransform="matrix(2.5953 0 0 -2.5953 2828.6 3570.6)" gradientUnits="userSpaceOnUse">
  <stop stop-color="#fff" offset=".376"/>
  <stop stop-color="#f2efe8" offset=".393"/>
 </linearGradient>
 <defs>
  <path id="t" d="m169.36 119.82h39.988c1.123 0 1.256 0.471 0.799 1.424-13.019 27.255-30.469 60.109-45.861 85.146-0.75 1.242-1.9 1.586-3.264 1.586h-38.195c19.287-33.16 33.307-59.611 46.533-88.156z"/>
 </defs>
 <defs>
  <path id="r" d="m112.8 119.82c7.323 16.811 18.641 39.009 27.402 54.544-5.893 11.104-13.306 23.485-19.522 33.457-0.59-0.201-1.073-0.604-1.588-1.431-17.421-27.66-34.292-59.496-46.531-84.589-0.383-0.793-0.541-1.404-0.557-1.981z"/>
 </defs>
 <defs>
  <path id="p" d="m210.31 119.82c1.117 0 1.605-0.418 0.875-1.98-13.373-28.707-29.371-57.872-46.604-85.07-0.871-1.377-2.074-1.267-3.029 0.162-3.502 5.228-14.695 24.078-19.477 32.957 8.766 15.857 21.549 41.088 27.288 53.932-1e-3 -1e-3 25.333-1e-3 40.947-1e-3z"/>
 </defs>
 <defs>
  <path id="d" d="m72.402 118.23c14.384-29.568 28.725-56.38 45.889-84.434 0.689-1.123 2.149-1.98 3.744-1.98h36.969c-14.184 23.786-33.144 58.982-46.204 88.002h-40.796c-0.013-0.559 0.136-1.054 0.398-1.588z"/>
 </defs>
 <linearGradient id="b" x1="-927.64" x2="-886.93" y1="1370.8" y2="1370.8" gradientTransform="matrix(2.5953 0 0 -2.5953 2828.6 3570.6)" gradientUnits="userSpaceOnUse">
  <stop stop-color="#c6c7c9" offset="0"/>
  <stop stop-color="#d3d2cf" offset=".439"/>
  <stop stop-color="#e9e4da" offset="1"/>
 </linearGradient>
 <linearGradient id="a" x1="-893.63" x2="-824.35" y1="1227.3" y2="1252.5" gradientTransform="matrix(2.5953 0 0 -2.5953 2828.6 3570.6)" gradientUnits="userSpaceOnUse">
  <stop stop-color="#fff" offset="0"/>
  <stop stop-color="#fbfaf7" offset=".472"/>
  <stop stop-color="#f1eee7" offset=".76"/>
  <stop stop-color="#e4ded2" offset=".998"/>
  <stop stop-color="#e4ded1" offset="1"/>
 </linearGradient>
 <g stroke-width="2.5953">
  <path d="m664.73 234.86c-34.44-74.127-77.895-152.96-122.28-223.2-2.2372-3.5633-3.5244-5.1179-8.1934-5.1179h-107.52c-5.1517 0-7.8612 2.2008-9.6364 5.1179-44.182 72.458-84.804 147.85-121.86 224.24-1.3755 2.8393-1.5312 5.2217 0.41265 9.2159 31.525 64.828 78.531 152.6 123.5 224.23 2.2527 3.5685 4.6741 4.1006 7.5809 4.1006h108.13c3.527 0 6.2651-0.90316 8.2012-4.1006 39.659-64.68 88.798-154.86 122.29-225.26 1.2873-2.7173 1.2561-5.1828-0.61768-9.2315zm-184.03 136.2c-0.39967-0.80194-0.79675-1.6272-1.225-2.4396v9.1225c-22.579-40.16-50.263-94.334-69.149-137.74 20.072-44.691 45.558-95.081 70.582-141.51v11.666c0.21541-0.40227 0.41006-0.80973 0.61768-1.2198 17.427 36.583 43.295 93.016 57.844 129.22-14.801 34.774-42.041 99.426-58.669 132.9z" fill="url(#y)"/>
  <path d="m531.87 7.7217c4.6949 0 5.951 1.5624 8.2115 5.1257 44.393 70.239 89.027 150.25 123.47 224.39 0.77599 1.674 2.4136 3.0624 2.5901 4.329 0.29067-1.8686-0.10641-3.9111-1.4041-6.7063-34.442-74.127-77.898-152.96-122.28-223.2-2.2398-3.5633-3.527-5.1179-8.196-5.1179z" fill="url(#x)"/>
  <path d="m535.71 238.63c-16.737-40.339-35.569-81.697-54.797-122.24v-16.257c22.709 41.278 55.456 105.7 70.099 138.5z"/>
  <path d="m535.71 238.63h15.302c-21.564 46.526-45.464 91.147-71.537 139.08v-16.672c20.402-40.344 38.239-78.586 56.235-122.41z" fill="#3c362e"/>
  <path d="m409.79 238.81h14.469c16.127 39.918 34.11 80.444 55.21 122.22v16.672c-22.745-40.334-50.66-95.258-69.679-138.89z" fill="url(#w)"/>
  <path d="m409.79 238.81c20.212-44.906 45.924-95.533 71.116-142.18v19.745c-21.502 42.192-40.728 83.122-56.648 122.43z" fill="url(#v)"/>
  <path d="m528.27 12.684c-36.643 61.688-84.991 151.76-118.47 226.13 19.021 43.63 46.933 98.554 69.681 138.89l-1.4482 2.6706c-22.74-40.318-52.114-97.928-71.116-141.56 33.895-75.318 83.099-166.66 119.91-228.39 1.6013 0 2.398 0.65661 1.4404 2.2605z" fill="url(#u)"/>
 </g>
 <use transform="matrix(2.5953,0,0,2.5953,114.16,-72.159)" width="100%" height="100%" fill="#b5b5b0" overflow="visible" xlink:href="#t"/>
 <path d="m406.91 238.81c19.005 43.63 48.379 101.24 71.116 141.56-15.294 28.818-34.533 60.951-50.665 86.831-1.5312-0.52165-2.7848-1.5676-4.1213-3.7139-45.213-71.786-88.998-154.41-120.76-219.53-0.994-2.0581-1.404-3.6438-1.4456-5.1413z" fill="#695b35" stroke-width="2.5953"/>
 <use transform="matrix(2.5953,0,0,2.5953,114.16,-72.159)" width="100%" height="100%" fill="#74726a" overflow="visible" xlink:href="#r"/>
 <use transform="matrix(2.5953,0,0,2.5953,114.16,-72.159)" width="100%" height="100%" fill="#d6d7d9" overflow="visible" xlink:href="#p"/>
 <g stroke-width="2.5953">
  <path d="m430.27 11.916h93.267c1.6428 0 1.8608 0.31144 1.8608 0.97843l1.4404-2.4681h-95.946c-4.1395 0-7.9286 2.2216-9.7168 5.1361 1.6558-1.6973 3.9345-3.6464 9.0939-3.6464z" fill="url(#b)"/>
  <path d="m659.98 238.81c2.899 0 4.1655-1.0848 2.2709-5.1387-34.707-74.503-76.227-150.2-120.95-220.78-2.2605-3.5737-5.3826-3.2882-7.8612 0.42044 1.6584-0.83569 2.899-1.1705 4.5522 1.43 44.87 70.372 86.247 146.29 120.96 220.78 0.994 2.2605 1.0303 3.2882 1.0303 3.2882z" fill="#fff"/>
  <path d="m659.56 242.52c-33.804 70.691-79.105 155.97-119.02 220.98-1.0744 1.7778-1.7181 2.1982-2.001 1.9517-0.18168-0.15831 0.0805-0.48791 0.97842-1.9517 39.913-65.01 85.204-150.29 119.02-220.98 0.59692-1.2509 1.0277-2.5226 1.4456-2.4733 0.44379 0.0649 0.14534 1.308-0.41785 2.4733z" fill="url(#a)"/>
 </g>
 <use transform="matrix(2.5953,0,0,2.5953,114.16,-72.159)" width="100%" height="100%" fill="#b1b1ab" overflow="visible" xlink:href="#d"/>
</svg>
