<?xml version="1.0" encoding="UTF-8"?>
<!-- Created with Inkscape (http://www.inkscape.org/) -->
<svg width="2e3" height="1250" version="1.1" viewBox="0 0 529.17 330.73" xmlns="http://www.w3.org/2000/svg">
 <path d="m99.219 187.09c4.8351 3.3703 9.5269 6.958 14.534 10.076 26.802 17.286 54.307 33.509 80.448 51.812 12.039 8.1193 22.391 19.253 27.911 32.816 2.901 7.2609 4.7892 15.106 4.5547 22.957-24.273 5.4415-49.924 4.5089-73.681-2.8955-19.906-6.0767-38.177-16.874-53.764-30.613v-84.153m147.96-153.78c5.4644 1.173 10.196 4.3257 15.197 6.6602 19.111 10.288 36.009 24.878 48.533 42.628 16.393 23.328 26.229 51.446 26.556 80.043 0.84687 27.998-7.1868 56.144-22.408 79.637-9.7332 15.272-22.528 28.512-37.163 39.139-2.0714 1.5678-4.2342 3.0269-6.5229 4.2628-0.58366-9.0174-1.0243-18.219-3.9309-26.865-2.5748-9.2412-6.5344-18.104-11.867-26.097-5.7333-8.8351-13.006-16.508-20.432-23.924-4.1542-3.9939-8.9552-7.2212-13.75-10.38-10.814-7.0094-22.012-13.418-33.337-19.564-22.431-10.185-44.786-21.434-63.606-37.554-10.311-8.6462-16.937-20.92-20.788-33.651-2.4604-7.6214-2.5234-15.712-1.997-23.627 1.482-10.94 6.6661-21.212 14.082-29.337 9.9104-10.746 24.175-17.074 38.681-18.109 6.9578-0.02214 14.002-0.48066 20.856 0.97274 16.553 2.8724 31.167 13.315 40.722 26.917 7.4846 12.377 10.385 26.842 12.8 40.918 0.86402 4.3201 0.80106 8.7946 1.9054 13.069 5.4358 0.0859 10.872 0.16027 16.302-0.0512 0.25174-28.365-0.0743-56.733 0.16597-85.094m-147.96-33.307h330.73v330.73h-330.73v-47.08c9.613 7.4384 19.821 14.173 30.842 19.352 38.806 18.528 85.441 19.238 124.91 2.2201 41.878-17.372 74.535-55.073 86.432-98.75 4.1312-14.734 5.842-30.087 5.3672-45.37-0.40055-25.691-7.8674-51.165-21.01-73.21-3.0783-5.1384-6.3113-10.225-10.248-14.746-13.017-16.857-29.486-31.064-48.214-41.215-37.599-20.582-84.036-23.804-124.24-9.121-15.907 5.7049-30.722 14.265-43.842 24.885v-47.693" fill="#d0180d" stroke-width=".57219"/>
</svg>
