<?xml version="1.0" encoding="UTF-8"?>
<svg width="5e3" height="2500" version="1.1" viewBox="117.94 117.97 3780.2 1890.1" xmlns="http://www.w3.org/2000/svg">
<linearGradient id="j" x1="-1541.7" x2="-1139.4" y1="1854" y2="761.46" gradientTransform="matrix(1 0 0 -1 2229.4 2495.4)" gradientUnits="userSpaceOnUse">
<stop stop-color="#fff" offset="0"/>
<stop stop-color="#53eeef" offset="1"/>
</linearGradient>
<linearGradient id="i" x1="-1146.5" x2="-725.41" y1="2029.7" y2="822.64" gradientTransform="matrix(1 0 0 -1 2229.4 2495.4)" gradientUnits="userSpaceOnUse">
<stop stop-color="#2f7fbe" offset="0"/>
<stop stop-color="#225d8b" offset="1"/>
</linearGradient>
<linearGradient id="h" x1="470.07" x2="1018.8" y1="2020" y2="955.37" gradientTransform="matrix(1.0207 0 0 -1.0134 56.414 2670.7)" gradientUnits="userSpaceOnUse">
<stop stop-color="#d50d16" offset="0"/>
<stop stop-color="#880d16" offset=".5"/>
<stop stop-color="#520d16" offset="1"/>
</linearGradient>
<linearGradient id="g" x1="330.66" x2="1553.8" y1="2149.5" y2="1104.8" gradientTransform="matrix(1 0 0 -1 84.089 2658.8)" gradientUnits="userSpaceOnUse">
<stop stop-color="#f8ffbf" offset="0"/>
<stop stop-color="#f8e45e" offset=".509"/>
<stop stop-color="#f8d35e" offset=".75"/>
<stop stop-color="#ee8e0a" offset="1"/>
</linearGradient>
<linearGradient id="f" x1="-933.39" x2="-685.29" y1="1696.5" y2="958.79" gradientTransform="matrix(1 0 0 -1 2229.4 2495.4)" gradientUnits="userSpaceOnUse">
<stop stop-color="#157031" offset="0"/>
<stop stop-color="#0f5324" offset="1"/>
</linearGradient>
<g transform="matrix(.97884 0 0 .97884 967.55 15.751)">
<path d="m1962.5 1063c0 496.76-402.7 899.46-899.46 899.46s-899.46-402.7-899.46-899.46c0-496.76 402.7-899.46 899.46-899.46s899.46 402.7 899.46 899.46z" fill="#1e1d51"/>
<path d="m1059.5 431.69c-76.82 1.445-150.52 15.117-219.03 39.031v493.78h219.03zm-398.41 147.16c-114.22 96.945-194.77 230.65-222.16 382.12h222.16zm171.62 560.84v516.22c70.314 23.873 145.94 37.526 224.78 38.969v-555.19zm-394.5 1.407c22.77 161.32 105.02 304 224.28 406v-406z" fill="url(#j)"/>
<path d="m1075.4 438.05c339.39 6.637 612.53 283.99 612.53 624.97 0 340.98-273.14 618.18-612.53 624.81z" fill="url(#i)"/>
<path d="m824.15 478.56v499.94h231.93v147.58h-231.93v522.68a638.75 638.75 0 0 1-148.61-86.363v-436.31h-241.62a635.88 635.88 0 0 1-3.062-62.357 634.12 634.12 0 0 1 5.741-85.223h238.94v-413.54a638.84 638.84 0 0 1 148.61-86.396z" fill="url(#h)"/>
<path d="m664.31 581.61zm-222.75 549.22zm217.22 408.84z" fill="#fff38d"/>
<path d="m1233.6 648.52h215v30h-215z" fill="#9d0d16"/>
<path d="m1065.6 117.97c-327.2-0.521-645.79 169.01-821.03 472.53-260.82 451.75-105.85 1030.1 345.91 1290.9 451.75 260.82 1030.1 105.85 1290.9-345.91 260.82-451.75 105.85-1030.1-345.91-1290.9-148.23-85.582-310.08-126.37-469.88-126.62zm-2.625 45.562c496.5 0 899.47 402.97 899.47 899.47 0 496.5-402.97 899.47-899.47 899.47-496.5 0-899.47-402.97-899.47-899.47 0-496.5 402.97-899.47 899.47-899.47zm-54.156 31.5v186.44h56.812v-62.812l45.875 62.812 74.75 10.938-64.781-83.719c14.215-2.954 40.875-18.048 40.875-49.844 0-47.602-42.865-62.812-69.781-62.812zm71.781 40.875c15.452 0 26.408 10.474 26.906 21.938 0.499 11.465-7.432 23.906-24.906 23.906h-17.969l-0.969-44.844zm267.81 10.594c-1.008-6e-3 -2.028 0.011-3.031 0.031-49.013 0.998-90.455 30.716-100.38 79.25-9.879 48.339 34.023 105.54 87.688 117.72 58.225 13.216 112.56-14.431 124.81-77.188 10.49-53.738-29.007-106.5-87.656-117.69-7.216-1.375-14.382-2.081-21.438-2.124zm-687.5 49.219-50.844 26.906 23.907 210.34 53.844-39.875-6.969-31.875 58.812-34.906 26.906 19.938 61.812-24.906zm688.81 2.312c3.456 0.01 6.963 0.326 10.5 1 28.299 5.396 46.262 29.862 41.312 55.812-4.947 25.951-30.951 43.615-59.25 38.219-28.297-5.396-42.26-32.799-37.312-58.75 4.33-22.706 20.56-36.347 44.75-36.281zm-686.81 64.469 42.844 32.906-30.906 17.938zm948.03 26.937-159.5 110.66 46.844 36.875 76.781-59.812-38.906 96.688 19.938 18.938 97.719-39.875-58.812 79.75 35.875 50.844 112.65-161.5-35.906-42.844-91.719 36.875 36.906-92.719zm-547.97 23.563c-358.66 0-650.03 291.37-650.03 650.03 0 358.66 291.37 650 650.03 650 358.66 0 650.03-291.34 650.03-650 0-358.66-291.37-650.03-650.03-650.03zm-595.47 21.281-77.75 89.719 135.56 120.62 37.906-43.844-51.844-45.875 37.875-40.875-32.906-29.906-37.874 41.875-18.938-17.938 40.875-44.875zm582.91 3.781v515.88h-202.22v-478.09c63.256-23.156 131.29-36.382 202.22-37.782zm25 0c238.02 4.654 443.45 142.47 544.94 342a189.82 189.82 0 0 0-4-5.156c-24.865-30.887-56.19-51.372-82.875-68.531a12.508 12.508 0 0 0-7.125-1.969 12.501 12.501 0 0 0-9.781 5.188c-6.21 8.6-17.934 15.75-33.219 15.75h-115.16c-5.778 0-11.266 1.574-16 5-4.733 3.427-8.938 9.557-8.938 16.812v13.125c-0.058 0.076-0.162 0.278-0.656 0.656-1.127 0.865-3.341 1.781-5.812 1.781h-99.219l0.094-8.281v-0.156c0-15.105-7.703-28.828-19.594-37.5l-0.188-0.156-0.156-0.094-43.375-29.406-0.062-0.062-0.062-0.031c-6.905-4.559-14.623-6.719-21.906-6.562a32.858 32.858 0 0 0-7.094 0.938c-9.15 2.242-16.596 8.022-21.406 15.406-9.62 14.77-7.411 38.114 11.094 51.344l20.344 15.562 0.156 0.125 0.156 0.094c4.281 3.063 6.656 6.763 6.656 7.781l-0.5 32.969v0.188c0 0.402-0.06 0.501-0.094 0.656-0.57-2e-3 -1.664-0.129-3.938-0.875-4.811-1.577-8.462-3.609-14.125-5.75-5.662-2.14-12.944-3.844-22.312-3.844-16.492 0-30.043 7.444-38.531 17.344a53.774 53.774 0 0 0-7.312 11.031v-385.38zm-252.22 47.563v493.31h227.22v145.62h-227.22v515.75a624.72 624.72 0 0 1-145.59-85.219v-430.53h-236.72a632.24 632.24 0 0 1-3-61.531 630.21 630.21 0 0 1 5.625-84.094h234.09v-408.06a624.81 624.81 0 0 1 145.59-85.25zm423.72 96.094c-10.212 0-18.5 8.288-18.5 18.5 0 10.213 8.289 18.5 18.5 18.5 10.213 0 18.5-8.287 18.5-18.5 0-10.212-8.287-18.5-18.5-18.5zm47.125 0c-10.212 0-18.5 8.288-18.5 18.5 0 10.213 8.288 18.5 18.5 18.5 10.213 0 18.5-8.287 18.5-18.5 0-10.212-8.287-18.5-18.5-18.5zm47.094 0c-10.211 0-18.5 8.288-18.5 18.5 0 10.213 8.289 18.5 18.5 18.5 10.213 0 18.5-8.287 18.5-18.5 0-10.212-8.287-18.5-18.5-18.5zm47.094 0c-10.212 0-18.5 8.288-18.5 18.5 0 10.213 8.289 18.5 18.5 18.5 10.213 0 18.5-8.287 18.5-18.5 0-10.212-8.287-18.5-18.5-18.5zm47.125 0c-10.212 0-18.5 8.288-18.5 18.5 0 10.213 8.288 18.5 18.5 18.5 10.213 0 18.5-8.287 18.5-18.5 0-10.212-8.287-18.5-18.5-18.5zm-782.75 9.843v362.38h-205.22c25.303-143.65 99.697-270.44 205.22-362.38zm581.03 38.5v30h215v-30zm0 40.375v30h215v-30zm598.62 0.125-169.47 68.781 47.844 111.66 44.844-18.938-24.906-56.844 20.938-9.969 23.938 54.844 40.844-16.969-22.906-52.812 19.938-8.969 23.906 56.812 41.875-16.938zm-1548.2 20.938-23.906 52.812 165.47 76.781 52.843-107.69-40.875-20.938-31.906 55.844zm868.97 13.906c1.973-0.114 4.273 0.401 7.406 2.469l43.25 29.344c5.391 3.931 8.969 11.199 8.969 17.062l-0.5 40.531v0.156c0 15.963 8.074 29.565 18.5 39.062 6.148 5.6 13.188 10.019 20.719 12.719-7.531 2.701-14.57 7.119-20.719 12.719-10.426 9.498-18.5 23.101-18.5 39.062v0.156l0.5 40.688c0 5.864-3.953 13.227-9.344 17.156l-43 29.156c-4.177 2.758-6.734 2.719-9.156 2.125-2.42-0.593-4.797-2.312-6.406-4.781-3.217-4.938-4.617-10.691 4.688-17.344l0.312-0.25 20.688-15.781c6.997-5.006 16.781-13.418 16.781-27.875v-0.188l-0.5-33.156c0-7.073-2.541-15.06-9.688-20.469-7.146-5.408-17.355-6.077-27.125-2.875-6.976 2.287-11.534 4.745-15.188 6.125-3.652 1.381-6.746 2.219-13.469 2.219-9.42 0-15.205-3.542-19.562-8.625-4.357-5.082-6.594-12.162-6.594-16.812v-2.5c0-4.649 2.236-11.729 6.594-16.812 4.357-5.082 10.143-8.625 19.562-8.625 6.723 0 9.816 0.839 13.469 2.219 3.653 1.381 8.212 3.839 15.188 6.125 9.77 3.203 19.979 2.534 27.125-2.875 7.146-5.408 9.688-13.582 9.688-20.656l0.5-32.969v-0.188c0-14.456-10.097-23.087-17.094-28.094l-20.375-15.562-0.312-0.25c-9.304-6.651-7.904-12.405-4.688-17.344 1.609-2.469 3.986-4.188 6.406-4.781a10.51 10.51 0 0 1 1.875-0.281zm375.69 27.781c23.928 15.639 48.744 33.294 68.156 57.406 21.79 27.066 37.219 61.887 37.219 113.22 0 96.442-90.062 173.91-176.69 173.91h-209.34c-5.949 0-12.033 2.726-15.719 6.938-3.685 4.213-5.164 9.297-5.125 14.156 0.04 4.861 1.605 9.828 5.25 13.969 3.645 4.142 9.635 6.906 15.594 6.906h204.38c73.48 0 112.66 47.293 112.66 103.12 0 54.41-40.692 105.56-112.16 105.56h-210.59c-5.104 0-10.527 2.313-13.875 6.031-3.347 3.719-4.745 8.24-4.719 12.562 0.027 4.323 1.436 8.772 4.75 12.438 3.315 3.666 8.722 6 13.844 6h156.75c33.739 0 62.438 32.879 62.438 64.281 0 15.924-4.525 30.625-14.531 41.312-10.005 10.688-25.99 18.438-52.875 18.438h-94c-3.746 0-7.687 0.82-11.312 3.438s-6.59 7.619-6.438 12.812c0.154 5.194 3.145 9.647 6.625 12.125 3.48 2.479 7.366 3.375 11.125 3.375h62.344c8.795 0 15.299 3.847 20.438 10.094 5.139 6.248 8.125 15.003 8.125 22 0 8.715-3.219 16.77-8.906 21.812-3.688 3.271-8.787 5.543-15.781 6.094 0.344-3.602 0.403-7.681-2-12.562-2.851-5.792-10.803-10.406-17.562-10.406h-37.406c-13.027 0-27.406-4.912-38.031-14.188-10.624-9.274-17.906-22.419-17.906-41.344 0-17.4 7.274-29.808 17.594-38.719 10.32-8.91 24.027-13.562 34.125-13.562h91.938c4.151 0 8.195-0.716 12.062-3.062 3.868-2.346 7.85-7.289 7.844-13.438-0.01-6.147-4.012-11.094-7.875-13.438-3.863-2.343-7.881-3.031-12.031-3.031h-144.03c-55.418 0-86.281-39.217-86.281-81.5 0-37.723 32.309-82.438 81.281-82.438h214.34c5.835 0 11.838-2.722 15.406-6.875 3.569-4.152 4.972-9.095 4.938-13.812-0.033-4.717-1.498-9.568-5.031-13.656-3.532-4.088-9.464-6.844-15.312-6.844h-218.31c-61.029 0-109.31-45.255-109.31-113.59 0-57.084 46.709-115.62 115.78-115.62h197.88c10.79 0 20.472-4.854 26.406-11.938 5.936-7.083 8.58-15.812 8.625-24.406 0.046-8.594-2.518-17.398-8.469-24.531-5.951-7.132-15.703-11.969-26.562-11.969h-211.12l-0.156-11.844c0-7.31 3.973-14.664 10.344-20.469 6.373-5.804 14.943-9.125 20.188-9.125h118.31c4.578 0 9.109-1.058 13.562-4.125 4.453-3.066 8.594-9.68 8.594-17.938 0-8.506-2.531-12.807-8.594-17.938-4.453-3.066-8.984-4.125-13.562-4.125h-118.31c-5.244 0-13.815-3.32-20.188-9.125-6.371-5.804-10.344-13.283-10.344-20.594l0.094-7.25h144.41c7.994 0 15.287-2.562 21.031-6.969 5.744-4.405 10.438-11.164 10.438-19.688v-10.719h70.219c18.211 5e-3 34.039-6.784 45.369-17.152zm127.41 132.44c20.641 62.053 31.812 128.43 31.812 197.41 0 218.33-111.96 410.5-281.62 522.25 6.624-9.422 9.719-20.783 9.719-32 0-13.363-4.797-26.914-13.812-37.875-0.356-0.434-0.783-0.824-1.156-1.25 28.438-1.373 50.084-10.995 64.188-26.062 15.245-16.284 21.281-37.686 21.281-58.406 0-30.61-17.137-60.066-43.094-76.312h9.5c83.751 0 137.16-63.267 137.16-130.56 0-57.056-37.112-108.17-98.844-123.41 88.633-16.649 167.84-96.405 167.84-195.59 0-13.579-1.053-26.28-2.969-38.189zm-580.72 4.437a53.734 53.734 0 0 0 7.312 11.031c8.488 9.9 22.039 17.344 38.531 17.344 9.368 0 16.65-1.703 22.312-3.844 5.663-2.14 9.314-4.172 14.125-5.75 2.273-0.745 3.367-0.872 3.938-0.875 0.034 0.157 0.094 0.268 0.094 0.656v0.188l0.5 33.156c0 1.02-2.375 4.531-6.656 7.594l-0.156 0.094-0.156 0.125-20.656 15.812c-18.505 13.23-20.401 36.325-10.781 51.094 4.094 6.283 10.103 11.388 17.438 14.157-20.022 25.069-31.469 56.391-31.469 87.874 0 69.439 45.03 122.08 104.75 135.28-44.729 15.284-72.75 59.965-72.75 101.94 0 55.033 43.587 106.5 111.28 106.5h4.906c-1.097 0.856-2.216 1.675-3.281 2.594-14.999 12.952-26.25 32.925-26.25 57.656 0 25.707 10.87 46.599 26.438 60.188 15.568 13.59 35.399 20.344 54.5 20.344h31.312c-0.646 2.283-1.375 4.406-1.375 4.406a12.507 12.507 0 0 0 9 17.312c8.948 1.772 17.402 1.895 25.062 0.594-88.092 50.51-189.66 80.196-297.97 82.312zm-673.69 21.782-194.41 63.812-6.969 57.813 184.44 99.687-1-66.781-27.875-12.906 4.188-68.656 32.656-8.156zm1429.5 6c-65.069 0-97.688 53.323-97.688 106.66 0 53.334 38.588 106.69 97.688 106.69 59.074 1e-3 98.688-48.369 98.688-106.69 0-57.321-34.615-106.66-98.688-106.66zm-593.66 37.406h210.84c4.271 0 5.84 1.16 7.375 3 1.535 1.841 2.674 5.007 2.656 8.375-0.018 3.369-1.198 6.58-2.781 8.469-1.582 1.889-3.16 3-7.25 3h-197.88c-6.025 0-11.91 0.386-17.656 1.094 3.033-6.103 4.75-12.875 4.75-19.969v-0.156zm594.91 20.406c28.682 0 45.406 26.783 45.406 48.844 0 21.562-17.342 48.844-45.406 48.844-28.075 0-44.406-23.672-44.406-48.844 0-25.171 15.725-48.844 44.406-48.844zm-1516.2 20.094-2.375 38.25-52.812-24.469zm127.47 173.81h208.78v384.84c-111.01-96.684-187.59-231.93-208.78-384.84zm404.38 0h202.22v538.28c-70.928-1.398-138.96-14.636-202.22-37.781z" fill="url(#g)"/>
<path d="m1153.1 705.41c1.973-0.114 4.273 0.401 7.406 2.469l43.25 29.344c5.391 3.931 8.969 11.199 8.969 17.062l-0.5 40.531v0.156c0 15.963 8.074 29.565 18.5 39.062 6.148 5.6 13.188 10.019 20.719 12.719-7.531 2.701-14.57 7.119-20.719 12.719-10.426 9.498-18.5 23.101-18.5 39.062v0.156l0.5 40.688c0 5.864-3.953 13.227-9.344 17.156l-43 29.156c-4.177 2.758-6.734 2.719-9.156 2.125-2.42-0.593-4.797-2.312-6.406-4.781-3.217-4.938-4.617-10.691 4.688-17.344l0.312-0.25 20.688-15.781c6.997-5.006 16.781-13.418 16.781-27.875v-0.188l-0.5-33.156c0-7.073-2.541-15.06-9.688-20.469-7.146-5.408-17.355-6.077-27.125-2.875-6.976 2.287-11.534 4.745-15.188 6.125-3.652 1.381-6.746 2.219-13.469 2.219-9.42 0-15.205-3.542-19.562-8.625-4.357-5.082-6.594-12.162-6.594-16.812v-2.5c0-4.649 2.236-11.729 6.594-16.812 4.357-5.082 10.143-8.625 19.562-8.625 6.723 0 9.816 0.839 13.469 2.219 3.653 1.381 8.212 3.839 15.188 6.125 9.77 3.203 19.979 2.534 27.125-2.875 7.146-5.408 9.688-13.582 9.688-20.656l0.5-32.969v-0.188c0-14.456-10.097-23.087-17.094-28.094l-20.375-15.562-0.312-0.25c-9.304-6.651-7.904-12.405-4.688-17.344 1.609-2.469 3.986-4.188 6.406-4.781a10.51 10.51 0 0 1 1.875-0.281z" fill="#9d0d16"/>
<path d="m1528.8 733.19c23.928 15.639 48.744 33.294 68.156 57.406 21.79 27.066 37.219 61.887 37.219 113.22 0 96.442-90.062 173.91-176.69 173.91h-209.34c-5.949 0-12.033 2.726-15.719 6.938-3.685 4.213-5.164 9.297-5.125 14.156 0.04 4.861 1.605 9.828 5.25 13.969 3.645 4.142 9.635 6.906 15.594 6.906h204.38c73.48 0 112.66 47.293 112.66 103.12 0 54.41-40.692 105.56-112.16 105.56h-210.59c-5.104 0-10.527 2.313-13.875 6.031-3.347 3.719-4.745 8.24-4.719 12.562 0.027 4.323 1.436 8.772 4.75 12.438 3.315 3.666 8.722 6 13.844 6h156.75c33.739 0 62.438 32.879 62.438 64.281 0 15.924-4.525 30.625-14.531 41.312-10.005 10.688-25.99 18.438-52.875 18.438h-94c-3.746 0-7.687 0.82-11.312 3.438s-6.59 7.619-6.438 12.812c0.154 5.194 3.145 9.647 6.625 12.125 3.48 2.479 7.366 3.375 11.125 3.375h62.344c8.795 0 15.299 3.847 20.438 10.094 5.139 6.248 8.125 15.003 8.125 22 0 8.715-3.219 16.77-8.906 21.812-3.688 3.271-8.787 5.543-15.781 6.094 0.344-3.602 0.403-7.681-2-12.562-2.851-5.792-10.803-10.406-17.562-10.406h-37.406c-13.027 0-27.406-4.912-38.031-14.188-10.624-9.274-17.906-22.419-17.906-41.344 0-17.4 7.274-29.808 17.594-38.719 10.32-8.91 24.027-13.562 34.125-13.562h91.938c4.151 0 8.195-0.716 12.062-3.062 3.868-2.346 7.85-7.289 7.844-13.438-0.01-6.147-4.012-11.094-7.875-13.438-3.863-2.343-7.881-3.031-12.031-3.031h-144.03c-55.418 0-86.281-39.217-86.281-81.5 0-37.723 32.309-82.438 81.281-82.438h214.34c5.835 0 11.838-2.722 15.406-6.875 3.569-4.152 4.972-9.095 4.938-13.812-0.033-4.717-1.498-9.568-5.031-13.656-3.532-4.088-9.464-6.844-15.312-6.844h-218.31c-61.029 0-109.31-45.255-109.31-113.59 0-57.084 46.709-115.62 115.78-115.62h197.88c10.79 0 20.472-4.854 26.406-11.938 5.936-7.083 8.58-15.812 8.625-24.406 0.046-8.594-2.518-17.398-8.469-24.531-5.951-7.132-15.703-11.969-26.562-11.969h-211.12l-0.156-11.844c0-7.31 3.973-14.664 10.344-20.469 6.373-5.804 14.943-9.125 20.188-9.125h118.31c4.578 0 9.109-1.058 13.562-4.125 4.453-3.066 8.594-9.68 8.594-17.938 0-8.506-2.531-12.807-8.594-17.938-4.453-3.066-8.984-4.125-13.562-4.125h-118.31c-5.244 0-13.815-3.32-20.188-9.125-6.371-5.804-10.344-13.283-10.344-20.594l0.094-7.25h144.41c7.994 0 15.287-2.562 21.031-6.969 5.744-4.405 10.438-11.164 10.438-19.688v-10.719h70.219c18.211 5e-3 34.039-6.784 45.369-17.152z" fill="url(#f)"/>
</g>
</svg>
