<?xml version="1.0" encoding="UTF-8"?>
<svg width="2e3" height="1250" version="1.1" viewBox="0 -1.329 36.202 23.578" xmlns="http://www.w3.org/2000/svg">
 <g transform="matrix(.75591 0 0 .75591 .99765 1.9719)">
  <path d="m18.382 19.868a11.183 11.183 0 0 0 4.066-8.634c0-0.754 0.2-1.466 0.554-2.077 0.164-0.287 0.364-0.554 0.59-0.795a4.18 4.18 0 0 1 2.57-1.295l0.019-2e-3c0.154-0.015 0.344-0.082 0.385-0.097a0.61 0.61 0 0 0 0.144-0.087v-6.866c-2.528 0-4.789 0.79-6.635 2.133-0.2 0.144-0.395 0.297-0.585 0.451a11.183 11.183 0 0 0-4.066 8.634c0 0.754-0.2 1.466-0.554 2.077a4.246 4.246 0 0 1-0.59 0.795 4.166 4.166 0 0 1-3.049 1.323h-7e-3c-2.312 0-4.194-1.882-4.194-4.194s1.882-4.194 4.194-4.194c1.205 0 2.287 0.508 3.056 1.323a12.706 12.706 0 0 1 3.517-6.22 11.166 11.166 0 0 0-6.573-2.133c-6.189 0-11.224 5.035-11.224 11.224s5.035 11.224 11.224 11.224h0.013c2.727 0 5.225-0.978 7.162-2.603l-0.017 0.014zm9.491-2.405a1.961 1.961 0 0 0-0.21-0.241 2.425 2.425 0 0 0-0.851-0.538 1.817 1.817 0 0 1-0.446-0.236c-0.159-0.118-0.379-0.338-0.461-0.523-0.041-0.097-0.164-0.39-0.22-0.482-0.097-0.154-0.349-0.041-0.272 0.154 0.067 0.169 0.149 0.379 0.169 0.533 0.036 0.262-0.215 0.344-0.354 0.349-0.349 0.015-0.549 0.015-0.897 0.056a10.31 10.31 0 0 1-1.579 0.072c-0.636 1.39-1.707 2.815-2.677 3.717a11.161 11.161 0 0 0 6.322 2.128c0.313 0 0.313 5e-3 0.313 5e-3v-2.661a0.459 0.459 0 0 1-0.523-0.128 1.32 1.32 0 0 1-0.174-0.236c-0.056-0.097-0.103-0.205-0.154-0.313-0.103-0.226-0.113-0.236-0.359-0.226l-0.023 1e-3a0.38 0.38 0 0 1-0.284-0.128 3.894 3.894 0 0 1-0.456-0.641c-0.026-0.02 0.077-0.092 0.123-0.097 0.251-0.046 0.508-0.087 0.764-0.128 0.159-0.026 0.277 0.046 0.364 0.174 0.062 0.087 0.108 0.185 0.164 0.277 0.026 0.046 0.051 0.092 0.072 0.144 0.118 0.267 0.333 0.359 0.61 0.318 0.41-0.056 0.749-0.251 1.025-0.564 0.297-0.354 0.236-0.497 0.015-0.785zm-0.744 0.749a0.712 0.712 0 0 1-0.251 0.077c-0.159 0.02-0.231-0.02-0.297-0.164-0.077-0.169-0.149-0.338-0.159-0.544 0.231-0.056 0.456-0.097 0.682-0.108 0.108 0.113 0.164 0.21 0.19 0.328 0.046 0.174-5e-3 0.323-0.164 0.41zm1.426-8.984c0.39 0.272 0.749 0.569 1 0.984 0.056 0.097 0.128 0.128 0.195 0.097 0.092-0.041 0.082-0.128 0.092-0.195a1.14 1.14 0 0 0-0.159-0.538 2.844 2.844 0 0 0-0.943-0.995 1.584 1.584 0 0 0-0.267-0.123 0.38 0.38 0 0 0-0.124-0.021h-0.01c-0.108 0-0.19 0.046-0.241 0.138s-0.051 0.19 0.01 0.277a0.833 0.833 0 0 0 0.149 0.154c0.092 0.077 0.195 0.149 0.297 0.22zm4.394 6.656c-0.108 0.031-0.22 0.072-0.313 0.138-0.19 0.133-0.256 0.333-0.215 0.559 0.015 0.092 0.067 0.133 0.241 0.149 0.42-0.031 0.518-0.2 0.518-0.554 0-0.026-5e-3 -0.077-0.01-0.133-0.015-0.128-0.097-0.195-0.22-0.159z"/>
  <path d="m28.057 9e-3v6.655l0.128 0.026c0.108 0.026 0.205 0.067 0.236 0.077 0.062 0.026 0.118 0.056 0.251 0.133 0.749 0.487 1.559 0.851 2.338 1.282 0.467 0.261 0.938 0.508 1.379 0.815 0.431 0.303 0.846 0.626 1.179 1.036 0.256 0.313 0.482 0.641 0.626 1.02 0.215 0.574 0.426 1.149 0.631 1.728 0.169 0.477 0.323 0.964 0.533 1.425 0.179 0.4 0.385 0.784 0.641 1.138 0.369 0.518 0.79 0.902 1.354 1.19 0 0 0.169 0.077 0.138 0.113-0.267 0.103-0.385 0.108-0.605 0.036a1.31 1.31 0 0 1-0.513-0.328c-0.128-0.123-0.246-0.256-0.374-0.385-0.205-0.2-0.41-0.395-0.62-0.59a0.686 0.686 0 0 0-0.205-0.123 0.144 0.144 0 0 0-0.2 0.144v-1e-3a0.569 0.569 0 0 0 0.062 0.226c0.077 0.128 0.169 0.251 0.261 0.369 0.154 0.205 0.308 0.415 0.477 0.61 0.133 0.154 0.282 0.297 0.431 0.431 0.108 0.092 0.226 0.169 0.338 0.256 0.041 0.031 0.077 0.067 0.133 0.123-0.056 0.02-0.087 0.036-0.118 0.041-0.246 0.026-0.477-0.036-0.702-0.128a3.752 3.752 0 0 1-0.697-0.395c-0.138-0.097-0.277-0.2-0.42-0.287-0.185-0.113-0.303-0.103-0.461 0.036a2.552 2.552 0 0 0-0.256 0.272 0.666 0.666 0 0 1-0.564 0.251 3.56 3.56 0 0 0-0.4 5e-3 1.936 1.936 0 0 0-0.897 0.313c-0.097 0.062-0.195 0.128-0.297 0.185a2.958 2.958 0 0 1-0.41 0.195 0.543 0.543 0 0 1-0.708-0.41c-0.015-0.077-0.01-0.159-0.015-0.241 0-0.072 5e-3 -0.144 0-0.215-0.01-0.174-0.062-0.215-0.236-0.19-0.226 0.026-0.277-0.036-0.2-0.251 0.077-0.22 0.169-0.431 0.251-0.646 0.133-0.349 0.302-0.682 0.513-0.995 0.097-0.149 0.179-0.308 0.262-0.467 0.046-0.092 0.077-0.2 0.103-0.303 0.02-0.092-0.02-0.174-0.087-0.2-0.077-0.031-0.138-5e-3 -0.195 0.046-0.144 0.133-0.292 0.261-0.426 0.405a1.685 1.685 0 0 1-1.082 0.518c-0.123 0.015-0.246 0.041-0.369 0.056-0.062 5e-3 -0.123 0-0.19 0-0.02-0.108 0.026-0.185 0.051-0.267 0.133-0.415 0.22-0.841 0.267-1.277 0.041-0.349-5e-3 -0.692-0.082-1.036a0.646 0.646 0 0 0-0.082-0.195c-0.062-0.103-0.19-0.108-0.277-0.021a0.268 0.268 0 0 0-0.077 0.195l0.01 0.292c5e-3 0.395-0.02 0.784-0.103 1.169a5.269 5.269 0 0 1-0.138 0.461 1.251 1.251 0 0 1-0.338 0.502c-0.113 0.103-0.226 0.2-0.333 0.308-0.251 0.251-0.282 0.554-0.072 0.841 0.215 0.297 0.426 0.595 0.656 0.877 0.19 0.236 0.282 0.492 0.282 0.785 0 0.082 0.01 0.159 0.02 0.241 0.01 0.041 0.036 0.077 0.067 0.138 0.051-0.036 0.103-0.056 0.123-0.097 0.169-0.318 0.22-0.656 0.164-1.01a0.724 0.724 0 0 0-0.108-0.241c-0.154-0.226-0.318-0.451-0.477-0.677l-0.205-0.374c0.22-0.2 0.308-0.185 0.467 0.051 0.236 0.344 0.456 0.697 0.682 1.051 0.123 0.2 0.149 0.41 0.103 0.641-0.051 0.241-0.087 0.492-0.138 0.79-0.056 0.272-0.108 0.328-0.395 0.323-0.21 0-0.364 0.072-0.467 0.246a0.782 0.782 0 0 1-0.405 0.333l-0.2 0.087v3.302l0.538-5e-3c5.891-0.144 10.665-4.958 10.706-10.896 0-0.108-5e-3 -0.215 0-0.323v-3.979h3.328l2.61-7.245h-17.192z"/>
 </g>
</svg>
