<?xml version="1.0" encoding="UTF-8"?>
<svg width="2500" height="1250" version="1.1" viewBox="0 0 325.51 162.74" xmlns="http://www.w3.org/2000/svg">
<linearGradient id="a" x1="222.79" x2="243.73" y1="-.036" y2="-20.972" gradientTransform="matrix(2.628 0 0 -2.628 -450.26 -5.872)" gradientUnits="userSpaceOnUse">
<stop stop-color="#396" offset="0"/>
<stop stop-color="#004f32" offset="1"/>
</linearGradient>
<g transform="matrix(.99287 0 0 .99287 1.1617 45.176)">
<path d="m162.75 59.899c-0.595 0-1.032 0.445-1.037 0.455-0.026 0.021-10.559 10.072-10.559 10.072-3.884 3.749-9.041 2.18-9.592 1.997 0 0-45.023-12.282-45.029-12.286-8.592-2.592-10.299-5.388-11.614-8.784 0 0-0.764-2.111-2.634-2.664 0 0-55.037-16.157-55.042-16.157-2.246-0.693-3.482-1.327-4.365-3.037 0 0-3.021-5.319-3.031-5.334-0.67-1.275-1.884-1.41-1.954-1.42-4.163-0.562-5.383-2.883-5.899-3.871l-2.455-4.312c-0.768-1.336-1.866-1.449-1.9-1.453-2.367-0.15-3.493-0.747-4.472-2.354 0 0-2.4-3.992-2.41-4.012-1.18-2.18-0.772-3.74-0.228-4.666 1.148-1.899 3.246-2.043 4.088-2.073h131.6c3.726 0 6.737 1.129 8.963 3.362 1.599 1.593 2.7 3.672 3.27 6.176 0.01 0.059 0.165 0.582 1.291 0.582h26.012c1.127 0 1.281-0.522 1.291-0.582 0.57-2.504 1.671-4.583 3.27-6.176 2.226-2.233 5.236-3.362 8.964-3.362h131.6c0.842 0.029 2.939 0.174 4.086 2.072 0.545 0.926 0.952 2.486-0.228 4.666-0.01 0.02-2.41 4.012-2.41 4.012-0.979 1.607-2.104 2.204-4.472 2.354-0.033 4e-3 -1.133 0.117-1.9 1.453l-2.455 4.312c-0.516 0.988-1.736 3.309-5.898 3.871-0.07 0.01-1.284 0.145-1.955 1.42-0.01 0.015-3.03 5.334-3.03 5.334-0.883 1.71-2.119 2.345-4.364 3.037-4e-3 0-55.042 16.157-55.042 16.157-1.87 0.553-2.634 2.664-2.634 2.664-1.314 3.396-3.021 6.192-11.614 8.784-5e-3 4e-3 -45.029 12.286-45.029 12.286-0.551 0.183-5.708 1.752-9.592-1.997 0 0-10.532-10.052-10.56-10.072-4e-3 -0.01-0.441-0.455-1.036-0.455h-3e-3z"/>
<path d="m179.44 10.072c0.461-2.039 1.341-3.711 2.605-4.976 1.75-1.753 4.188-2.645 7.232-2.645h60.457c-2.078 1.555-3.169 3.522-3.242 3.653a98.011 98.011 0 0 1-2.615 4.567h-64.65c0.134-0.235 0.214-0.599 0.213-0.599zm143.15-4.506-2.36 3.925c-0.441 0.728-0.714 1.057-2.528 1.172l-71.598 0.01a102.96 102.96 0 0 0 2.064-3.658c0.02-0.037 2.556-4.557 7.059-4.557l65.59-6e-3c0.688 0.029 1.582 0.106 2.055 0.887 0.057 0.105 0.192 0.323 0.192 0.716 0 0.348-0.111 0.843-0.474 1.511zm-8.756 7.781-2.5 4.389c-0.341 0.649-0.867 1.652-2.537 2.229-1.396 0.349-4.174 0.127-5.136 0.01l-60.899-4.046c0.787-1.167 1.518-2.29 2.182-3.356h69.416c-0.182 0.231-0.36 0.482-0.526 0.774zm-10.353 9.669c0.016-0.019-2.395 4.226-2.896 5.107-0.123 0.165-0.809 0.91-3.039 0.614l-58.356-7.828c0.8-1.046 1.558-2.084 2.269-3.087l61.99 4.113c0.091 0.011 0.352 0.04 0.725 0.073a5.217 5.217 0 0 0-0.693 1.008zm-20.07 11.327c-2.197 0.582-6.494-0.077-7.986-0.387l-40.099-8.242c0.878-1.031 1.72-2.053 2.519-3.065l58.604 7.866zm-19.877 5.833c-2.82 0.755-6.5-0.466-6.535-0.476l-0.044-0.014s-5e-3 -5e-3 -0.01-5e-3l-26.839-8.279a104.96 104.96 0 0 0 3.785-4.04l41.15 8.458c0.09 0.014 0.933 0.188 2.116 0.354zm-20.966 6.158c-1.905 0.518-4.714-0.582-5.646-1.052 0 0-7.182-3.362-14.557-6.812a98.298 98.298 0 0 0 6.211-5.546l27.833 8.589c0.054 0.02 0.56 0.185 1.335 0.359zm-4.296 4.2c-0.811 2.078-1.658 4.219-7.367 6.364-2.357 0.732-5.16-1.352-5.184-1.375-0.01-0.01-6.366-4.559-13.604-9.738a94.186 94.186 0 0 0 8.592-5.992l15.379 7.199c0.085 0.043 1.671 0.844 3.592 1.202-0.918 1.046-1.334 2.127-1.408 2.34zm-21.512 10.397-2.143 0.581c-1.805 0.432-4.007-1.356-4.711-2.099 0 0-3.459-3.599-7.904-8.24a89.823 89.823 0 0 0 8.334-4.316l14.254 10.198c0.058 0.048 0.872 0.658 2.068 1.177-3.166 0.862-9.898 2.698-9.898 2.699zm-18.845 5.14c-1.505 0.237-3.251-2.233-3.757-3.154l-4.299-7.276a88.281 88.281 0 0 0 10.281-3.653l8.385 8.75c0.074 0.073 1.002 1.036 2.348 1.797zm-14.271 3.889c-1.013 0.233-1.868 0.131-2.603-0.313-1.577-0.965-2.102-3.184-2.131-3.314l-2.193-7.912a94.679 94.679 0 0 0 11.24-2.252l4.548 7.699c0.156 0.275 1.079 1.884 2.462 3.008zm-9.249-2.871s-6.098-5.819-8.166-7.787c2.902-0.101 5.766-0.314 8.578-0.644l2.242 8.09c0.064 0.281 0.512 2.055 1.757 3.465-1.718-0.489-2.239-0.998-4.411-3.124zm-10.69-9.638v-24.648h3.934l6.652 24c-3.462 0.397-6.99 0.615-10.586 0.648zm-12.496-0.648 6.656-24h3.935v24.645c-3.603-0.03-7.13-0.252-10.591-0.645zm-1.747 11.85a6.244 6.244 0 0 1-2.769 1.561c1.254-1.415 1.69-3.193 1.756-3.469l2.243-8.076c2.812 0.324 5.676 0.537 8.577 0.634-2.323 2.208-9.807 9.35-9.807 9.35zm-2.872-2.335c0 0.024-0.517 2.34-2.135 3.329-0.734 0.444-1.586 0.547-2.599 0.313l-11.324-3.085c1.383-1.13 2.316-2.738 2.476-3.033-5e-3 5e-3 1.918-3.246 4.527-7.669a93.52 93.52 0 0 0 11.247 2.247zm-19.006-0.247-12.957-3.537c1.344-0.765 2.276-1.729 2.347-1.801 0 0 3.704-3.868 8.384-8.746a89.084 89.084 0 0 0 10.278 3.658l-4.281 7.253c-0.521 0.939-2.267 3.41-3.771 3.173zm-16.705-4.559-12.039-3.28a10.684 10.684 0 0 0 2.088-1.192c-0.01 0.01 6.726-4.811 14.234-10.182a90.746 90.746 0 0 0 8.339 4.315l-7.909 8.24c-0.703 0.743-2.906 2.531-4.713 2.099zm-16.299-4.613c-5.686-2.146-6.538-4.281-7.346-6.354a7.766 7.766 0 0 0-1.415-2.35 14.879 14.879 0 0 0 3.621-1.217c-0.016 5e-3 7.69-3.594 15.354-7.185a92.109 92.109 0 0 0 8.586 5.992l-13.583 9.719c-0.044 0.044-2.86 2.137-5.217 1.395zm-11.644-10.565c-0.574-0.171-6.955-2.045-15.18-4.462a13.481 13.481 0 0 0 1.358-0.369c-0.024 0.01 22.554-6.956 27.812-8.579a99.17 99.17 0 0 0 6.211 5.542l-14.532 6.802c-0.961 0.484-3.764 1.584-5.669 1.066zm-20.955-6.154a16177 16177 0 0 1-13.642-4.006 32.922 32.922 0 0 0 2.124-0.359c-4e-3 6e-3 29.051-5.968 41.15-8.452a113.91 113.91 0 0 0 3.781 4.04l-26.869 8.289c-0.061 0.018-3.725 1.235-6.544 0.488zm-19.873-5.831a5242.5 5242.5 0 0 0-13.056-3.834l58.612-7.866c0.8 1.007 1.638 2.029 2.515 3.062l-40.104 8.246c-1.488 0.309-5.766 0.968-7.967 0.392zm-14.148-5.611c-2.217 0.296-2.913-0.436-3.041-0.61l-2.917-5.136a5.033 5.033 0 0 0-0.676-0.982c0.374-0.034 62.727-4.187 62.727-4.187a111.38 111.38 0 0 0 2.263 3.086zm-11.252-8.774c-1.672-0.576-2.202-1.579-2.544-2.229-1.022-1.738-2.367-4.336-3.028-5.164h69.427a107.4 107.4 0 0 0 2.183 3.356l-60.908 4.046c-0.956 0.118-3.735 0.34-5.13-9e-3zm-8.89-9.293c-1.672-0.125-2.028-0.323-2.554-1.187 6e-3 6e-3 -2.182-3.631-2.356-3.918-0.363-0.668-0.483-1.163-0.467-1.512 0.04-0.892 0.647-1.579 2.243-1.604l65.593 6e-3c4.44 0 7.058 4.558 7.058 4.558a100.03 100.03 0 0 0 2.069 3.657zm128.4-8.221c3.05 0 5.481 0.892 7.233 2.646 1.265 1.264 2.142 2.936 2.609 4.976 0 0 0.094 0.349 0.214 0.6h-64.649c-0.988-1.622-2.617-4.567-2.617-4.567-0.071-0.13-1.164-2.098-3.243-3.653zm93.617 12.626v-2.505h12.854a106.39 106.39 0 0 1-2.133 3.212zm0 4.582v-2.605l9.386 0.62c-0.693 0.963-1.435 1.946-2.208 2.95zm0 4.933v-3.014l5.805 0.78c-0.779 0.965-1.598 1.938-2.451 2.921-1.497-0.309-2.651-0.542-3.354-0.687zm0 1.943 1.895 0.386a83.755 83.755 0 0 1-1.895 2.031zm-19.582 6.269h15.688c-1.599 1.589-5.373 4.664-5.497 4.767-3.814-1.789-7.534-3.523-10.191-4.767zm-16.282 0h11.79l13.004 6.085a92.577 92.577 0 0 1-8.337 5.696c-6.276-4.495-12.888-9.228-16.457-11.781zm-9.592 0h6.325l17.927 12.838a86.937 86.937 0 0 1-8.034 4.069c-5.903-6.152-13.014-13.57-16.218-16.907zm-8.012 0h5.371l16.986 17.712a88 88 0 0 1-9.871 3.43zm-2.213 0 12.796 21.654a91.95 91.95 0 0 1-10.751 2.108l-6.588-23.763h4.543zm-22.814 0h4.543l-6.588 23.763a92.909 92.909 0 0 1-10.751-2.103c4.794-8.109 11.191-18.943 12.796-21.66zm-7.585 0h5.373l-12.487 21.142a86.185 86.185 0 0 1-9.873-3.436c6.811-7.097 15.008-15.643 16.987-17.706zm-8.965 0h6.325l-16.212 16.907a87.453 87.453 0 0 1-8.042-4.069c7.78-5.571 15.89-11.38 17.929-12.838zm-29.741 4.767c-0.143-0.116-3.901-3.274-5.497-4.767h15.686zm14.684-4.767h11.787l-16.456 11.777a91.313 91.313 0 0 1-8.334-5.692c6.177-2.893 11.898-5.567 13.003-6.085zm-24.09-6.269v2.397a84.339 84.339 0 0 1-1.875-2.012c0.753-0.157 1.383-0.284 1.875-0.385zm0-4.957v3.013l-3.338 0.688a115.54 115.54 0 0 1-2.445-2.921zm0-4.524v2.605l-7.158 0.965a111.83 111.83 0 0 1-2.202-2.95zm0-1.977-10.694 0.707a96.237 96.237 0 0 1-2.135-3.212h12.829z" fill="#fff"/>
<path d="m97.584 30.899-0.028-0.029v-18.289h130.38v18.298c-4e-3 0.01-0.01 0.01-0.014 0.015z" fill="url(#a)"/>
<path d="m106.22 15.502h-0.544l-5.572 12.465h1.509l0.024-0.072c0.451-1.517 1.032-2.97 1.596-4.364l0.117-0.296h4.309a65.642 65.642 0 0 1 1.817 4.664l0.025 0.068h2.083zm-2.448 6.782c0.114-0.275 1.576-3.701 1.75-4.107 0.172 0.406 1.663 3.832 1.78 4.107zm8.412 4.796 0.046 0.048c0.658 0.718 2.142 1.053 2.94 1.053 2.614 0 4.445-1.687 4.445-4.107 0-2.007-1.519-2.598-2.987-3.179-1.304-0.519-2.544-0.998-2.544-2.48 0-1.125 0.887-1.938 2.103-1.938 0.972 0 1.706 0.513 2.078 1.452l0.025 0.067h0.332l0.521-1.573-0.058-0.054c-0.71-0.64-1.803-0.867-2.581-0.867-2.437 0-4.009 1.361-4.009 3.474 0 2.151 1.604 2.775 3.016 3.338 1.277 0.494 2.475 0.969 2.475 2.447 0 1.371-1.022 2.451-2.324 2.451-1.193 0-1.984-0.514-2.755-1.773l-0.03-0.048h-0.332zm17.269-11.321h-9.166v1.284l0.118-0.01a32.81 32.81 0 0 1 3.726-0.214v11.187h1.761v-11.181c1.245 0 2.434 0.071 3.546 0.208l0.124 0.014v-1.288zm6.315-0.257c-3.888 0-6.608 2.621-6.608 6.366 0 3.778 2.645 6.312 6.574 6.312 4.062 0 6.796-2.646 6.796-6.579 1e-3 -4.215-3.398-6.099-6.762-6.099zm3.255 10.503c-0.865 0.915-1.95 1.381-3.241 1.381-2.846 0-4.687-2.082-4.687-5.304 0-3.57 1.86-5.785 4.847-5.785 1.409 0 2.739 0.62 3.561 1.656 0.903 1.153 1.087 2.355 1.087 3.794 5e-3 0.078 0.01 0.165 0.01 0.248 0 1.171-0.477 2.833-1.577 4.01zm15.716-10.246h-1.092v9.035h-0.02c-0.063-0.073-8.34-9.035-8.34-9.035h-0.842v12.208h1.201v-9.447h0.025c0.064 0.073 7.544 8.353 7.544 8.353l0.938 1.095h0.695v-12.209zm19.726 0h-0.432l-2.957 5.362s-1.871 3.411-2.041 3.717c-1.824-3.043-3.467-6.245-4.865-9.021l-0.029-0.058h-0.621l-0.01 0.102c-0.174 1.803-1.224 9.151-1.683 11.985l-0.024 0.121h1.48v-0.105c0-1.72 0.305-4.284 0.629-7.002l0.195-1.681c0.207 0.396 2.504 4.758 3.381 6.555l0.993 2.045h0.332l0.028-0.068c1.021-2.346 2.463-5.024 4.436-8.551 0.279 2.103 0.649 6.303 0.854 8.71l0.011 0.098h1.87l-0.016-0.121c-0.422-2.961-0.883-6.88-1.422-11.985l-0.011-0.102h-0.098zm8.372-0.257h-0.548l-5.574 12.465h1.518l0.02-0.072c0.453-1.531 1.037-2.989 1.604-4.395 0 0 0.07-0.174 0.104-0.266h4.312a66.046 66.046 0 0 1 1.814 4.664l0.024 0.068h2.085zm-2.451 6.782c0.114-0.275 1.577-3.701 1.752-4.107l1.78 4.107zm13.171-0.348c2.203-0.445 3.521-1.7 3.521-3.396 0-1.864-1.309-2.78-4.006-2.78h-3.826v12.208h1.757v-5.852h0.513a485.48 485.48 0 0 0 1.367 1.613c-6e-3 -6e-3 2.069 2.679 2.069 2.679l1.136 1.56h2.301c0-1e-3 -4.623-5.775-4.832-6.032zm-2.554-0.697v-4.612c0.724-0.034 1.847-0.082 2.456 0.016 1.219 0.197 1.838 0.909 1.838 2.105 0 1.227-0.805 2.122-2.162 2.395-0.763 0.153-1.685 0.125-2.132 0.096zm16.238-5.48h-9.17v1.284l0.12-0.01a32.836 32.836 0 0 1 3.722-0.214v11.187h1.77v-11.181c1.24 0 2.432 0.071 3.545 0.208l0.123 0.014v-1.288zm1.557 12.208h1.661v-12.208h-1.661zm13.453-12.208v9.035h-0.015c-0.065-0.073-8.34-9.035-8.34-9.035h-0.844v12.208h1.202v-9.447h0.021c0.064 0.073 7.554 8.353 7.554 8.353l0.938 1.095h0.685v-12.209z" fill="#fff"/>
</g>
</svg>
