<?xml version="1.0" encoding="UTF-8"?>
<svg width="2e3" height="1250" version="1.1" viewBox="-.041 .5 262.24 161.31" xmlns="http://www.w3.org/2000/svg">
 <g transform="matrix(1.5246 0 0 1.5246 38.183 -1.557)" fill-rule="evenodd">
  <path d="m67.959 0.5c-29.7 0-53.7 24.098-53.7 53.803 0 1.099 0 2.099 0.1 3.099h-7c-0.4 0-0.6 0.196-0.802 0.5-0.098 0.295-6.297 11.196-6.5 11.5-0.098 0.295-0.098 0.4 0.203 0.4h16.297c6.703 22.101 27.203 38.198 51.5 38.198 29.703 0 53.803-24.098 53.803-53.803-0.1-29.599-24.2-53.697-53.901-53.697zm-38.402 69.303h14.303l-6.901 12c-3-3.5-5.6-7.5-7.402-12zm38.403 25.894c-11.298 0-21.5-4.5-28.902-11.795h11.604s33.395-58.902 33.598-59.205c0.199-0.197 0.1-0.394-0.203-0.394h-13.597c-0.298 0-0.298 0.099-0.402 0.197-0.098 0.197-18.896 32.902-18.896 32.902h-24.5c-0.104-1-0.104-2.1-0.104-3.1 0-22.9 18.5-41.5 41.402-41.5 11.702 0 22.202 4.895 29.8 12.698-3.3 5.5-17.9 30.402-19.9 34-1.1-2.598-6.4-2.098-9.198-2.197-1.202 2-6.702 12.5-6.702 12.5h5.8c2.7 0 3 2.795 1.902 4.599-1.104 1.795-5.401 9.5-5.401 9.5h14.1s17.301-30.205 27.099-47.304c2.598 5.402 4 11.402 4 17.705 0 22.795-18.6 41.394-41.5 41.394z" fill="#ed1a3b"/>
 </g>
</svg>
