<?xml version="1.0" encoding="UTF-8"?>
<!-- Generator: Adobe Illustrator 25.0.1, SVG Export Plug-In . SVG Version: 6.00 Build 0)  -->
<svg width="640" height="400" version="1.0" viewBox="0 0 640 400" xml:space="preserve" xmlns="http://www.w3.org/2000/svg">
<style type="text/css">
	.st0{fill:#D3D2D2;}
	.st1{fill:#F1BD18;}
	.st2{fill:#1C5637;}
</style>
<g transform="matrix(1.5905 0 0 1.5905 2.2266 -38.807)">
	<path class="st0" d="m199.8 24.4c69.3 0 125.8 56.5 125.8 125.8 0 69.2-56.5 125.7-125.8 125.7s-125.8-56.5-125.8-125.7c0-69.3 56.5-125.8 125.8-125.8zm0 6.4c65.8 0 119.4 53.6 119.4 119.4 0 65.6-53.6 119.2-119.4 119.2-65.6 0-119.2-53.6-119.2-119.2 0-65.7 53.6-119.4 119.2-119.4"/>
	<path class="st1" d="m199.8 30c66.3 0 120.3 54 120.3 120.3 0 66.1-54 120.3-120.3 120.3-66.1 0-120.3-54.1-120.3-120.3 0.1-66.4 54.2-120.3 120.3-120.3"/>
	<path class="st0" d="m164.5 70.2s13.9-16.7 34-17.3c20.1-0.5 32.1 12 32.1 12l70 76.6s12 14.4 6.8 29.8-33.2 49.9-106 51.2c-72.9 1.5-103.5-37.9-103.5-37.9s-14.4-23.3 0.5-40.8c14.8-17.1 66.1-73.6 66.1-73.6zm3.4 6.3s12.2-16.4 30.8-16.7c18.6-0.5 29.1 11.5 29.1 11.5l63.9 71.5s13 12.3 8.1 26.4c-4.7 14.2-31.5 44.5-98.4 45.8-67.1 1.4-95.4-34-95.4-34s-13.7-18.3 0-34.2c13.7-15.8 61.9-70.3 61.9-70.3"/>
	<path class="st2" d="m167.5 76s12.3-16.6 31.1-16.9c18.8-0.5 29.4 11.5 29.4 11.5l64.4 72.2s13.2 12.5 8.3 26.7-31.8 44.8-99.5 46.2c-67.8 1.4-96.2-34.2-96.2-34.2s-13.9-18.4 0-34.5c13.8-16 62.5-71 62.5-71"/>
	<g fill="#d3d2d2">
		<path class="st0" d="m166 132c0.1-0.2 0.2-0.2 0 0z"/>
		<path class="st0" d="m234.2 136.4c-2-1.2-3 0.8-3 0.8l-2.7 2.4s-10.3 7.3-24.4 7.8c-14 0.7-18.1-4.4-24-9.8s-7.4-17.6-7.4-17.6l3.2-4.9 5.1 0.2s-0.8 7.8 3 12.5c3.9 4.9 9.5 5.6 9.5 5.6v1.4c0 1.2-1 1.7-3.6 2.5-2.4 1-0.2 2.7-0.2 2.7l25.7-0.2s11.8-2.9 11.8-14c0-11-10-13-10-13s6.4-0.5 6.4-10-9.3-9.1-9.3-9.1l-34.3 0.3v2.2s0.2 0.3 0.7 1.7c0.5 1.5-0.5 2.2-0.5 2.2l-7.9 11.3s-0.7-12.3 8.1-21.6c9-9.5 21-7.6 21-7.6h5.4s11.2 2.4 18.1 6.3c6.8 3.9 5.2-0.8 5.2-0.8s-3.4-5.2-4.9-8.5c-1.7-3.2-2.5-1.5-4.7 0.2s-5.2 0-5.2 0-16.6-5.6-33.3 1.4c-16.6 7.1-19.6 28.6-20 32.6-0.3 4.1 1.4 13.7 1.4 13.7s-2.9 4.4-4.7 7.3c-1.9 3-7.6 3.2-7.6 3.2s-1.7-0.2-1.7 1.7c0 2 1 1.5 1 1.5l15.9-0.2s1.2-1.9-1.2-3.2c-1.9-0.9 0.4-4.4 1-5.2v-0.1c0.2-0.2 0.1-0.2 0 0.1-0.7 1.6 14.4 23.8 35.9 22.4 21.8-1.4 30.3-12.9 30.3-12.9s3.9-4.3 1.9-5.3zm-40.8-9.5s-3.2-0.7-4.6-3.6c-1.4-2.7-1.2-8.1-1.2-8.1h5.8zm-5.6-16.6s0-1.2 1.7-3.4c1.5-2.2 3.7-2.5 3.7-2.5v5.9zm31.5 15.1c0 8.5-7.1 10.5-7.1 10.5s-1 0.3-4.6 0.5c-3.7 0.2-6.1-1.2-6.1-1.2l0.2-1.9s3.9-0.3 7.4-2c3.6-1.9 4.7-3.9 4.7-3.9s1.9-2.4 0.7-3.4c-1.2-0.8-1.7-0.3-1.7-0.3s0.8-0.5-2.9 2.7-8.6 2.2-8.6 2.2l-0.3-13.2h10s8.3 1.7 8.3 10zm-18.6-22.2s4.6-1.5 8.3 1.9 3.4-0.5 3.4-0.5-0.2-1.2-2-3.4c-1.9-2.2-3.6-0.3-3.6-0.3l-6.1-0.2v-2.9h10.8s4.2 0.5 4.2 5.9c0 5.6-4.2 6.6-4.2 6.6h-10.8zm-15.6-2.8c0.8-1.9 2.2-1.9 2.2-1.9s2-0.2 4.6-0.3c2.4-0.2 1.5 2.9 1.5 2.9s-3.7 1-7.1 3.4c-3.2 2.4-4.6 6.3-4.6 6.3l-2.4-0.2c0.1-0.1 4.8-8.4 5.8-10.2z"/>
		<path class="st0" d="m141.8 177-6.8 8.8-29.9-21.5 1.2-1.5c0.5 0.3 1.2 0.7 1.9 1.2 0.8 0.3 1.4 0.7 1.7 0.7 0.7 0.2 1.2 0.2 1.7 0 0.3-0.2 0.8-0.5 1.2-1l13.4-20.5c0.3-0.5 0.5-0.8 0.7-1.4 0-0.5-0.2-1-0.7-1.7-0.3-0.5-0.8-1.2-1.4-1.7-0.7-0.7-1.2-1-1.5-1.4l1-1.7 17.9 12.9-1.2 1.5c-0.5-0.2-1-0.5-1.9-1-0.7-0.3-1.2-0.7-1.9-0.8-0.7-0.3-1.4-0.3-1.7-0.2-0.5 0.3-0.8 0.7-1.2 1.2l-12.5 18.9c-0.7 0.8-1 1.7-1.2 2.2-0.2 0.7-0.2 1.4 0 1.9s0.7 1 1.4 1.7c0.7 0.5 1.5 1.2 2.9 2.2 1.2 0.8 2.4 1.7 3.7 2.4 1.2 0.7 2.2 1 3 0.8 1.2 0 2.5-0.5 4.2-1.2s3-1.4 4.2-2z"/>
		<path class="st0" d="m178.9 169.2c1 1.9 1.7 3.9 1.9 6.3 0.3 2.2-0.2 4.6-1 7.1-0.8 2.4-2 4.4-3.6 6.3-1.5 1.7-3.2 3.2-5.2 4.2-2.2 1.2-4.4 1.9-6.9 2.2-2.4 0.2-5.1 0-7.9-0.8-2.4-0.7-4.6-1.7-6.3-3-1.9-1.2-3.4-2.9-4.4-4.7-1.2-1.9-1.9-3.9-2-6.1-0.2-2.2 0.2-4.6 1-7.1 1-2.5 2.2-4.7 3.9-6.4 1.7-1.9 3.6-3.4 5.6-4.4 2.2-1 4.4-1.5 6.9-1.9 2.4-0.2 4.7 0.2 7.3 0.8 2.4 0.7 4.6 1.7 6.4 3 1.7 1.3 3.1 2.8 4.3 4.5zm-14.1 20.8c1.2-1.2 2.2-2.5 3.2-4.2 0.8-1.5 1.7-3.4 2.5-5.6 0.5-1.7 1-3.6 1.5-5.2 0.3-1.9 0.3-3.6 0.2-5.1s-0.7-2.7-1.4-3.9c-0.8-1-2-1.9-3.7-2.4-2.7-0.7-5.2 0-7.6 2.2-2.4 2-4.4 5.4-5.9 10-0.7 1.9-1.2 3.9-1.5 5.6-0.3 1.9-0.3 3.6-0.2 4.9 0.2 1.5 0.7 2.9 1.5 3.9 0.7 1 1.9 1.7 3.4 2 1.5 0.5 3 0.5 4.4 0 1.4-0.3 2.6-1.2 3.6-2.2"/>
		<path class="st0" d="m213 173.9h-1.7c-0.3-1.5-1.2-3-2.2-4.6-1-1.7-1.9-2.5-2.7-2.5-0.5-0.2-1-0.2-1.7-0.2h-2.9l0.5 26.2c0 0.5 0 1 0.2 1.4 0.3 0.5 0.7 0.8 1.2 1 0.3 0.2 0.8 0.3 1.5 0.5 0.7 0 1.4 0.2 1.9 0.2v1.9l-17.1 0.3v-1.9c0.3 0 1-0.2 1.7-0.2 0.8-0.2 1.4-0.2 1.5-0.3 0.5-0.3 1-0.7 1.2-1 0.2-0.5 0.2-1 0.2-1.5l-0.3-26.4h-2.9c-0.7 0.2-1.2 0.2-1.7 0.2-0.8 0.2-1.7 1.2-2.7 2.7-0.8 1.7-1.5 3.2-2 4.7h-1.7l-0.2-9.6 29.8-0.5z"/>
		<path class="st0" d="m253.1 155c-0.5 0.2-1.2 0.5-1.9 1-0.8 0.3-1.5 0.8-2 1.4-0.5 0.5-0.7 1.4-0.7 2.4s0.2 2.5 0.7 4.4l3.2 11.7c0.8 3.6 0.3 6.6-1.5 9.3-2 2.9-4.9 4.9-9 6.1-4.7 1.4-8.8 1.4-11.8 0-3.2-1.2-5.2-3.7-6.1-7.3l-4.2-16.1c-0.2-0.7-0.5-1-0.7-1.4-0.3-0.3-0.8-0.5-1.5-0.7h-1.7c-0.5 0-1 0.2-1.5 0.2l-0.3-1.7 17.4-4.9 0.3 1.7c-0.3 0.2-0.8 0.3-1.4 0.5-0.5 0.3-1 0.5-1.5 0.8s-0.8 0.8-1 1.2c0 0.5 0 1 0.2 1.5l4.1 15.9c0.8 3 2.2 5.2 4.1 6.1 1.9 1 4.1 1.2 6.9 0.3 2.7-0.7 4.6-2 5.8-4.1 1.2-2 1.4-4.6 0.5-7.6l-2.9-10.7c-0.5-1.9-1-3.2-1.5-4.1s-1-1.5-1.7-1.7c-0.5-0.3-1.4-0.3-2.4-0.3-1.2 0-1.9 0-2.4 0.2l-0.3-1.7 14.4-4.2z"/>
		<path class="st0" d="m280 173.9c-2 1.2-4.1 2-6.1 2.5-2 0.7-3.7 1-5.2 1.2l-0.8 2.2-2 1.2-5.8-10 2-1.2c1 0.8 2.2 1.5 3.4 2 1.4 0.7 2.5 1.2 4.1 1.5 1.4 0.3 2.9 0.5 4.2 0.3 1.5-0.2 3-0.7 4.6-1.5 2.2-1.4 3.6-2.7 4.2-4.2 0.7-1.5 0.7-2.9 0-4.2-0.5-1-1.5-1.7-2.9-1.9s-3.2 0-5.6 0.5c-1.5 0.5-2.9 0.8-4.1 1.2-1.4 0.3-2.5 0.7-3.7 0.8-2.5 0.5-4.7 0.5-6.6-0.3-1.9-0.7-3.2-2-4.2-3.7-0.5-1.2-0.8-2.4-0.8-3.7 0.2-1.2 0.5-2.5 1.2-4.1 0.5-1.4 1.5-2.7 2.9-4.1 1.4-1.5 3-2.7 4.9-3.7 1.9-1.2 3.7-1.9 5.6-2.4s3.4-0.8 4.6-0.8l0.7-2 2.2-1.2 5.2 9.3-2 1.2c-1-0.7-2.2-1.4-3.4-2.2-1.2-0.7-2.4-1.2-3.4-1.5-1.2-0.3-2.4-0.3-3.7-0.2-1.2 0-2.5 0.5-3.9 1.4-1.7 0.8-2.9 2-3.6 3.6-0.5 1.4-0.5 2.7 0 3.9 0.7 1 1.5 1.7 2.9 1.9s3 0 5.4-0.5c1.4-0.3 2.7-0.7 4.1-1.2 1.4-0.3 2.5-0.7 3.7-0.8 2.7-0.5 4.9-0.5 6.8 0 1.9 0.7 3.4 2 4.4 3.9 0.7 1.2 0.8 2.5 0.8 4.1-0.2 1.5-0.5 3-1.2 4.4-0.8 1.5-2 3-3.4 4.4s-3.3 2.6-5.5 3.9"/>
	</g>
</g>
</svg>
