<?xml version="1.0" encoding="UTF-8"?>
<svg width="1440" height="720" version="1.1" viewBox="0 -.1 219 109.51" xmlns="http://www.w3.org/2000/svg">
<g transform="matrix(1.0506 0 0 1.0506 -5.6431 4.1395)">
<path d="m71.337 48.085c0-21.4 17.3-38.7 38.7-38.7 21.4 0 38.7 17.3 38.7 38.7 0 21.4-17.3 38.7-38.7 38.7-21.4 0-38.7-17.4-38.7-38.7" fill="#ffd300"/>
<path d="m78.937 25.085c0.6 0.3 1.2 0.6 1.9 1 2.9 2 4.8 3.7 9.2 7.4 1.3 1.3 2.8 3.4 3.9 4.7 2.4 3 4.1 5.1 4.4 7.6 0.7 5 1.4 7.8 3.3 12.9 0.2 0.5 1 1.2 1.5 1.8 1.2 1.5 1.7 3.9 3.9 5.2 1.2 0.7 1.4 0.8 1.8 1.1 0.6 0.5-0.4 2.3-3.5 1.9 1.6 0.8 1.4 2.6-0.9 2.7-4.5 0.2-7.3-2.4-7.9-3.1-0.3-0.3-1.2 0.9-2.8 1.5-1.6 0.8-3.8 0-5.5 0.3-1.6 0.3-3.7 1.3-5.4 1.4-3 0.1-3.4-2-3.4-3.8v-0.8c-0.3 1.1-1.4 3-1.4 3-0.4 0.9-1 2-2.1 2.4l-3.2 0.4c-2.5 1.1-5 1.9-7.6 2.8-1.5 0.3-3.2 0-4.3-0.9-0.9-0.7-1.4-1.6-1.9-2.5-0.5-0.2-1.2 0-1.8-0.2-0.5-0.1-0.8-0.5-1.1-0.8l-2.2-3.7c-0.2-0.5-0.2-1.2 0-1.7 0.4-0.8 1.3-1.2 2.2-1.2 1.6-0.1 3.4-0.6 5 0 0.7-0.8 1.8-0.7 2.8-0.9-0.4-0.6-1-0.9-1.5-1.4-2.9 0.7-6.1 0.2-8.9-0.3-2.6-0.6-4.8 0.9-7.4 0.5l-0.8 1.7c-1.2 1.3-1.3 3.5-3.1 4.4-1.3 0.3-2.3 1.2-3.4 1.8-2 1.1-4.7 0.6-6.9 0.2-0.9-0.1-1.5 0-2.3 0.3-0.7 0.5-1.5 1.3-2.3 1.9-1.3 0.5-2.4 1.6-3.8 1.7-0.8 0-1.6-0.5-2.4-0.3-1 1.1-1.5 2.9-3.1 3.4s-3.6 0.1-5.2-0.3c-0.5 0.2-0.8 0.6-1.4 0.5-1.1-0.3-2.2-0.6-3.2-1.2-0.4-0.4-0.5-0.9-0.6-1.3 0-0.7 0.6-1.3 0.9-1.9 0.1-0.7 0.1-1.7 0.4-2.4 0.5-1.1 1.6-1.8 2.7-2.3 0.1-0.8 0.6-1.5 1.3-1.9 1.3-0.7 2.7-2.3 4.4-1.4l1.8 1.5c1.6-0.7 1.2-2.3 2-3.6 0.4-0.9 0.9-1.9 1.9-1.9 0.7-0.1 1.5 0.1 2.2 0 1-0.3 2.1-0.7 2.8-1.5l-0.1-0.6c-1-1.9-1.3-4.2-1.4-6.5-1.8 0.2-3.7 0.5-5.6 0.1-2.8-0.4-5.5-2.6-6.6-5.4-1.2-2.7-0.7-6.5 1.2-8.8 1.5-1.8 3.2-3.4 5-4.8-0.6-0.2-1.3-0.1-1.9-0.3-2.6-0.4-5.2-2.7-5.8-5.3-0.4-1.7 0-3.3 0.8-4.7 0.3-0.3 0.6-0.6 1.1-0.4 1.3 0.5 1.7 1.2 2.9 1.8l0.7 0.4c3.3 1.1 7.7 1.1 9 5.2 0.8 3.2-1.2 5.6-3.5 7.4-1.8 1.3-3.6 2.9-4.5 4.8-0.4 1.4-0.2 2.8 1 3.8 1.2 1.2 3.3 1.2 4.8 0.6 2.8-1.2 5.4-3 7.9-4.9 2.4-1.8 5.3-2.5 8.4-2.6 1.4-0.3 2.6-0.9 3.7-1.8 1.9-1.8 3.9-3.3 6.3-3.9 1.1-0.2 2.2-0.3 3.3-0.4 0.9-0.4 1.5-1.5 2.2-2 3.3-2.9 7.7-2.8 11.2-5.1 2-1.5 4.2-2.5 6.8-2.4 1.2 0.1 2.3 0.3 3.3 0.7zm3.3 34c-2.2 0.1-3.6 0.6-5.1 0.8 0.1 1.4 0.9 2.6 2 4.1 0.6-2.3 2.5-3.2 3.1-4.9m56.3 0.5c1 1.5 1.6 3 2.5 4.6 0.9-1.7 1.7-3.3 2.5-4.3-0.1-0.1-2.7 0.2-5-0.3m2.1 7.4c-0.1 0.3-0.3 0.4-0.7 0.4 0.3 1.4-0.7 4-3.2 4.1-1.7 0.1-4.5-1.6-6.1-1.7-1.7-0.1-4.8 1.2-6.6-1.5-2.4 2.9-5.2 3.7-7.6 3.6-1.4 0-2.9-0.8-0.8-2.6-4.6 1.5-4.6-1.6-3.8-2.2 0.5-0.4 1.1-0.7 2.8-2.4 6.4-6.7 4-18.3 11-26 2.7-3 4.9-4.7 10.4-8.6 1.9-1.3 3.8-3.2 5.6-4.5l0.1 0.2v-0.1c1.1-0.8 2.1-1.6 3.3-1.9 2.5-0.3 4.8 0.5 6.7 1.8 1 0.7 1.8 1.5 2.6 2.5 0.6 0.6 1.5 0.6 2.3 0.9 2.3 0.4 4.3 1.3 6.2 2.5 1.3 0.8 2.4 2.2 4 2.4 1.9 0.3 3.6 0.9 5.3 1.9 2 1.3 3.8 2.9 6.2 3.3 4.8 0.5 8.8 3.2 12.6 5.9 2.2 1.3 4.8 2.8 7.5 1.9 0.8-0.3 1.4-1 1.6-1.7 0.2-1.8-0.9-3.2-2-4.5-2.3-2.7-6.3-5-5.8-8.9 0.7-2.9 3.9-4.6 6.4-5.4 1.4-0.5 3.1-0.3 4.3-1.5 0.6-0.4 0.9-1.8 1.9-1.3 0.8 0.5 0.9 1.5 1 2.4 0.4 2.8-0.2 5.6-2.8 7.2-1.2 0.8-2.5 1.1-3.9 1.4 2.1 1.7 4.2 3.8 5.4 6.2 0.7 1.4 1.1 2.6 1.2 4.2-0.1 3-1.9 5.6-4.5 7.1-1.5 0.8-3.2 1.1-5 1.1-0.7 0-1.3-0.2-1.9-0.2 0.3 1.4 0.3 3.3 0 4.9-0.1 0.8-0.6 1.7-0.6 2.7 0.4 0.5 1 0.5 1.5 0.5 1.3 0 2.9-0.1 3.6 1.3 0.6 1.3 0.9 2.8 1.4 4.1 0.2 0.2 0.3 0.7 0.6 0.6 0.9-0.8 1.8-1.9 3.1-1.6 1.2 0.8 2.4 1.7 3.6 2.6 0.3 0.3 0.4 0.7 0.5 1.2 1 0.4 2.3 1.1 2.6 2.3 0.2 0.8 0.1 1.6 0.3 2.3 0.3 0.8 1.1 1.8 0.5 2.8l-0.4 0.3-3.8 1.2c-0.3 0-0.6-0.2-0.9-0.5-2-0.1-4.4 0.5-6-0.9-0.7-0.6-1.2-1.3-1.7-2.1-1.2 0.6-2.9 1-4.1 0.2-2.5-1.9-5-3.8-8.4-3.7-1.5 0.3-3.3 0.7-4.8 0.1-1.4-1-3-1.5-4.1-3-1.6-1.7-1.6-3.7-2.2-5.8-2.2 0.5-4.6 0.2-6.8 0.1-1.8-0.1-3.5 0.2-5.2 0.6-2.1 0.4-4.4 0.6-6.6 0.5l-1.1 0.8c0.5 0.1 1 0.1 1.4 0.5l0.4 0.4c1.8 0.2 3.9-0.1 5.6 0.3 0.4 0.1 0.8 0.5 1 0.9 0.2 0.5 0.2 1.1-0.1 1.5-0.9 1.2-1.4 2.6-2.6 3.6-0.3 0.4-1.2-0.1-1.3 0.6-0.4 1.8-2.1 3.3-3.8 3.7-0.7 0.1-1.5 0-2.1-0.2-2.1-0.7-4.2-1.3-6.3-1.9-0.7-0.2-1.3-0.9-1.9-1.3-0.9 0-2.2 0.3-2.8-0.5-0.3-0.2-0.6-0.9-0.7-1.2-0.7-0.9-1.2-2.5-1.5-3.9" clip-rule="evenodd" fill="#ffd300" fill-rule="evenodd"/>
<g transform="translate(-70.463 -91.115)" fill="#e21b4d">
<path d="m148.4 128.8c0.6 1.5 0.6 3.5 0.2 5.1-0.1 0.1-0.2 0.1-0.3 0-0.3-1.4-0.6-2.8-1.1-4.2-0.3-0.8-1.3-1.5-0.9-2.4 0.2-0.2 0.6-0.2 0.9-0.1 0.5 0.5 0.8 1 1.2 1.6m16 14c1.1 1.3 1.9 2.7 1.5 4.4-0.2 0.3-0.1 0.9-0.6 1-0.2 0.1-0.4-0.1-0.4-0.3-0.1-0.9-0.1-1.9-0.6-2.6-0.6-0.6-1.3-1.8-2.3-1.8-0.7 0.2-1.2 1-1.6 1.5 0 0.1-0.1 0.1-0.2 0-0.4-1 0.4-1.8 0.7-2.6 0.6-0.6 0.5-2.3 1.8-1.8 0.9 0.6 1.1 1.6 1.7 2.2m-2.1 11.9c0.1 0.6 0.1 1.5-0.5 1.9-0.6 0.2-1.4 0.3-2.1 0.2-0.2-0.1-0.4-0.2-0.3-0.4 0.3-0.9 1.2-1.9 2.2-2.1 0.2 0 0.6 0 0.7 0.4m-73-36.5c2.4 0.6 5 0.6 6.8 2.5 1 1.2 1.1 3.3 0.3 4.5-1.4 2.4-4.2 3.6-5.9 5.7-1.7 1.4-2.3 3.6-1.8 5.8 0.6 1.9 2.5 3.2 4.4 3.3 3 0.1 5.2-1.4 7.6-2.8 2.4-1.7 4.6-3.9 7.3-4.6 1.8-0.6 3.8-0.3 5.6-1 1.9-0.4 3.4-2 4.9-3.4 1.7-1.4 3.7-2.2 5.9-2.1 2 0.3 3.1-1.5 4.5-2.7 2.3-2.1 5.3-2.3 8-3.5 1.9-0.6 3.4-2 5.2-2.9 1.7-0.7 4-0.9 5.7-0.2 1.1 0.5 2.3 1 3.3 1.8l8.1 6.8c0.1 0.3 0.4 0.5 0.6 0.6 2.3 2.8 4.7 5.5 6.6 8.6 0.6 1.1 0.9 2.2 1.2 3.4 0.4 4.6 1.6 8.6 3.1 12.6 0.4 0.6 1.2 1.1 1.6 1.7 1.3 1.8 2.1 4.1 4.2 5.3l1.2 0.6c0.1 0.1 0.1 0.3 0 0.4l-0.2 0.2c-2.5 0.4-4.4-1.1-5.7-2.9-0.8-1.6-1.9-3.3-3.7-4-0.1 0-0.2 0.1-0.2 0.1 0.2 0.6 0.8 1 1 1.5 0.7 1.1 1.3 2.3 1.6 3.5 0.4 1.3 1.8 2.2 2.9 2.9l1.6 0.8c0.2 0.1 0.3 0.4 0.1 0.6l-0.2 0.1c-2.7 0.1-5.1-0.8-7-2.8-0.4-0.5-1-0.9-1.7-0.9-1.2 1.1-2.4 2.1-4 2.2-1.7-0.3-3.5-0.3-5 0.3-1.4 0.5-2.8 1.1-4.3 1.1-0.7 0-1.5-0.3-1.8-1 0-0.9-0.6-1.9-0.1-2.8l1-1.5c0-0.2-0.1-0.4-0.3-0.4-0.4-0.1-1.1 0.6-1.3-0.1 0.1-1.5 1.6-2.5 2.6-3.5 0.2-1.2 0.7-2.3 1.6-3.3 0-0.1-0.1-0.3-0.3-0.3-1.3 0.2-2.6 0.5-4 0.5-1.1 0.6-2.5 1-3.8 0.6-0.3-0.2-0.2-0.5-0.1-0.7 1.4-1.9 1.9-4.3 1.5-6.6-0.1-0.1-0.1-0.3-0.3-0.3s-0.2 0.2-0.3 0.3c-0.3 2.2-1 3.9-2.2 5.8-0.9 0.9-2.3 0.9-3.5 1.2-0.3 0.1-0.6 0.4-0.6 0.7 0 0.8 0.5 1.3 0.8 2l2.6 4.8c0.1 1.3-0.5 2.6-0.8 3.8 0.1 0.2 0.3 0.1 0.5 0 0.9-0.8 1.5-1.9 1.9-3.1 0.1-0.5-0.1-1.1-0.3-1.5l-2.7-5.4c0.2-0.3 0.6-0.3 0.9-0.4 0.6 0 1.2 0.3 1.8 0.5 0.6 1.6 1.3 3.3 2.4 4.7 0.2 0.9 0.5 2.1-0.1 2.8-0.6 1.2-1.2 2.2-2 3.3-0.7 0.7-1.7 0.6-2.7 0.7h-0.3c-2.4 1.3-4.9 2.1-7.5 2.9-1.1 0.5-2.4 0.1-3.3-0.6s-1.3-1.7-1.9-2.6c-0.7-0.9-1.8-0.1-2.6-0.6-0.7-1.1-1.4-2.2-2-3.4 0-0.3 0-0.6 0.3-0.8 0.9-0.3 1.9-0.3 2.9-0.4 0.9-0.1 1.9 0.1 2.5 0.7 1.2 1.4 1.7 3.3 3.5 4.2 1.4 0.1 2.6-0.3 3.8-0.9 0.7-0.4 1.5-1 1.5-1.9-0.1-1.8-1.3-3.2-2.8-4.2-1.5-0.8-3.1-1.9-4.2-3.3-0.6-0.8-0.7-1.7-1-2.5-0.1-0.2-0.5-0.2-0.6-0.1-0.6 0.5-0.1 1.4-0.1 2 0.1 0.4 0.3 0.9 0.1 1.2-0.9 0.7-2.1 0.3-3.2 0.4-2.2-0.1-4.3-1-6.6-0.8-2.2 0.1-5.2 1.6-6.8-0.6-0.8-2.1-0.6-4.6-0.2-6.7 0-0.2-0.2-0.4-0.4-0.4-0.2-0.1-0.4 0-0.5 0.2-0.6 2.1-0.7 4.4-1.2 6.6-0.8 1.9-2.2 3.9-4.1 4.9-1.7 0.9-3.7 1.2-5.8 1.4-3.8 0.1-7.3 0.8-9.7 4.1-0.2 0.3-0.5 0.6-0.4 1 0.1 0.1 0.4 0.2 0.5 0.1 2.6-2.9 5.9-4.1 9.7-3.9 3.6 0 7.2-0.6 9.5-3.7 0.6-0.7 1-1.4 1.5-2.2 0.4 0 0.7 0.5 1 0.7 0.1 1.1-0.8 1.8-1.2 2.7-0.5 1-1 2.2-2 2.8-1.2 0.3-2.2 1.1-3.3 1.7-1.1 0.5-2.5 0.7-3.8 0.4-1.6-0.3-3.8-0.7-5.4 0-0.8 0.5-1.5 1.4-2.3 1.9-1.1 0.5-2.1 1.4-3.4 1.3-0.9-0.2-2-0.8-2.8 0-1 0.9-1.2 2.5-2.5 3.1-1.5 0.8-3.1 0-4.6-0.1 0.2-1.5 0.4-2.9 1.4-4 0.6-0.1 1.1-0.2 1.6-0.6 0.6-0.5 1-1.2 1.4-1.9 1.3-0.8 2.8-1.4 3.6-2.8 0.6-1.3 0.6-2.5 1.6-3.7l0.5-0.2 2.7-0.2c1.1-0.5 2.1-1 3.1-1.8 0.3-0.3 0.4-0.8 0.3-1.3-0.5-1.3-0.9-2.2-1.2-3.6s-0.1-2.8-0.3-4.4c-0.1-0.1-0.2-0.4-0.4-0.4-1.8 0.4-3.5 0.9-5.5 0.6-2.7-0.3-5.5-2.1-6.5-4.8-0.9-2.3-0.7-5.6 1-7.5 1.6-2 3.6-3.5 5.6-5.2 0.3-0.2 0.3-0.6 0.4-0.9 0-0.4-0.4-0.7-0.7-0.9-1.2-0.3-2.6 0.1-3.8-0.4-2.1-0.7-3.7-2.7-4-4.9-0.1-1 0.1-1.8 0.6-2.6 1.6 1.4 2.8 2.6 4.3 3m-6 44.7v0.3c-0.5 1.2-0.8 2.6-1.2 4-0.9-0.1-1.7-0.4-2.4-0.7-0.2-0.2 0-0.4 0-0.6 0.9-0.8 0.6-1.8 0.8-2.9 0.1-0.6 0.7-1.1 1.3-1.4 0.7 0.1 1.1 0.8 1.5 1.3m4.4-4.2c-0.5 1-1.2 2.2-2.3 2.8-0.4 0.1-0.9 0.1-1.3-0.1-0.2-0.2-0.6-0.4-0.6-0.8 0.1-0.4-0.1-0.9 0.3-1.1 0.8-0.5 1.6-1 2.4-1.7 0.2-0.1 0.6-0.2 0.7 0 0.4 0.3 0.7 0.5 0.8 0.9m50.1-0.4c0.1 0.4 0.7 0.9 0.3 1.3-0.8 0.6-1.7 1-2.8 0.9-0.8-0.6-0.7-1.7-1.4-2.5-0.2-0.6-1.1-0.6-0.9-1.2l0.3-0.2c1.1 0 2.2 0 3.3-0.2 1.1-0.1 0.8 1.2 1.2 1.9m63.2-16.3c0.6 0.8 1.1 1.6 1.5 2.6 0.1 0.2 0 0.4-0.1 0.6s-0.3 0.4-0.6 0.2c-0.7-0.2-0.6-1.3-1.5-1.2-0.6 0-1 0.5-1.5 0.8-0.9 0.8-2.1 1.6-2.3 2.8-0.2 0.4-0.1 1.1-0.5 1.3-0.2 0.1-0.5-0.1-0.5-0.3-0.1-1.6 0.4-3.1 1.5-4.2 1.1-0.9 1.9-2.2 2.8-3.3 0.6-0.1 1 0.3 1.2 0.7m0.4 13.3c0.2 0.4 0.6 0.9 0.3 1.4-0.4 0.3-1.1 0.1-1.6 0.1-0.6-0.3-0.8-1.1-0.8-1.8 0-0.2 0-0.3 0.2-0.5 0.7 0 1.4 0.2 1.9 0.8m15-30.6c0.3 0.4 0 0.8-0.2 1.1-1.4 1.3-3.1 2.7-4.1 4.3-0.4 0.5-0.7 1.1-0.9 1.7 0 0.1-0.1 0.1-0.2 0.1-0.3-0.8 0.1-1.7 0.3-2.5 0.7-1.9 2.3-3.7 4-5 0.2-0.1 0.9-0.2 1.1 0.3m5.7-6.4c1.1 0.7 1.5 2.2 2.8 2.5 2.2 0.5 4.4 1 6.4 2 1.4 0.7 2.7 1.7 4 2.8 1.2 0.6 2.7 0.6 4 1 1.9 0.5 3.4 1.9 5.1 3 2.2 1.7 5.3 1.5 7.8 2.6 4 1.3 7.2 4.4 10.9 6.2 1.9 1 4.8 1.4 6.7 0.3 1.3-0.9 2.1-2.1 1.8-3.8-0.7-4.1-5.2-6.2-7.3-9.6-0.4-0.8-0.7-1.9-0.5-2.8 0.8-2 2.9-3.1 4.7-3.8 1.4-0.7 3.2-0.5 4.5-1.3 0.5-0.3 0.9-0.7 1.2-1 0.3 0 0.3 0.3 0.4 0.5 0.4 2.4 0 4.9-2.1 6.3-0.8 0.6-1.8 0.8-2.7 1-0.8 0.3-2.4-0.3-2.3 1.1 0.2 0.7 0.8 1.1 1.3 1.6 2.8 2.3 5.4 5.3 5.7 8.9 0.1 2.8-1.8 5.2-4.2 6.4-1.8 0.7-4 1-5.9 0.5-0.5-0.1-1.3-0.6-1.7 0.1-0.1 0.8 0.4 1.4 0.4 2.1 0.2 1.3 0.2 3-0.2 4.3-0.2 1-1.2 2.2-0.3 3.2 0.9 1.4 2.7 1 4.2 1.2 0.8 0.1 1.1 1 1.3 1.6 0.3 0.8 0.3 1.7 0.6 2.3 0 1.5 1.7 2.1 2.5 3.1 1 1.1 1.9 3 3.6 2.9 0.6 1.2 0.9 2.3 1.1 3.7l-0.2 0.2c-1.4 0-3.3 0.4-4.3-0.6-1.2-0.8-1.6-3-3.4-2.4-0.8 0.6-1.9 0.8-2.8 0.4-0.9-0.3-1.5-1.1-2.3-1.6-2.4-1.8-5.6-2.7-8.7-2-1.8 0.5-3.2-0.8-4.6-1.6-1.9-0.8-2.4-2.8-2.8-4.5l-0.3-2.1c0-0.2 0.2-0.4 0.4-0.5h0.3c1.1 2.5 3.2 5.3 5.9 6.2 2.5 1 4.8-0.3 7.5 0.2 2.5 0.3 4.5 1.9 6.4 3.4 0.2 0 0.3-0.1 0.4-0.3v-0.2c-2.3-2.9-5.5-4.4-9.2-4.1-3.1 0.6-6.1-0.4-7.9-3-1-1.5-1.7-3.1-2-4.8-0.3-2-0.7-4.2-1.4-6-0.2-0.1-0.4-0.3-0.6-0.2l-0.2 0.3c0.3 1.9 0.9 4.2 0.2 6.2-0.5 1.6-2.1 2.2-3.6 2.3s-2.9-0.2-4.5-0.2c-3.6-0.1-6.8 1.3-10.5 1 0.3-0.9 0.9-1.8 0.6-2.8-0.1-0.2-0.4-0.2-0.6-0.2-0.7 0.4-0.6 1.3-1 1.9-0.8 1.3-2.3 2.5-3.8 2.8-1.1 0.8-2.1 1.9-3 2.9-0.3 0.3-0.3 0.9-0.2 1.3 0.7 1.8 2.8 2 4.4 2.5 0.8 0.1 1.5-0.2 1.9-0.9 0.7-1.1 0.8-2.9 2.4-3.1h3.5c0.3 0.1 0.5 0.3 0.7 0.6l-0.1 0.5c-0.8 0.9-1.1 2.2-2.1 2.8-0.6 0.2-1.3 0-1.7 0.5-0.2 1.2-0.5 2.5-1.7 3.1-0.9 0.8-2.2 0.4-3.2 0.1-1.9-0.7-3.8-1.1-5.7-1.7-0.8-0.2-1.1-1.2-2-1.4-0.8-0.2-1.7 0.4-2.4-0.3-0.4-0.9-0.6-1.5-0.8-2.5-0.3-0.6-0.5-1.3-0.6-2-0.1-0.6 0-1 0.2-1.5l2.6-4.7c0.2-0.3 0.4-0.6 0.7-0.7 0.6 0.1 1.3 0.4 1.9 0.7l-0.1 0.3-2.7 4.1c-0.6 1.3 0 2.8 0.6 3.9 0.1 0.1 0.2 0.3 0.3 0.2-0.1-0.8-0.2-1.6 0-2.5 0.2-0.8 0.7-1.5 1.1-2.2l2.1-3.1c0.2-0.5 0.2-1.3-0.2-1.8-0.9-0.9-2.2-1.2-3-2.4-1.7-2.3-1.9-5-2.1-7.9 0-0.2-0.2-0.5-0.5-0.6-0.2-0.1-0.4 0.2-0.5 0.3-0.5 1.9-0.2 4.2 0.3 5.9 0.3 1.3 0.9 2.6 1.5 3.8 0.1 0.2-0.1 0.5-0.3 0.6-1.4 0.1-2.8 0-4.1-0.2-1.8-0.3-3.1-1.7-4.6-2.8-0.2-0.1-0.3 0.1-0.4 0.2 0.4 2 2.6 3.2 3.3 5 0.4 1.5 1.9 2.6 2.2 4.2 0 0.2-0.2 0.5-0.4 0.6-0.5 0.1-1-0.2-1.5 0.1-0.1 0.9 0.5 1.8 0.1 2.6-0.5 0.8-1.2 1.7-2.1 1.7-1.8-0.6-3.6-1.4-5.4-1.9-1.3-0.1-2.6 0.1-3.8 0.2-1.2-0.2-2-1.3-2.9-1.9-0.3-0.1-0.6-0.1-0.8 0.1-2 2-4.2 4.2-7.2 4.1-0.2 0-0.3-0.2-0.3-0.4v-0.2c1.3-1.2 2.9-2.4 3.5-4.1 0.4-1.4 1.6-2.4 2.1-3.7 0.1-0.2-0.1-0.3-0.3-0.4l-0.3 0.2c-1.5 1.5-2.6 3.2-3.7 4.8-1.1 1.1-2.7 1.8-4.4 1.4-0.2-0.1-0.2-0.4-0.1-0.6 6.2-3.8 6.9-10.6 8.6-16.8 1.2-4.1 2.1-8.3 5.3-11.6 4.8-5.3 10.8-8.4 16.1-13 0.8-0.7 1.6-1.4 2.6-1.4 2.6-0.2 4.6 0.8 6.4 2.3m57.1 44.2c0.5 0.7 0.3 1.8 0.5 2.6 0.1 0.6 0.9 1.1 0.5 1.7l-2.2 0.7c-0.4 0-0.2-0.5-0.4-0.7-0.2-1.3-0.5-2.2-0.9-3.4-0.1-0.7 0.6-1.2 1.1-1.6 0.5-0.2 0.9 0.4 1.4 0.7m-5.1-4.5c0.8 0.7 1.9 1.2 2.5 2.1 0.1 0.4-0.2 0.8-0.4 1.1-0.3 0.3-0.7 0.5-1.2 0.5s-0.9-0.3-1.2-0.7c-0.5-0.8-1.2-1.5-1.4-2.3 0.3-0.5 1-1.3 1.7-0.7m-48.2-0.8c-0.1 1-0.4 1.9-0.8 2.8-0.3 0.6-1.2 0.4-1.8 0.3-0.6-0.2-1.6-0.3-1.7-1.2-0.1-0.8 0.3-1.6 0.7-2.2 0.9-0.1 2 0.1 2.9-0.1 0.4 0 0.7 0.1 0.7 0.4" clip-rule="evenodd" fill-rule="evenodd"/>
</g>
</g>
</svg>
