<?xml version="1.0" encoding="UTF-8"?>
<svg width="2e3" height="1250" version="1.1" viewBox="0 0 529.17 330.73" xmlns="http://www.w3.org/2000/svg">
 <path d="m164.51 309.71c-5.3904-11.432-13.124-27.853-17.186-36.493l-7.3856-15.708 0.71889-2.048c0.39531-1.1265 11.385-23.61 24.421-49.964 13.036-26.354 28.255-57.221 33.819-68.591 5.5642-11.371 17.722-36.108 27.018-54.97 20.384-41.364 28.934-58.783 35.332-71.98l4.8256-9.9556 3.1981 6.5504c7.7228 15.818 79.407 163.55 113.97 234.89 5.1772 10.684 7.3169 15.587 7.1289 16.336-0.14749 0.58841-7.1586 17.243-15.58 37.011l-15.311 35.942-3.8257-8.0087c-2.1043-4.4049-23.273-49.01-47.042-99.121-23.769-50.111-43.367-90.938-43.551-90.726-0.18347 0.21258-20.533 44.606-45.223 98.651s-45.033 98.424-45.21 98.619c-0.17627 0.19417-4.7309-8.9997-10.121-20.431zm-36.663-78.241c-0.29991-0.77285-6.566-17.823-13.924-37.89-11.908-32.477-22.432-61.324-57.147-156.64-5.3595-14.716-9.942-26.963-10.183-27.217-0.24131-0.25394-0.43839-0.6373-0.43839-0.85131 0-0.21433 15.851-0.38897 35.226-0.38897h35.226l1.1904 1.4147c0.65478 0.77813 1.4388 2.401 1.7422 3.6063 0.30337 1.2053 7.0967 19.558 15.096 40.787 31.858 84.536 35.082 93.195 35.082 94.162 0 0.55273-3.7488 8.525-8.3308 17.716-4.5819 9.1913-13.792 27.874-20.465 41.516-6.6745 13.642-12.223 24.892-12.33 24.998-0.10735 0.10735-0.44068-0.43726-0.74064-1.2104zm261.79-17.339c-5.1935-10.233-14.771-29.052-21.283-41.822-6.512-12.769-11.84-23.62-11.84-24.112 0-0.49241 3.6199-11.169 8.0443-23.728 30.28-85.943 42.303-119.68 42.756-120 0.68839-0.47228 75.676-0.47974 75.696-0.0053 0.0288 0.62094-83.429 228.26-83.688 228.26-0.13386 4e-3 -4.4924-8.3654-9.6858-18.598z" fill="#1b315d" stroke-width=".48646"/>
</svg>
