<?xml version="1.0" encoding="UTF-8"?>
<svg width="1440" height="720" version="1.1" viewBox="0 0 381 190.5" xmlns="http://www.w3.org/2000/svg">
<path d="m137.64 171.49c-2.847-6.0378-6.9316-14.711-9.077-19.274l-3.9008-8.2963 0.37969-1.0817c0.20879-0.59495 6.0131-12.47 12.898-26.389 6.8853-13.919 14.923-30.222 17.862-36.227 2.9388-6.0058 9.3603-19.071 14.27-29.033 10.766-21.847 15.282-31.047 18.661-38.017l2.5487-5.2582 1.6891 3.4597c4.0789 8.3544 41.94 86.382 60.197 124.06 2.7344 5.643 3.8645 8.2326 3.7652 8.6281-0.0779 0.31078-3.7809 9.1072-8.2286 19.548l-8.0868 18.983-2.0206-4.2299c-1.1114-2.3265-12.292-25.885-24.846-52.352-12.554-26.467-22.905-48.03-23.002-47.918-0.0969 0.11228-10.845 23.559-23.885 52.104-13.04 28.545-23.785 51.984-23.878 52.087-0.0931 0.10255-2.4987-4.7533-5.3456-10.791zm-19.364-41.324c-0.1584-0.40819-3.4679-9.4136-7.354-20.012-6.2896-17.153-11.848-32.389-30.183-82.732-2.8307-7.7722-5.251-14.241-5.3784-14.375-0.12745-0.13412-0.23154-0.3366-0.23154-0.44963 0-0.1132 8.3721-0.20544 18.605-0.20544h18.605l0.6287 0.74718c0.34583 0.41098 0.75991 1.2681 0.92019 1.9047 0.16023 0.6366 3.7482 10.33 7.973 21.542 16.826 44.649 18.529 49.222 18.529 49.733 0 0.29193-1.98 4.5026-4.4 9.357-2.42 4.8545-7.2842 14.722-10.809 21.927-3.5252 7.2052-6.4558 13.147-6.5125 13.203-0.0567 0.0567-0.23275-0.23094-0.39118-0.63927zm138.27-9.1578c-2.743-5.4046-7.8013-15.344-11.241-22.089-3.4394-6.7442-6.2535-12.475-6.2535-12.735 0-0.26007 1.9119-5.8993 4.2487-12.532 15.993-45.392 22.343-63.213 22.582-63.377 0.36358-0.24944 39.969-0.25338 39.98-0.0028 0.0152 0.32796-44.064 120.56-44.201 120.56-0.0707 2e-3 -2.3727-4.4183-5.1157-9.8228z" fill="#1b315d" stroke-width=".25693"/>
</svg>
