<?xml version="1.0" encoding="UTF-8"?>
<svg width="2e3" height="1250" version="1.1" viewBox="0 0 529.17 330.73" xmlns="http://www.w3.org/2000/svg">
 <path d="m174.92 294.7c-4.8298-10.243-11.759-24.956-15.399-32.698l-6.6175-14.074 0.64414-1.835c0.3542-1.0093 10.201-21.155 21.881-44.768 11.68-23.613 25.317-51.27 30.302-61.458 4.9856-10.188 15.879-32.353 24.208-49.253 18.264-37.062 25.925-52.67 31.658-64.494l4.3238-8.9203 2.8655 5.8692c6.9197 14.173 71.149 146.54 102.12 210.46 4.6388 9.5729 6.556 13.966 6.3875 14.637-0.13215 0.52722-6.4141 15.45-13.96 33.162l-13.719 32.204-3.4278-7.1758c-1.8855-3.9468-20.853-43.913-42.15-88.813s-38.857-81.481-39.022-81.291c-0.16438 0.19047-18.398 39.967-40.52 88.392-22.122 48.425-40.35 88.188-40.508 88.363-0.15795 0.17397-4.2389-8.0638-9.0685-18.306zm-32.85-70.104c-0.26872-0.69248-5.8832-15.97-12.476-33.95-10.67-29.1-20.099-54.947-51.204-140.35-4.8021-13.186-8.9081-24.159-9.124-24.387-0.21622-0.22753-0.3928-0.57102-0.3928-0.76278 0-0.19204 14.203-0.34852 31.563-0.34852h31.563l1.0666 1.2676c0.58669 0.69721 1.2892 2.1513 1.561 3.2313 0.27183 1.08 6.3587 17.524 13.526 36.545 28.545 75.745 31.434 83.503 31.434 84.37 0 0.49525-3.3589 7.6384-7.4644 15.874-4.1054 8.2354-12.358 24.975-18.337 37.199-5.9804 12.223-10.952 22.303-11.048 22.398-0.0962 0.0962-0.39486-0.39179-0.66363-1.0845zm234.57-15.536c-4.6534-9.1688-13.235-26.031-19.07-37.473-5.8348-11.441-10.609-21.164-10.609-21.604 0-0.4412 3.2434-10.007 7.2077-21.26 27.131-77.005 37.904-107.23 38.31-107.52 0.6168-0.42316 67.806-0.42985 67.824-0.0048 0.0258 0.55636-74.753 204.52-74.985 204.52-0.11994 3e-3 -4.0252-7.4954-8.6785-16.664z" fill="#1b315d" stroke-width=".43587"/>
</svg>
