<?xml version="1.0" encoding="UTF-8"?>
<!-- Generator: Adobe Illustrator 16.0.0, SVG Export Plug-In . SVG Version: 6.00 Build 0)  -->
<svg width="640" height="400" version="1.1" viewBox="0 0 640 400" xml:space="preserve" xmlns="http://www.w3.org/2000/svg">
















<g transform="matrix(1.0545 0 0 1.0545 62.509 -85.294)"><path d="m374.7 160.03 10.899 81.8-31.1-76.7c-1.4-2.1-2.1-5.1-1.4-6.5 0.7-2.1 1.4-2.8 3.7-3.7l10.9-2.8c4.201-1.4 7.001 1.4 7.001 7.9zm-37.6 166.4v63.699c0 16-10.899 21.7-23.899 21.7h-54.201c-2.1 26.7-24.6 48.4-52.1 48.4s-49.9-21.7-52.1-48.4h-154.8v-243.9h119.4c14.4 0 29 8.6 37.6 23.9l49.9 78.8 99 22.5c25.4 4.301 30.5 20.301 31.2 33.301zm-173.6-55-32.5-54.2c-5.8-10.9-15.2-18.9-29-18.9h-69.3v73h130.8zm70.2 135.9c0-15.2-12.3-27.5-27.5-27.5s-28.2 12.3-28.2 27.5 13 28.2 28.2 28.2 27.5-12.901 27.5-28.2zm51.4-206.1c-1.4 0-2.8 0.7-4.4 2.8l-5.8 9.5c-0.7 0.7-0.7 1.4-0.7 2.1 0 2.8 2.1 5.1 6.5 6.5l76.7 31.8-65.8-49.9c-2.9-1.3-5-2.8-6.5-2.8zm21.7-42.6c-1.4 0-2.8 0.7-4.4 2.1l-9.5 9.5c-1.4 1.4-2.1 2.8-2.1 5.1 0 2.8 2.1 5.8 5.8 7.9l80.9 62.2-62-80.9c-3.7-4.5-6.6-5.9-8.7-5.9z"/><rect x="431.91" y="80.888" width="56.469" height="378.49" ry="15.262" stroke-width="3.7795"/></g></svg>
