<?xml version="1.0" encoding="UTF-8"?>
<!-- Created with Inkscape (http://www.inkscape.org/) -->
<svg width="640" height="400" version="1.1" viewBox="0 0 169.33 105.83" xmlns="http://www.w3.org/2000/svg">
 <path d="m82.67 105.73c-4.4958-0.29909-9.3678-1.4612-14.301-3.411-5.0099-1.9803-9.5342-4.7038-13.948-8.3962-1.2756-1.0672-4.1479-3.8915-5.3403-5.2512-6.0331-6.8791-10.095-15.171-11.668-23.819-0.25943-1.4264-0.71038-4.7905-0.87107-6.4983l-0.07273-0.77303 0.8328-0.07804c1.2021-0.11265 4.2148-0.0097 4.408 0.15062 0.1786 0.14823 0.24109 0.51413 0.39921 2.3377 0.28593 3.2976 1.1457 7.0366 2.4454 10.634 4.1779 11.564 12.932 21 24.139 26.018 8.1716 3.6585 17.33 4.7758 26.237 3.2008 6.5868-1.1648 12.898-3.8178 18.462-7.7603 2.8406-2.013 6.9173-5.9279 9.3736-9.0015 0.76646-0.95907 2.5454-3.5925 3.3151-4.9074 6.5263-11.149 7.9744-24.483 3.9923-36.763-3.4612-10.674-10.844-19.721-20.709-25.38-5.3706-3.0806-11.96-5.1603-17.998-5.6809-0.80208-0.06914-1.5423-0.17059-1.6449-0.22543-0.41876-0.22381-0.45799-0.49382-0.42886-2.9518 0.01546-1.304 0.04207-2.3849 0.05914-2.402 0.05258-0.05257 3.5149 0.28476 4.7152 0.4594 13.02 1.8944 24.568 8.5439 32.758 18.862 4.0414 5.0916 7.3717 11.639 9.0909 17.872 2.1367 7.7466 2.2427 17.781 0.27154 25.696-1.7418 6.9948-5.4761 14.336-10.081 19.817-5.4303 6.4643-11.826 11.241-19.372 14.468-5.2382 2.24-10.098 3.4071-15.782 3.7899-1.8766 0.12639-6.3411 0.12317-8.2823-6e-3zm1.3503-25.313c-6.1052-0.70638-11.371-3.4574-15.629-8.1647-3.8402-4.2456-5.8682-8.7324-6.4149-14.193-0.18746-1.8724-0.0783-5.5996 0.21235-7.2502 0.69671-3.9566 2.4228-7.7895 4.9241-10.934 1.1385-1.4313 3.4384-3.7393 4.5972-4.6131 3.3885-2.5554 7.2684-4.2189 11.608-4.9771 1.7529-0.30625 5.8499-0.22528 8.1018 0.16012 5.4742 0.93684 9.671 3.1964 13.773 7.4155 3.9332 4.0453 6.0599 8.253 6.8725 13.597 0.27389 1.8013 0.27531 5.955 3e-3 7.7237-0.86619 5.6188-3.2096 10.101-7.4307 14.212-2.0896 2.0352-3.9448 3.4002-6.167 4.5379-2.3482 1.2022-4.6402 1.9391-7.3747 2.3711-1.4931 0.23589-5.4714 0.30046-7.0756 0.11485zm4.2314-5.3174c0.65229-0.20481 1.4272-0.89194 1.7951-1.5918 0.25304-0.48133 0.29109-0.68014 0.29195-1.5257 9.19e-4 -0.8753-0.03074-1.0295-0.31729-1.5468-0.40105-0.72398-0.88505-1.1504-1.7831-1.5708-1.2834-0.60088-2.5752-0.32546-3.6852 0.78565-0.70434 0.70508-0.96501 1.335-0.96501 2.332 0 0.89792 0.25024 1.5689 0.82251 2.2054 0.95519 1.0624 2.3257 1.3878 3.841 0.91204zm14.719-8.294c1.4991-0.73345 2.1264-2.3618 1.6138-4.1889-0.20493-0.73036-0.81448-1.4941-1.4521-1.8194-0.859-0.43823-2.5496-0.45868-3.358-0.04062-0.48648 0.25157-1.1045 0.92117-1.395 1.5116-0.37322 0.7583-0.37473 2.1503-0.0031 2.851 0.52701 0.99374 1.2136 1.6169 2.102 1.9077 0.68567 0.22446 1.7799 0.12728 2.4925-0.22135zm-28.85-0.21221c0.73321-0.35873 1.4029-1.0923 1.6349-1.7909 0.0948-0.2854 0.18056-0.90391 0.1906-1.3745 0.01595-0.74863-0.01739-0.91635-0.26692-1.3421-0.37178-0.63439-1.1611-1.3552-1.7875-1.6323-0.68625-0.30356-1.9541-0.30478-2.6374-0.0025-2.3943 1.0591-2.7214 4.1894-0.61485 5.8848 0.6023 0.48474 1.1144 0.63171 2.0537 0.58938 0.62663-0.02823 0.97008-0.10809 1.4275-0.33188zm15.788-3.851c2.1478-0.94819 3.6303-2.4317 4.5743-4.5775 0.37239-0.84652 0.38586-0.92364 0.42776-2.4497 0.02603-0.94842-0.0063-1.8145-0.08131-2.1757-0.16429-0.79138-0.90074-2.2419-1.573-3.0983-2.1671-2.7605-6.3061-3.8146-9.3416-2.3791-1.8568 0.87815-3.1356 2.1968-4.1202 4.2488-0.37521 0.78196-0.4493 1.0586-0.52832 1.9725-0.05078 0.58727-0.05046 1.5445 6.12e-4 2.139 0.08481 0.98535 0.13822 1.1674 0.63376 2.1605 0.89585 1.7953 1.9878 2.9409 3.6213 3.7993 1.3748 0.72243 1.7361 0.79659 3.7395 0.76768 1.7808-0.02569 1.7832-0.02606 2.6471-0.40748zm13.044-12.558c0.70882-0.32844 1.2947-0.89764 1.6706-1.6231 0.39303-0.75849 0.41363-2.0302 0.0452-2.7896-0.38372-0.79092-0.93007-1.3489-1.6666-1.7022-0.90807-0.43549-1.436-0.5029-2.206-0.28163-1.1857 0.34072-2.051 1.1001-2.3914 2.0985-0.20072 0.58879-0.26955 1.7428-0.13381 2.2436 0.13862 0.5114 0.9799 1.5009 1.6041 1.8867 0.9255 0.57199 2.0707 0.63437 3.078 0.16765zm-28.708-0.22312c0.63228-0.29506 1.2807-0.973 1.6039-1.6771 0.33224-0.72359 0.32028-2.0357-0.02496-2.7393-0.56479-1.1511-1.932-2.0486-3.1209-2.0486-1.1806 0-2.5858 0.91624-3.0503 1.989-0.28092 0.64866-0.33707 1.7809-0.12526 2.5259 0.15451 0.54345 0.61438 1.2399 1.0372 1.5708 0.844 0.66054 2.6736 0.84909 3.6803 0.37929zm14.034-8.0695c1.6703-0.62495 2.6581-2.4893 2.1836-4.1214-0.39683-1.3651-1.2875-2.1622-2.6262-2.3504-1.6875-0.23721-3.0263 0.38232-3.6732 1.6997-0.26237 0.5343-0.30341 0.7445-0.30008 1.5371 0.0071 1.691 0.73077 2.6775 2.4208 3.3001 0.56924 0.20972 1.3265 0.18498 1.9951-0.06517zm-53.456 11.266c-3.3636-0.03741-3.1396 0.08377-3.043-1.6465 0.2429-4.3507 1.251-9.4174 2.7792-13.968 3.8409-11.437 11.764-21.69 21.97-28.433 7.5717-5.0025 15.741-7.9384 24.952-8.9676 2.4125-0.26956 3.1613-0.17931 3.3488 0.4036 0.14785 0.45975 0.31233 16.949 0.20856 20.908-0.08752 3.3391-0.12051 3.7956-0.2933 4.0593-0.25832 0.39423-0.37349 0.43094-2.9713 0.947-3.5355 0.70233-6.2962 1.6985-9.0172 3.2538-7.7691 4.4406-13.067 11.889-14.616 20.55-0.39068 2.1836-0.47307 2.5827-0.56067 2.7158-0.07788 0.11829-16.537 0.24663-22.757 0.17745z" stroke-width=".10802"/>
</svg>
