<?xml version="1.0" encoding="UTF-8"?>
<svg width="640" height="400" version="1.1" viewBox="0 0 169.33 105.83" xmlns="http://www.w3.org/2000/svg">
 <g transform="matrix(.74999 0 0 .74999 21.166 -6.6785)">
  <g transform="matrix(.54015 0 0 .54015 0 14.912)">
   <rect y="32.429" width="174.18" height="104.48" fill="#fff" stroke-width=".87845"/>
   <rect y="32.429" width="34.827" height="34.827"/>
   <rect x="34.827" y="67.256" width="34.827" height="34.827"/>
   <rect x="69.654" y="32.429" width="34.827" height="34.827"/>
   <rect x="69.654" y="102.08" width="34.827" height="34.827"/>
   <rect x="104.48" y="67.256" width="34.827" height="34.827"/>
   <rect x="139.31" y="32.429" width="34.827" height="34.827"/>
   <rect x="139.31" y="102.08" width="34.827" height="34.827"/>
   <rect y="102.08" width="34.827" height="34.827"/>
  </g>
  <g transform="matrix(.54015 0 0 .54015 0 52.536)">
   <rect y="32.429" width="174.18" height="104.48" fill="#fff" stroke-width=".87845"/>
   <rect y="32.429" width="34.827" height="34.827"/>
   <rect x="34.827" y="67.256" width="34.827" height="34.827"/>
   <rect x="69.654" y="32.429" width="34.827" height="34.827"/>
   <rect x="69.654" y="102.08" width="34.827" height="34.827"/>
   <rect x="104.48" y="67.256" width="34.827" height="34.827"/>
   <rect x="139.31" y="32.429" width="34.827" height="34.827"/>
   <rect x="139.31" y="102.08" width="34.827" height="34.827"/>
   <rect y="102.08" width="34.827" height="34.827"/>
  </g>
  <g transform="matrix(.54015 0 0 .54015 75.248 14.916)">
   <rect y="32.429" width="174.18" height="104.48" fill="#fff" stroke-width=".87845"/>
   <rect y="32.429" width="34.827" height="34.827"/>
   <rect x="34.827" y="67.256" width="34.827" height="34.827"/>
   <rect x="69.654" y="32.429" width="34.827" height="34.827"/>
   <rect x="69.654" y="102.08" width="34.827" height="34.827"/>
   <rect x="104.48" y="67.256" width="34.827" height="34.827"/>
   <rect x="139.31" y="32.429" width="34.827" height="34.827"/>
   <rect x="139.31" y="102.08" width="34.827" height="34.827"/>
   <rect y="102.08" width="34.827" height="34.827"/>
  </g>
  <g transform="matrix(.54015 0 0 .54015 75.248 52.539)">
   <rect y="32.429" width="174.18" height="104.48" fill="#fff" stroke-width=".87845"/>
   <rect y="32.429" width="34.827" height="34.827"/>
   <rect x="34.827" y="67.256" width="34.827" height="34.827"/>
   <rect x="69.654" y="32.429" width="34.827" height="34.827"/>
   <rect x="69.654" y="102.08" width="34.827" height="34.827"/>
   <rect x="104.48" y="67.256" width="34.827" height="34.827"/>
   <rect x="139.31" y="32.429" width="34.827" height="34.827"/>
   <rect x="139.31" y="102.08" width="34.827" height="34.827"/>
   <rect y="102.08" width="34.827" height="34.827"/>
  </g>
 </g>
</svg>
