<?xml version="1.0" encoding="UTF-8"?>
<svg width="2e3" height="1250" version="1.1" viewBox="0 0 529.17 330.73" xmlns="http://www.w3.org/2000/svg">
 <g stroke-width=".324">
  <path d="m123.33 46.954-1.2808-1.377 1.377 1.2808c0.75735 0.70441 1.377 1.3241 1.377 1.377 0 0.24513-0.28216-1.6e-4 -1.4732-1.2808zm21.844-0.80999c-0.40301-0.51388-0.39155-0.52534 0.12233-0.12233 0.5397 0.42326 0.71133 0.68932 0.44467 0.68932-0.0673 0-0.32243-0.25514-0.567-0.56699zm43.74 0c-0.40301-0.51388-0.39155-0.52534 0.12233-0.12233 0.5397 0.42326 0.71133 0.68932 0.44466 0.68932-0.0673 0-0.32242-0.25514-0.56699-0.56699zm-46.008-2.268c-0.40301-0.51388-0.39155-0.52534 0.12233-0.12233 0.31185 0.24457 0.567 0.49972 0.567 0.567 0 0.26666-0.26607 0.095-0.68933-0.44467zm97.266-3.51c0.0156-0.37744 0.0923-0.45421 0.19574-0.19575 0.0936 0.23388 0.0821 0.51333-0.0256 0.621-0.10766 0.10766-0.18424-0.0837-0.17017-0.42525zm74.844-40.176c0.0155-0.37744 0.0923-0.45421 0.19576-0.19575 0.0936 0.23388 0.0821 0.51334-0.0256 0.621-0.10767 0.10766-0.18426-0.0837-0.1702-0.42525zm-172.69-24.948c0.0156-0.37744 0.0923-0.45421 0.19575-0.19575 0.0936 0.23389 0.0821 0.51334-0.0256 0.621-0.10766 0.10766-0.18424-0.0837-0.17017-0.42525zm98.545-3.051c0-0.6237 0.0667-0.87885 0.14817-0.567 0.0815 0.31185 0.0815 0.82215 0 1.134-0.0815 0.31185-0.14817 0.0567-0.14817-0.56699zm-140.66-9.585c0.0155-0.37744 0.0923-0.45421 0.19574-0.19575 0.0936 0.23388 0.0821 0.51333-0.0256 0.621-0.10766 0.10766-0.18424-0.0837-0.17017-0.42525zm74.52-22.68c0.0156-0.37744 0.0923-0.45422 0.19575-0.19575 0.0936 0.23388 0.0821 0.51333-0.0256 0.621-0.10767 0.10766-0.18424-0.0837-0.17017-0.42525zm-66.769-1.755c0-0.1782 0.1544-0.324 0.34312-0.324 0.18871 0 0.25301 0.1458 0.14287 0.324-0.11013 0.1782-0.26453 0.32399-0.34312 0.32399-0.0786 0-0.14287-0.14579-0.14287-0.32399zm-73.846-43.605c0.0156-0.37744 0.0923-0.45422 0.19574-0.19575 0.0936 0.23388 0.0821 0.51333-0.0256 0.62099-0.10766 0.10767-0.18424-0.0837-0.17017-0.42524zm226.29-47.439c0.69602-0.7128 1.3384-1.296 1.4275-1.296s-0.40748 0.5832-1.1035 1.296c-0.69603 0.71279-1.3384 1.296-1.4275 1.296s0.40748-0.5832 1.1035-1.296zm25.899-0.081-0.95161-1.053 1.053 0.95161c0.57915 0.52339 1.053 0.99724 1.053 1.053 0 0.25031-0.26735 0.0299-1.1544-0.95161zm-255.78-1.0133c0-0.0673 0.25515-0.32242 0.56699-0.56699 0.51388-0.40302 0.52534-0.39156 0.12233 0.12232-0.42326 0.5397-0.68932 0.71134-0.68932 0.44467zm164.27-0.30305c0-0.0558 0.47384-0.52961 1.053-1.053l1.053-0.95162-0.95161 1.053c-0.88703 0.98154-1.1544 1.2019-1.1544 0.95161z" fill="#d0d0d0"/>
  <path d="m164.58 49.074c0.40303-0.0775 0.98623-0.0746 1.296 7e-3 0.30977 0.0811-0.02 0.14451-0.73278 0.14091-0.71279-4e-3 -0.96624-0.07-0.56322-0.14744zm-55.711-0.31617c0.23389-0.0936 0.51334-0.0821 0.621 0.0256 0.10766 0.10766-0.0837 0.18424-0.42525 0.17017-0.37744-0.0155-0.45421-0.0923-0.19575-0.19575zm79.075-3.5857c-0.40301-0.51388-0.39155-0.52534 0.12233-0.12233 0.31185 0.24457 0.567 0.49972 0.567 0.567 0 0.26666-0.26607 0.095-0.68933-0.44467zm159.8-10.638c0.0155-0.37744 0.0923-0.45421 0.19576-0.19575 0.0936 0.23388 0.0821 0.51334-0.0256 0.621-0.10766 0.10766-0.18425-0.0837-0.17019-0.42525zm-337.61-133.81c0.0156-0.37744 0.0923-0.45421 0.19575-0.19575 0.0936 0.23389 0.0821 0.51334-0.0256 0.621-0.10767 0.10766-0.18424-0.0837-0.17017-0.42525zm147.39-15.031c0-0.20357 0.13335-0.2877 0.29633-0.18698 0.16298 0.10073 0.37074 0.0328 0.4617-0.15098 0.091-0.18376 0.13074-0.15733 0.0884 0.0587-0.10064 0.5138-0.84645 0.75983-0.84645 0.27923zm36.288-39.01c0-0.0673 0.25515-0.32243 0.567-0.567 0.51388-0.40301 0.52534-0.39155 0.12233 0.12233-0.42326 0.5397-0.68933 0.71133-0.68933 0.44467zm45.036-1.275c0-0.0558 0.47385-0.5296 1.053-1.053l1.053-0.95161-0.95161 1.053c-0.88704 0.98154-1.1544 1.2019-1.1544 0.95161zm-113.64-2.3899c0.31185-0.0815 0.82215-0.0815 1.134 0s0.0567 0.14817-0.567 0.14817-0.87884-0.0667-0.567-0.14817zm8.748 0c0.31185-0.0815 0.82214-0.0815 1.134 0s0.0567 0.14817-0.56699 0.14817c-0.6237 0-0.87885-0.0667-0.567-0.14817zm48.762 9e-3c0.22275-0.0899 0.58725-0.0899 0.81 0 0.22274 0.0899 0.0405 0.16342-0.405 0.16342s-0.62775-0.0735-0.405-0.16342zm89.271-0.34797c0.85183-0.067 2.164-0.0662 2.916 2e-3 0.75197 0.0679 0.055 0.12274-1.5488 0.12175-1.6038-9.8e-4 -2.219-0.0566-1.3672-0.12354z" fill="#b9b9b9"/>
  <path d="m197.31 49.068c0.58233-0.0721 1.4571-0.0706 1.944 3e-3 0.48685 0.0739 0.0104 0.13293-1.0588 0.13111-1.0692-2e-3 -1.4675-0.0623-0.88519-0.13441zm6.1502 0.0203c0.22275-0.0899 0.58725-0.0899 0.81 0 0.22274 0.0899 0.0405 0.16342-0.405 0.16342s-0.62775-0.0735-0.405-0.16342zm2.592 0c0.22275-0.0899 0.58724-0.0899 0.80999 0s0.0405 0.16342-0.405 0.16342c-0.44549 0-0.62774-0.0735-0.40499-0.16342zm-93.879-0.33545c6.8596-0.23106 12.961-0.23906 12.96-0.017-2.5e-4 0.13365-3.5361 0.21302-7.8574 0.17637-4.3213-0.0366-6.6177-0.10837-5.103-0.15939zm-39.171-0.65025c0.23592-0.39284 0.49868-0.64452 0.58392-0.55928 0.0852 0.0852-0.10779 0.40665-0.42894 0.71426-0.55791 0.53437-0.56481 0.52746-0.15498-0.15498zm27.483-3.5787-0.78547-0.891 0.891 0.78547c0.83276 0.73415 1.0396 0.99652 0.78547 0.99652-0.058 0-0.45899-0.40095-0.891-0.89099zm-47.902-0.27c0.0156-0.37744 0.0923-0.45422 0.19575-0.19575 0.0936 0.23388 0.0821 0.51333-0.0256 0.621-0.10766 0.10766-0.18424-0.0837-0.17017-0.42525zm132.64-3.0725c-0.11746-0.19006-0.14407-0.41504-0.0591-0.49997 0.0849-0.0849 0.24075 0.0706 0.34627 0.34555 0.21908 0.57092 0.0323 0.67134-0.28713 0.15442zm36.489-9.2394c0.0156-0.37744 0.0923-0.45421 0.19575-0.19575 0.0936 0.23389 0.0821 0.51334-0.0256 0.621-0.10766 0.10766-0.18424-0.0837-0.17017-0.42525zm-140.62-9.072c0.0155-0.37744 0.0923-0.45421 0.19575-0.19575 0.0936 0.23389 0.0821 0.51334-0.0256 0.621-0.10766 0.10766-0.18424-0.0837-0.17017-0.42525zm-82.62-15.228c0.0156-0.37744 0.0923-0.45421 0.19574-0.19575 0.0936 0.23389 0.0821 0.51334-0.0256 0.621-0.10767 0.10766-0.18424-0.0837-0.17017-0.42525zm248.51-14.904c0.0156-0.37744 0.0923-0.45421 0.19575-0.19575 0.0936 0.23388 0.0821 0.51334-0.0256 0.621-0.10766 0.10766-0.18424-0.0837-0.17017-0.42525zm-240.08-11.988c0.0155-0.37744 0.0923-0.45421 0.19575-0.19575 0.0936 0.23389 0.0821 0.51334-0.0256 0.621-0.10766 0.10766-0.18423-0.0837-0.17017-0.42525zm256.61-81.972c0.0155-0.37744 0.0923-0.45421 0.19575-0.19575 0.0936 0.23389 0.0821 0.51334-0.0256 0.621-0.10767 0.10766-0.18424-0.0837-0.17018-0.42525zm8.1-25.596c0.0155-0.37744 0.0923-0.45421 0.19575-0.19575 0.0936 0.23389 0.0821 0.51333-0.0256 0.621-0.10766 0.10766-0.18424-0.0837-0.17017-0.42525zm-128.67-25.974-1.1166-1.215 1.215 1.1166c1.1309 1.0393 1.364 1.3134 1.1166 1.3134-0.0541 0-0.60089-0.54675-1.215-1.215zm29.825 0.081c0.60451-0.6237 1.172-1.134 1.2611-1.134s-0.3326 0.5103-0.93711 1.134c-0.60451 0.62369-1.172 1.134-1.2611 1.134s0.3326-0.5103 0.93711-1.134zm-99.467 0c0.41852-0.4455 0.83385-0.81 0.92295-0.81s-0.18043 0.3645-0.59895 0.81c-0.41853 0.44549-0.83385 0.80999-0.92295 0.80999s0.18042-0.3645 0.59895-0.80999zm43.092 0.70861c0-0.0558 0.47385-0.52961 1.053-1.053l1.053-0.95161-0.95161 1.053c-0.88704 0.98153-1.1544 1.2019-1.1544 0.95161zm-86.832-1.0326c0.41853-0.4455 0.83385-0.81 0.92295-0.81s-0.18043 0.3645-0.59895 0.81c-0.41852 0.44549-0.83385 0.80999-0.92295 0.80999s0.18043-0.3645 0.59895-0.80999zm22.827-2.349 1.2808-1.377-1.1188-0.0486c-1.0388-0.0451-1.0523-0.0585-0.18829-0.18733 1.5469-0.23073 1.5881 0.34604 0.12205 1.7096l-1.3765 1.2803zm44.187-0.51003c0.38909-0.41417 0.59676-0.87495 0.46148-1.0239-0.13528-0.149-0.0528-0.15926 0.1834-0.0228 0.33367 0.19283 0.26693 0.42103-0.29948 1.0239-0.40086 0.4267-0.80174 0.77582-0.89084 0.77582s0.15635-0.33887 0.54544-0.75303zm90.044-1.1084c1.6483-0.0588 4.3456-0.0588 5.994 0s0.2997 0.10691-2.997 0.10691c-3.2967 0-4.6453-0.0481-2.997-0.10691zm82.788 0.0169c0.31524-0.0822 0.75263-0.0768 0.97199 0.012s-0.0386 0.15597-0.57316 0.14936c-0.5346-7e-3 -0.71407-0.0792-0.39883-0.16136zm7.952 3e-3c0.23388-0.0936 0.51333-0.0821 0.621 0.0256 0.10766 0.10766-0.0837 0.18424-0.42525 0.17017-0.37744-0.0155-0.45421-0.0923-0.19575-0.19575z" fill="#a3a3a3"/>
  <path d="m153.26 49.082c0.23388-0.0936 0.51333-0.0821 0.62099 0.0256 0.10767 0.10766-0.0837 0.18424-0.42524 0.17017-0.37745-0.0155-0.45422-0.0923-0.19575-0.19575zm8.7315-8e-3c0.40302-0.0775 0.98622-0.0746 1.296 7e-3 0.30977 0.0811-0.02 0.1445-0.73277 0.14091-0.7128-4e-3 -0.96625-0.07-0.56322-0.14745zm33.212-0.31938c0.31524-0.0822 0.75264-0.0768 0.97199 0.012 0.21936 0.0888-0.0386 0.15596-0.57316 0.14936-0.5346-7e-3 -0.71407-0.0792-0.39883-0.16136zm5.8303-8e-3c0.49249-0.0745 1.2215-0.0725 1.62 4e-3 0.3985 0.0769-4e-3 0.13783-0.89545 0.1354-0.891-3e-3 -1.217-0.0654-0.72454-0.13983zm6.4755 9e-3c0.31185-0.0815 0.82214-0.0815 1.134 0s0.0567 0.14817-0.56699 0.14817c-0.6237 0-0.87885-0.0667-0.567-0.14817zm-238.79-0.34304c2.8066-0.0539 7.3993-0.0539 10.206 0 2.8066 0.0539 0.5103 0.0981-5.103 0.0981s-7.9096-0.0441-5.103-0.0981zm15.795 0.11817c0-0.0683 0.2918-0.20051 0.64844-0.29378 0.35665-0.0933 0.56674-0.0374 0.46688 0.12421-0.17439 0.28217-1.1153 0.42523-1.1153 0.16957zm67.073-0.44278c3e-3 -0.39916 0.0802-0.44849 0.25925-0.16664 0.19117 0.30098 2.8239 0.42279 10.606 0.49071l10.352 0.0904-10.611 0.0763c-9.9204 0.0713-10.611 0.0394-10.606-0.49071zm55.966 0.35242c0.22275-0.0899 0.58725-0.0899 0.80999 0 0.22275 0.0899 0.0405 0.16342-0.40499 0.16342-0.4455 0-0.62775-0.0735-0.405-0.16342zm15.602-1.3244c-1.2788-1.3441-2.9337-3.3857-2.0354-2.511 0.96498 0.93966 3.7603 4.05 3.6398 4.05-0.0771 0-0.79907-0.69254-1.6044-1.539zm86.477 1.3177c0.23388-0.0936 0.51333-0.0821 0.621 0.0256 0.10766 0.10766-0.0837 0.18424-0.42525 0.17017-0.37744-0.0156-0.45422-0.0923-0.19575-0.19575zm39.042-0.0212c2.9962-0.0535 7.8075-0.0534 10.692 2.2e-4 2.8844 0.0536 0.43302 0.0974-5.4476 0.0973-5.8806-1.2e-4 -8.2405-0.044-5.2444-0.0975zm87.783 9e-5c2.9848-0.0535 7.8691-0.0535 10.854 0 2.9848 0.0535 0.5427 0.0972-5.427 0.0972s-8.4118-0.0437-5.427-0.0972zm-168.75-0.81054-0.61722-0.729 0.729 0.61722c0.68507 0.58002 0.87649 0.84078 0.61721 0.84078-0.0615 0-0.38953-0.32805-0.72899-0.729zm-66.886-3.078-1.7709-1.863 1.863 1.7709c1.0246 0.974 1.863 1.8124 1.863 1.863 0 0.24049-0.30981-0.0401-1.955-1.7709zm65.093 1.296c-0.40301-0.51388-0.39155-0.52534 0.12233-0.12233 0.31185 0.24457 0.567 0.49972 0.567 0.567 0 0.26666-0.26607 0.095-0.68933-0.44467zm22.22-0.81-1.2808-1.377 1.377 1.2808c1.2806 1.1911 1.5259 1.4732 1.2808 1.4732-0.0529 0-0.67258-0.61965-1.377-1.377zm26.097 1.2756c0-0.0558 0.47385-0.5296 1.053-1.053l1.053-0.95161-0.95161 1.053c-0.88704 0.98154-1.1544 1.2019-1.1544 0.95161zm47.981-4.788c-0.2191-0.7313-0.33872-1.3893-0.26582-1.4622s0.31181 0.46578 0.53091 1.1971c0.2191 0.73129 0.33872 1.3893 0.26582 1.4622s-0.31181-0.46579-0.53091-1.1971zm65.768-0.80754c0.0156-0.37745 0.0923-0.45422 0.19576-0.19575 0.0936 0.23388 0.0821 0.51333-0.0256 0.62099-0.10767 0.10767-0.18426-0.0837-0.1702-0.42524zm-274.08-0.135c0-0.2673 0.26899-1.215 0.59777-2.106 0.32878-0.891 0.59777-1.4013 0.59777-1.134s-0.26899 1.215-0.59777 2.106c-0.32878 0.891-0.59777 1.4013-0.59777 1.134zm-65.472-1.161c0.0155-0.37744 0.0923-0.45421 0.19575-0.19575 0.0936 0.23389 0.0821 0.51334-0.0256 0.621-0.10766 0.10766-0.18424-0.0837-0.17017-0.42525zm338.58-1.7844c-0.21909-0.7313-0.33871-1.3893-0.26581-1.4622s0.31178 0.46578 0.5309 1.1971c0.21909 0.73129 0.33871 1.3893 0.26581 1.4622s-0.31178-0.46579-0.5309-1.1971zm-107.59 0.51545c0-0.1782 0.14133-0.5427 0.31407-0.81 0.17275-0.2673 0.31408-0.34019 0.31408-0.162 0 0.1782-0.14133 0.5427-0.31408 0.81-0.17274 0.2673-0.31407 0.3402-0.31407 0.162zm-230.33-0.81c0-0.2673 0.1253-0.77759 0.27845-1.134 0.17552-0.40845 0.27846-0.46833 0.27846-0.162 0 0.2673-0.12531 0.7776-0.27846 1.134-0.17551 0.40845-0.27845 0.46834-0.27845 0.162zm107.08-0.17452c-0.31266-0.81476-0.22042-1.025 0.16152-0.36817 0.18911 0.32521 0.27559 0.65955 0.19217 0.74297-0.0834 0.0834-0.24258-0.0852-0.35369-0.3748zm164.57-0.33462c-0.11917-0.47482-0.15419-0.9258-0.0778-1.0022 0.0764-0.0764 0.23636 0.24964 0.35553 0.72446s0.1542 0.9258 0.0778 1.0022c-0.0764 0.0764-0.23636-0.24963-0.35553-0.72446zm-165.55-2.6012c-0.3132-0.99359-0.51114-1.8648-0.43986-1.9361 0.0713-0.0713 0.38586 0.68334 0.69906 1.6769 0.31321 0.99359 0.51114 1.8648 0.43986 1.9361-0.0713 0.0713-0.38585-0.68334-0.69906-1.6769zm125.24 1.3284c-9.8e-4 -0.1782 0.19484-0.83429 0.43503-1.458 0.24018-0.6237 0.44121-0.91529 0.44673-0.648 6e-3 0.2673-0.19024 0.9234-0.43503 1.458-0.24479 0.53459-0.44582 0.82619-0.44673 0.64799zm-141.59-5.6696c0-0.2673 0.19651-0.99629 0.4367-1.62 0.24018-0.6237 0.4367-0.91529 0.4367-0.648 0 0.2673-0.19652 0.9963-0.4367 1.62-0.24019 0.62369-0.4367 0.91529-0.4367 0.64799zm157.92-0.83314c-0.11918-0.47482-0.1542-0.9258-0.0778-1.0022 0.0764-0.0764 0.23636 0.24964 0.35553 0.72446s0.15419 0.9258 0.0778 1.0022c-0.0764 0.0764-0.23636-0.24963-0.35553-0.72446zm-266.16-1.9478c0.0156-0.37744 0.0923-0.45421 0.19575-0.19575 0.0936 0.23388 0.0821 0.51333-0.0256 0.621-0.10766 0.10766-0.18424-0.0837-0.17017-0.42525zm265.19-1.2921c-0.11917-0.47482-0.15419-0.9258-0.0778-1.0022 0.0764-0.0764 0.23636 0.24964 0.35553 0.72446 0.11918 0.47482 0.1542 0.9258 0.0778 1.0022-0.0764 0.0764-0.23636-0.24964-0.35554-0.72446zm108.71-0.81631c-0.21908-0.73129-0.3387-1.3893-0.2658-1.4622s0.31178 0.46579 0.5309 1.1971c0.21909 0.7313 0.33871 1.3893 0.26581 1.4622s-0.31179-0.46578-0.53091-1.1971zm-264.37 0.67745c0-0.26729 0.1253-0.77759 0.27845-1.134 0.17552-0.40844 0.27846-0.46833 0.27846-0.162 0 0.2673-0.12531 0.7776-0.27846 1.134-0.17551 0.40844-0.27845 0.46833-0.27845 0.16199zm33.356-1.3254c-0.2191-0.7313-0.33872-1.3893-0.26582-1.4622s0.31181 0.46578 0.53091 1.1971c0.2191 0.73129 0.33872 1.3893 0.26582 1.4622s-0.31181-0.46579-0.53091-1.1971zm-142.21 0.67745c0-0.2673 0.269-1.215 0.59778-2.106 0.32877-0.891 0.59777-1.4013 0.59777-1.134 0 0.26729-0.269 1.215-0.59777 2.106-0.32878 0.891-0.59778 1.4013-0.59778 1.134zm230.82-0.095c0.12167-0.31953 0.30284-0.49935 0.40259-0.39959 0.0998 0.0997 2.1e-4 0.36119-0.22122 0.58097-0.31999 0.3176-0.3572 0.28039-0.18137-0.18138zm0.51446-1.201c0-0.26729 0.19652-0.99629 0.4367-1.62 0.24019-0.62369 0.4367-0.91529 0.4367-0.64799s-0.19651 0.99629-0.4367 1.62c-0.24018 0.6237-0.4367 0.91529-0.4367 0.64799zm-23.84-1.8051c-0.11917-0.47482-0.15419-0.9258-0.0778-1.0022 0.0764-0.0764 0.23636 0.24964 0.35554 0.72446 0.11917 0.47482 0.15419 0.9258 0.0778 1.0022-0.0764 0.0764-0.23636-0.24964-0.35554-0.72446zm-66.575-1.7883c-0.2191-0.73129-0.33872-1.3893-0.26582-1.4622s0.31181 0.46579 0.53091 1.1971 0.33872 1.3893 0.26582 1.4622-0.31181-0.46579-0.53091-1.1971zm65.772-0.972c-0.2191-0.73129-0.33872-1.3893-0.26582-1.4622s0.31181 0.46578 0.53091 1.1971c0.2191 0.73129 0.33872 1.3893 0.26582 1.4622s-0.31181-0.46578-0.53091-1.1971zm26.24-0.80754c0.0155-0.37744 0.0923-0.45421 0.19574-0.19575 0.0936 0.23389 0.0821 0.51334-0.0256 0.621-0.10766 0.10766-0.18424-0.0837-0.17017-0.42525zm49.9-2.4324c-0.2191-0.73129-0.33872-1.3893-0.26582-1.4622s0.3118 0.46579 0.53091 1.1971c0.2191 0.7313 0.33872 1.3893 0.26582 1.4622s-0.31181-0.46579-0.53091-1.1971zm-192.11-0.94254c0-0.2673 0.269-1.215 0.59778-2.106 0.32877-0.89099 0.59777-1.4013 0.59777-1.134s-0.269 1.215-0.59777 2.106c-0.32878 0.89099-0.59778 1.4013-0.59778 1.134zm257.07-2.4624c-0.31321-0.99359-0.51114-1.8648-0.43986-1.9361 0.0713-0.0713 0.38585 0.68334 0.69906 1.6769 0.31321 0.99359 0.51114 1.8648 0.43986 1.9361-0.0713 0.0713-0.38585-0.68333-0.69906-1.6769zm-322.52 1.1664c0-0.2673 0.19651-0.9963 0.43669-1.62 0.24019-0.6237 0.4367-0.9153 0.4367-0.648s-0.19651 0.99629-0.4367 1.62c-0.24018 0.6237-0.43669 0.9153-0.43669 0.648zm231.01-0.648c0-0.2673 0.1253-0.77759 0.27845-1.134 0.17552-0.40845 0.27845-0.46834 0.27845-0.162 0 0.2673-0.1253 0.77759-0.27845 1.134-0.17552 0.40845-0.27845 0.46834-0.27845 0.162zm25.256-1.3254c-0.2191-0.73129-0.33872-1.3893-0.26582-1.4622s0.31181 0.46579 0.53091 1.1971c0.2191 0.7313 0.33872 1.3893 0.26582 1.4622s-0.31181-0.46578-0.53091-1.1971zm-164.92-0.32399c-0.2191-0.7313-0.33872-1.3893-0.26582-1.4622s0.31181 0.46578 0.53091 1.1971c0.2191 0.73129 0.33872 1.3893 0.26582 1.4622-0.0729 0.0729-0.31181-0.46578-0.53091-1.1971zm108.37-2.0997c-0.11917-0.47482-0.15419-0.9258-0.0778-1.0022 0.0764-0.0764 0.23636 0.24963 0.35553 0.72446 0.11918 0.47482 0.1542 0.9258 0.0778 1.0022-0.0764 0.0764-0.23636-0.24964-0.35553-0.72446zm121.99 0.32014c0.0155-0.37744 0.0923-0.45421 0.19576-0.19575 0.0936 0.23389 0.0821 0.51334-0.0256 0.621-0.10767 0.10766-0.18426-0.0837-0.1702-0.42525zm-320.43-0.324c0.0155-0.37744 0.0923-0.45421 0.19575-0.19575 0.0936 0.23389 0.0821 0.51334-0.0256 0.621-0.10766 0.10766-0.18424-0.0837-0.17017-0.42525zm231.01-0.459c-0.01-0.2673 0.12352-0.70469 0.29626-0.97199 0.38275-0.59226 0.38275-0.0807 0 0.80999-0.1836 0.42727-0.28452 0.48246-0.29626 0.162zm-142.08-0.87702c-0.17583-0.46176-0.13861-0.49897 0.18137-0.18137 0.22143 0.21978 0.32098 0.48121 0.22122 0.58097-0.0998 0.0998-0.28092-0.0801-0.40259-0.3996zm108.06-3.3644c-0.2191-0.73129-0.33872-1.3893-0.26582-1.4622s0.31181 0.46579 0.53091 1.1971c0.2191 0.7313 0.33872 1.3893 0.26582 1.4622s-0.31181-0.46579-0.53091-1.1971zm141.91-4.212c-0.21909-0.73129-0.33871-1.3893-0.26581-1.4622s0.31178 0.46579 0.5309 1.1971c0.21909 0.7313 0.33871 1.3893 0.26581 1.4622s-0.31178-0.46578-0.5309-1.1971zm-357.67 0.0295c0-0.2673 0.19651-0.9963 0.4367-1.62 0.24018-0.6237 0.4367-0.9153 0.4367-0.648s-0.19652 0.99629-0.4367 1.62c-0.24019 0.6237-0.4367 0.9153-0.4367 0.648zm126.19-2.1185c-0.11112-0.28955-0.19279-0.69679-0.18149-0.90497 0.0113-0.20817 0.16023-0.0293 0.33096 0.39754 0.17073 0.42682 0.2524 0.83406 0.18149 0.90497-0.0709 0.0709-0.21985-0.10798-0.33096-0.39754zm105.47-0.14947c0-0.2673 0.1253-0.7776 0.27845-1.134 0.17552-0.40845 0.27845-0.46834 0.27845-0.162 0 0.2673-0.1253 0.77759-0.27845 1.134-0.17552 0.40845-0.27845 0.46833-0.27845 0.162zm-39.548-0.513c0.0156-0.37744 0.0923-0.45421 0.19575-0.19575 0.0936 0.23389 0.0821 0.51334-0.0256 0.621-0.10766 0.10766-0.18423-0.0837-0.17017-0.42525zm-66.74-2.1084c-0.2191-0.73129-0.33872-1.3893-0.26582-1.4622s0.31181 0.46579 0.53091 1.1971 0.33872 1.3893 0.26582 1.4622-0.31181-0.46579-0.53091-1.1971zm-124.07 0.67745c0-0.2673 0.19652-0.99629 0.4367-1.62s0.4367-0.9153 0.4367-0.648-0.19652 0.9963-0.4367 1.62c-0.24018 0.6237-0.4367 0.9153-0.4367 0.648zm354.91-0.50914c-0.11917-0.47482-0.1542-0.9258-0.0778-1.0022 0.0764-0.0764 0.23639 0.24963 0.35556 0.72446 0.11916 0.47482 0.15419 0.9258 0.0778 1.0022-0.0764 0.0764-0.23639-0.24964-0.35555-0.72446zm-123.58-0.78685c0-0.2673 0.1253-0.7776 0.27846-1.134 0.17551-0.40844 0.27845-0.46833 0.27845-0.162 0 0.2673-0.1253 0.7776-0.27845 1.134-0.17552 0.40844-0.27846 0.46833-0.27846 0.162zm-41.812-1.3254c-0.2191-0.73129-0.33872-1.3893-0.26582-1.4622s0.31181 0.46579 0.53091 1.1971 0.33872 1.3893 0.26582 1.4622-0.31181-0.46579-0.53091-1.1971zm76.136-3.3995c0.0156-0.37744 0.0923-0.45421 0.19575-0.19575 0.0936 0.23389 0.0821 0.51334-0.0256 0.621-0.10766 0.10766-0.18424-0.0837-0.17017-0.42525zm-175.91-0.78299c0-0.2673 0.1253-0.7776 0.27846-1.134 0.17551-0.40844 0.27845-0.46833 0.27845-0.162 0 0.2673-0.1253 0.7776-0.27845 1.134-0.17552 0.40844-0.27846 0.46833-0.27846 0.162zm241.52-0.50914c-0.11917-0.47483-0.15419-0.9258-0.0778-1.0022 0.0764-0.0764 0.23639 0.24964 0.35555 0.72446 0.11917 0.47483 0.15419 0.9258 0.0778 1.0022-0.0764 0.0764-0.23639-0.24964-0.35556-0.72446zm-66.251-0.81631c-0.2191-0.7313-0.33872-1.3893-0.26582-1.4622s0.31181 0.46579 0.53091 1.1971 0.33872 1.3893 0.26582 1.4622-0.31181-0.46579-0.53091-1.1971zm-240.39-1.2665c0-0.2673 0.19652-0.9963 0.4367-1.62 0.24018-0.6237 0.4367-0.9153 0.4367-0.648s-0.19652 0.9963-0.4367 1.62c-0.24018 0.6237-0.4367 0.9153-0.4367 0.648zm66.396-1.809c0.0156-0.37744 0.0923-0.45421 0.19575-0.19575 0.0936 0.23388 0.0821 0.51334-0.0256 0.621-0.10766 0.10766-0.18424-0.0837-0.17017-0.42525zm238.95-0.32014c-0.11917-0.47483-0.15419-0.9258-0.0778-1.0022 0.0764-0.0764 0.23639 0.24963 0.35556 0.72446 0.11917 0.47482 0.15419 0.92579 0.0778 1.0022-0.0764 0.0764-0.23639-0.24964-0.35555-0.72446zm-66.255-0.97585c0.0156-0.37744 0.0923-0.45422 0.19575-0.19575 0.0936 0.23388 0.0821 0.51333-0.0256 0.62099-0.10766 0.10767-0.18424-0.0837-0.17017-0.42524zm84.723-8.4201c-0.11917-0.47483-0.15419-0.9258-0.0778-1.0022 0.0764-0.0764 0.23638 0.24963 0.35555 0.72446 0.11917 0.47482 0.15419 0.92579 0.0778 1.0022-0.0764 0.0764-0.23639-0.24964-0.35556-0.72446zm-341.31-1.7589c0-0.2673 0.1253-0.7776 0.27845-1.134 0.17552-0.40845 0.27846-0.46834 0.27846-0.162 0 0.2673-0.12531 0.77759-0.27846 1.134-0.17551 0.40845-0.27845 0.46833-0.27845 0.162zm109.82-0.513c0.0156-0.37744 0.0923-0.45421 0.19575-0.19575 0.0936 0.23389 0.0821 0.51334-0.0256 0.621-0.10767 0.10766-0.18424-0.0837-0.17017-0.42525zm230.37-1.4604c-0.21908-0.7313-0.3387-1.3893-0.2658-1.4622s0.31178 0.46578 0.5309 1.1971c0.21909 0.73129 0.33871 1.3893 0.26581 1.4622s-0.31179-0.46579-0.53091-1.1971zm-230.34 0.0294c0-0.4455 0.0735-0.62775 0.16342-0.405 0.0899 0.22275 0.0899 0.58725 0 0.81s-0.16342 0.0405-0.16342-0.405zm64.778-2.6214c-0.2191-0.73129-0.33872-1.3893-0.26582-1.4622s0.31181 0.46579 0.53091 1.1971 0.33872 1.3893 0.26582 1.4622-0.31181-0.46579-0.53091-1.1971zm-173.32 0.35345c0-0.2673 0.12531-0.77759 0.27846-1.134 0.17551-0.40845 0.27845-0.46834 0.27845-0.162 0 0.2673-0.1253 0.77759-0.27845 1.134-0.17552 0.40845-0.27846 0.46834-0.27846 0.162zm231.01 0c0-0.2673 0.1253-0.77759 0.27845-1.134 0.17552-0.40845 0.27846-0.46834 0.27846-0.162 0 0.2673-0.12531 0.77759-0.27846 1.134-0.17551 0.40845-0.27845 0.46834-0.27845 0.162zm-58.988-4.7249c0.0156-0.37744 0.0923-0.45422 0.19574-0.19575 0.0936 0.23388 0.0821 0.51333-0.0256 0.621-0.10766 0.10766-0.18424-0.0837-0.17017-0.42525zm-148.05-2.403c0-0.2673 0.1253-0.7776 0.27845-1.134 0.17552-0.40845 0.27845-0.46834 0.27845-0.162 0 0.2673-0.1253 0.77759-0.27845 1.134-0.17552 0.40845-0.27845 0.46833-0.27845 0.162zm66.096-0.648c0-0.2673 0.1253-0.77759 0.27845-1.134 0.17552-0.40845 0.27845-0.46833 0.27845-0.162 0 0.2673-0.1253 0.7776-0.27845 1.134-0.17552 0.40845-0.27845 0.46834-0.27845 0.162zm223.87-1.0014c-0.21909-0.73129-0.33871-1.3893-0.26581-1.4622s0.31178 0.46579 0.5309 1.1971c0.21909 0.7313 0.33871 1.3893 0.26581 1.4622s-0.31178-0.46578-0.5309-1.1971zm-58-2.4275c0.0156-0.37744 0.0923-0.45421 0.19575-0.19575 0.0936 0.23389 0.0821 0.51334-0.0256 0.621-0.10766 0.10766-0.18423-0.0837-0.17017-0.42525zm-230.67-0.135c0-0.2673 0.1253-0.77759 0.27845-1.134 0.17552-0.40845 0.27846-0.46834 0.27846-0.162 0 0.2673-0.12531 0.77759-0.27846 1.134-0.17551 0.40845-0.27845 0.46834-0.27845 0.162zm287.37-1.809c0.0156-0.37744 0.0923-0.45421 0.19576-0.19575 0.0936 0.23389 0.0821 0.51334-0.0256 0.621-0.10767 0.10766-0.18426-0.0837-0.1702-0.42525zm-122.15-0.99949c-0.0141-0.20818-0.10949-0.64558-0.21205-0.972-0.17724-0.56415-0.1681-0.56486 0.18494-0.0143 0.20426 0.31856 0.29968 0.75596 0.21204 0.972-0.11502 0.28349-0.16647 0.28747-0.18493 0.0143zm66.44-0.1075c0-0.2673 0.1253-0.7776 0.27845-1.134 0.17552-0.40844 0.27846-0.46833 0.27846-0.162 0 0.2673-0.1253 0.7776-0.27846 1.134-0.17551 0.40844-0.27845 0.46833-0.27845 0.162zm-141.93-4.401c0.0156-0.37744 0.0923-0.45421 0.19574-0.19575 0.0936 0.23389 0.0821 0.51334-0.0256 0.621-0.10766 0.10766-0.18424-0.0837-0.17017-0.42525zm0.67171-2.079c0-0.2673 0.19652-0.99629 0.4367-1.62 0.24019-0.6237 0.4367-0.9153 0.4367-0.648s-0.19651 0.9963-0.4367 1.62c-0.24018 0.6237-0.4367 0.9153-0.4367 0.648zm215.27-2.1291c-0.11917-0.47482-0.15419-0.9258-0.0778-1.0022 0.0764-0.0764 0.23639 0.24963 0.35556 0.72446 0.11917 0.47482 0.15419 0.9258 0.0778 1.0022-0.0764 0.0764-0.23639-0.24964-0.35555-0.72446zm-208.49-4e-3c0.0155-0.37744 0.0923-0.45421 0.19575-0.19575 0.0936 0.23389 0.0821 0.51334-0.0256 0.621-0.10766 0.10766-0.18424-0.0837-0.17017-0.42525zm-115-0.78299c0-0.2673 0.12531-0.7776 0.27846-1.134 0.17551-0.40844 0.27845-0.46833 0.27845-0.162 0 0.2673-0.1253 0.7776-0.27845 1.134-0.17552 0.40844-0.27846 0.46833-0.27846 0.162zm231.01 0c0-0.2673 0.1253-0.7776 0.27845-1.134 0.17552-0.40844 0.27846-0.46833 0.27846-0.162 0 0.2673-0.12531 0.7776-0.27846 1.134-0.17551 0.40844-0.27845 0.46833-0.27845 0.162zm-72.916-1.3254c-0.21911-0.73129-0.33873-1.3893-0.26583-1.4622s0.31181 0.46579 0.53091 1.1971 0.33872 1.3893 0.26583 1.4622c-0.0729 0.0729-0.31181-0.46579-0.53091-1.1971zm73.891-1.9145c0-0.26729 0.19651-0.99629 0.4367-1.62 0.24018-0.62369 0.43669-0.91529 0.43669-0.64799 0 0.26729-0.19651 0.99629-0.43669 1.62-0.24019 0.62369-0.4367 0.91529-0.4367 0.64799zm-75.356-2.7771c-0.11917-0.47483-0.15419-0.9258-0.0778-1.0022 0.0764-0.0764 0.23636 0.24964 0.35553 0.72446 0.11918 0.47483 0.1542 0.9258 0.0778 1.0022-0.0764 0.0764-0.23636-0.24964-0.35553-0.72446zm98.667-1.2066c-0.40983-0.68244-0.40293-0.68935 0.15498-0.15498 0.32116 0.30761 0.51418 0.62902 0.42894 0.71426-0.0852 0.0852-0.348-0.16644-0.58392-0.55928zm43.254-3.0146c-0.31321-0.99359-0.51114-1.8648-0.43986-1.9361 0.0713-0.0713 0.38585 0.68334 0.69905 1.6769 0.31321 0.99359 0.51114 1.8648 0.43986 1.9361-0.0713 0.0713-0.38584-0.68334-0.69905-1.6769zm-207.83 0.5184c0-0.2673 0.12531-0.7776 0.27846-1.134 0.17551-0.40844 0.27845-0.46833 0.27845-0.162 0 0.2673-0.1253 0.7776-0.27845 1.134-0.17552 0.40844-0.27846 0.46833-0.27846 0.162zm-65.444-1.62c0-0.2673 0.19652-0.9963 0.4367-1.62 0.24019-0.6237 0.4367-0.9153 0.4367-0.648s-0.19651 0.99629-0.4367 1.62c-0.24018 0.6237-0.4367 0.9153-0.4367 0.648zm66.72-2.781c0.0156-0.37744 0.0923-0.45421 0.19575-0.19575 0.0936 0.23389 0.0821 0.51334-0.0256 0.621-0.10766 0.10766-0.18423-0.0837-0.17017-0.42525zm83.592 0c0.0156-0.37744 0.0923-0.45421 0.19574-0.19575 0.0936 0.23389 0.0821 0.51334-0.0256 0.621-0.10766 0.10766-0.18424-0.0837-0.17017-0.42525zm121.66-0.32014c-0.11917-0.47482-0.15419-0.9258-0.0778-1.0022 0.0764-0.0764 0.23639 0.24963 0.35556 0.72446 0.11916 0.47482 0.15419 0.9258 0.0778 1.0022-0.0764 0.0764-0.23639-0.24964-0.35555-0.72446zm-122.8-3.2398c-0.11918-0.47483-0.1542-0.9258-0.0778-1.0022 0.0764-0.0764 0.23636 0.24964 0.35553 0.72446 0.11917 0.47483 0.15419 0.9258 0.0778 1.0022-0.0764 0.0764-0.23636-0.24964-0.35553-0.72446zm141.26-6.156c-0.11917-0.47482-0.15419-0.9258-0.0778-1.0022 0.0764-0.0764 0.23639 0.24963 0.35556 0.72446 0.11917 0.47482 0.15419 0.9258 0.0778 1.0022-0.0764 0.0764-0.23638-0.24964-0.35555-0.72446zm-307.93-0.78685c0-0.2673 0.269-1.215 0.59777-2.106 0.32878-0.891 0.59778-1.4013 0.59778-1.134 0 0.2673-0.269 1.215-0.59778 2.106-0.32877 0.891-0.59777 1.4013-0.59777 1.134zm306.8-3.105c0.0156-0.37744 0.0923-0.45421 0.19576-0.19575 0.0936 0.23389 0.0821 0.51334-0.0256 0.621-0.10767 0.10766-0.18426-0.0837-0.1702-0.42525zm-74.819-0.135c0-0.26729 0.269-1.215 0.59777-2.106 0.32878-0.89099 0.59778-1.4013 0.59778-1.134s-0.269 1.215-0.59778 2.106c-0.32877 0.89099-0.59777 1.4013-0.59777 1.134zm-65.796-0.83699c0.0156-0.37744 0.0923-0.45421 0.19574-0.19575 0.0936 0.23388 0.0821 0.51333-0.0256 0.621-0.10766 0.10766-0.18424-0.0837-0.17017-0.42525zm-25.103-1.9494c-0.3132-0.99359-0.51114-1.8648-0.43986-1.9361 0.0713-0.0713 0.38586 0.68334 0.69906 1.6769s0.51114 1.8648 0.43986 1.9361c-0.0713 0.0713-0.38586-0.68334-0.69906-1.6769zm25.775-0.1296c0-0.2673 0.19652-0.9963 0.4367-1.62 0.24018-0.6237 0.4367-0.9153 0.4367-0.648s-0.19652 0.9963-0.4367 1.62c-0.24018 0.6237-0.4367 0.9153-0.4367 0.648zm115.97-4.725c0.0155-0.37745 0.0923-0.45422 0.19574-0.19576 0.0936 0.23389 0.0821 0.51334-0.0256 0.621-0.10766 0.10766-0.18424-0.0837-0.17017-0.42524zm-191.13-2.079c0-0.26729 0.269-1.215 0.59778-2.106 0.32878-0.891 0.59777-1.4013 0.59777-1.134s-0.26899 1.215-0.59777 2.106c-0.32878 0.891-0.59778 1.4013-0.59778 1.134zm-65.773-0.64799c0-0.2673 0.19651-0.9963 0.4367-1.62 0.24018-0.6237 0.4367-0.9153 0.4367-0.648s-0.19652 0.9963-0.4367 1.62c-0.24019 0.6237-0.4367 0.9153-0.4367 0.648zm255.61-1.3254c-0.2191-0.73129-0.33872-1.3893-0.26582-1.4622s0.31181 0.46579 0.53091 1.1971 0.33872 1.3893 0.26582 1.4622-0.31181-0.46579-0.53091-1.1971zm-254.67-2.1035c0.0156-0.37744 0.0923-0.45422 0.19575-0.19575 0.0936 0.23388 0.0821 0.51333-0.0256 0.621-0.10767 0.10766-0.18424-0.0837-0.17017-0.42525zm231.46-0.80456c-0.11746-0.19005-0.14408-0.41504-0.0591-0.49997 0.0849-0.0849 0.24075 0.0706 0.34627 0.34556 0.21908 0.57092 0.0323 0.67134-0.28712 0.15441zm0.2009-1.4634c0.0155-0.37744 0.0923-0.45421 0.19574-0.19575 0.0936 0.23388 0.0821 0.51333-0.0256 0.621-0.10766 0.10766-0.18424-0.0837-0.17017-0.42525zm-142.22-3.051c0-0.26729 0.1253-0.77759 0.27845-1.134 0.17552-0.40844 0.27845-0.46833 0.27845-0.162 0 0.2673-0.1253 0.7776-0.27845 1.134-0.17552 0.40844-0.27845 0.46833-0.27845 0.16199zm183.69-2.133c0.0155-0.37745 0.0923-0.45422 0.19576-0.19575 0.0936 0.23388 0.0821 0.51333-0.0256 0.62099-0.10766 0.10767-0.18425-0.0837-0.17019-0.42524zm-182.39-2.079c0-0.2673 0.1253-0.7776 0.27845-1.134 0.17552-0.40844 0.27846-0.46833 0.27846-0.162 0 0.2673-0.12531 0.7776-0.27846 1.134-0.17551 0.40844-0.27845 0.46833-0.27845 0.162zm-109.18-0.324c0-0.2673 0.19652-0.9963 0.4367-1.62 0.24018-0.6237 0.4367-0.9153 0.4367-0.648s-0.19652 0.9963-0.4367 1.62c-0.24018 0.6237-0.4367 0.9153-0.4367 0.648zm290.44-1.1571c-0.11917-0.47482-0.15419-0.9258-0.0778-1.0022 0.0764-0.0764 0.23639 0.24964 0.35556 0.72446 0.11916 0.47482 0.15419 0.9258 0.0778 1.0022-0.0764 0.0764-0.23639-0.24964-0.35555-0.72446zm-59.104 0.18514c0-0.2673 0.19651-0.99629 0.43669-1.62 0.24019-0.62369 0.4367-0.91529 0.4367-0.64799 0 0.26729-0.19651 0.99629-0.4367 1.62-0.24018 0.62369-0.43669 0.91529-0.43669 0.64799zm-106.62-3.2694c-0.2191-0.7313-0.33872-1.3893-0.26582-1.4622s0.3118 0.46578 0.53091 1.1971c0.2191 0.73129 0.33872 1.3893 0.26582 1.4622s-0.31181-0.46579-0.53091-1.1971zm41.468 0.16445c0.0155-0.37744 0.0923-0.45421 0.19575-0.19575 0.0936 0.23389 0.0821 0.51333-0.0256 0.621-0.10766 0.10766-0.18423-0.0837-0.17017-0.42525zm-164.9-0.135c0-0.2673 0.1253-0.7776 0.27845-1.134 0.17552-0.40845 0.27846-0.46834 0.27846-0.162 0 0.2673-0.12531 0.77759-0.27846 1.134-0.17551 0.40845-0.27845 0.46833-0.27845 0.162zm231.34-0.97199c0-0.2673 0.19651-0.9963 0.4367-1.62 0.24018-0.62369 0.4367-0.91529 0.4367-0.64799s-0.19652 0.99629-0.4367 1.62c-0.24019 0.6237-0.4367 0.91529-0.4367 0.648zm-65.451-1.944c0-0.2673 0.1253-0.7776 0.27845-1.134 0.17552-0.40844 0.27846-0.46833 0.27846-0.162 0 0.2673-0.1253 0.7776-0.27846 1.134-0.17551 0.40844-0.27845 0.46833-0.27845 0.162zm-22.077-0.77534c0-0.07 0.22627-0.21416 0.50283-0.32028 0.28833-0.11065 0.41838-0.0563 0.30488 0.12733-0.19028 0.30787-0.80771 0.45536-0.80771 0.19295zm-54.057-2.7886c0-0.26729 0.269-1.215 0.59778-2.106 0.32877-0.891 0.59777-1.4013 0.59777-1.134s-0.269 1.215-0.59777 2.106c-0.32878 0.891-0.59778 1.4013-0.59778 1.134zm-65.794-0.80999c0.0337-0.61373 0.57373-1.6472 0.59253-1.134 0.01 0.2673-0.12352 0.7047-0.29626 0.972-0.17275 0.2673-0.30606 0.3402-0.29627 0.162zm240.4-0.351c0.0156-0.37744 0.0923-0.45421 0.19575-0.19575 0.0936 0.23389 0.0821 0.51334-0.0256 0.621-0.10766 0.10766-0.18424-0.0837-0.17017-0.42525zm-239.74-1.755c0-0.2673 0.19652-0.99629 0.4367-1.62 0.24019-0.6237 0.4367-0.9153 0.4367-0.648s-0.19651 0.9963-0.4367 1.62c-0.24018 0.6237-0.4367 0.9153-0.4367 0.648zm116.3-3.2741c-0.40517-1.258-0.67912-2.3449-0.60878-2.4152 0.0703-0.0703 0.4594 0.9014 0.86457 2.1594 0.40517 1.258 0.67913 2.3449 0.60879 2.4152-0.0704 0.0703-0.4594-0.9014-0.86458-2.1594zm115.03 1.9781c0-0.2673 0.19651-0.9963 0.4367-1.62 0.24018-0.6237 0.43669-0.9153 0.43669-0.648s-0.19651 0.99629-0.43669 1.62c-0.24019 0.6237-0.4367 0.9153-0.4367 0.648zm7.1042-1.161c0.0155-0.37744 0.0923-0.45421 0.19575-0.19575 0.0936 0.23389 0.0821 0.51334-0.0256 0.621-0.10766 0.10766-0.18423-0.0837-0.17017-0.42525zm-115-2.727c0-0.2673 0.19652-0.9963 0.4367-1.62 0.24018-0.6237 0.4367-0.9153 0.4367-0.648s-0.19652 0.99629-0.4367 1.62-0.4367 0.9153-0.4367 0.648zm109.16-0.513c0.0155-0.37744 0.0923-0.45421 0.19575-0.19575 0.0936 0.23389 0.0821 0.51333-0.0256 0.621-0.10767 0.10766-0.18424-0.0837-0.17017-0.42525zm-142.54-2.079c0-0.2673 0.19651-0.99629 0.4367-1.62 0.24018-0.6237 0.43669-0.9153 0.43669-0.648s-0.19651 0.9963-0.43669 1.62c-0.24019 0.6237-0.4367 0.9153-0.4367 0.648zm167.16-3.105c0.0155-0.37744 0.0923-0.45422 0.19576-0.19575 0.0936 0.23388 0.0821 0.51333-0.0256 0.621-0.10767 0.10766-0.18426-0.0837-0.1702-0.42525zm-165.89-1.0069c-0.037-0.55756 0.53641-0.82539 0.81209-0.37934 0.13974 0.2261 0.0945 0.29286-0.11194 0.16527-0.19051-0.11775-0.42023-0.0309-0.51048 0.19293-0.11745 0.29132-0.17136 0.29733-0.18967 0.0211zm165.24-1.1016c-0.21909-0.73129-0.33871-1.3893-0.26581-1.4622s0.31178 0.46579 0.5309 1.1971c0.21909 0.7313 0.33871 1.3893 0.26581 1.4622-0.0729 0.0729-0.31178-0.46578-0.5309-1.1971zm-108.85-1.2665c0-0.2673 0.1253-0.7776 0.27845-1.134 0.17552-0.40844 0.27845-0.46833 0.27845-0.162 0 0.2673-0.1253 0.7776-0.27845 1.134-0.17552 0.40844-0.27845 0.46833-0.27845 0.162zm-164.59-0.972c0-0.2673 0.19652-0.99629 0.4367-1.62 0.24019-0.6237 0.4367-0.9153 0.4367-0.648s-0.19651 0.9963-0.4367 1.62c-0.24018 0.6237-0.4367 0.9153-0.4367 0.648zm231.01 0c0-0.2673 0.19651-0.99629 0.4367-1.62 0.24018-0.6237 0.4367-0.9153 0.4367-0.648s-0.19652 0.9963-0.4367 1.62c-0.24019 0.6237-0.4367 0.9153-0.4367 0.648zm41.448-1.161c0.0156-0.37744 0.0923-0.45422 0.19576-0.19575 0.0936 0.23388 0.0821 0.51333-0.0256 0.62099-0.10767 0.10767-0.18426-0.0837-0.1702-0.42524zm-106.9-1.107c0-0.2673 0.19651-0.99629 0.43669-1.62 0.24019-0.6237 0.4367-0.91529 0.4367-0.648 0 0.2673-0.19651 0.9963-0.4367 1.62-0.24018 0.62369-0.43669 0.91529-0.43669 0.64799zm66.72-2.133c0.0156-0.37744 0.0923-0.45421 0.19575-0.19575 0.0936 0.23389 0.0821 0.51334-0.0256 0.621-0.10766 0.10766-0.18424-0.0837-0.17017-0.42525zm-141.75-4.347c0.11917-0.4455 0.35179-1.0287 0.51694-1.296 0.20869-0.33776 0.2342-0.23894 0.0836 0.324-0.11917 0.4455-0.35179 1.0287-0.51694 1.296-0.20869 0.33777-0.23419 0.23895-0.0836-0.32399zm0.7962-2.106c0-0.1782 0.14134-0.5427 0.31408-0.81s0.31407-0.3402 0.31407-0.162-0.14133 0.5427-0.31407 0.81-0.31408 0.3402-0.31408 0.162zm55.728 0c0-0.1782 0.14133-0.5427 0.31407-0.81 0.17275-0.2673 0.31408-0.3402 0.31408-0.162s-0.14133 0.5427-0.31408 0.81c-0.17274 0.2673-0.31407 0.3402-0.31407 0.162zm-121.65-0.81c0.11917-0.4455 0.35179-1.0287 0.51694-1.296 0.20869-0.33777 0.23419-0.23894 0.0836 0.324-0.11917 0.44549-0.35179 1.0287-0.51694 1.296-0.20869 0.33776-0.2342 0.23894-0.0836-0.324zm99.808-0.17452c-0.31265-0.81476-0.22042-1.025 0.16152-0.36817 0.18912 0.32521 0.27559 0.65955 0.19217 0.74297-0.0834 0.0834-0.24258-0.0852-0.35369-0.3748zm23.774-3.0655c0.19074-0.3564 0.4197-0.648 0.5088-0.648s6e-3 0.2916-0.1848 0.648c-0.19073 0.3564-0.41969 0.648-0.50879 0.648s-6e-3 -0.2916 0.18479-0.648zm-142.57-1.2862c0.37683-0.5292 0.85061-1.0645 1.0528-1.1894 0.20224-0.12499-0.0405 0.308-0.53953 0.96219-1.083 1.4199-1.4912 1.6006-0.51331 0.22725zm230.69 0.51588c0-0.0673 0.25515-0.32243 0.56699-0.567 0.51389-0.40301 0.52535-0.39155 0.12233 0.12233-0.42326 0.53969-0.68932 0.71133-0.68932 0.44467zm29.119-0.44467c-0.40301-0.51388-0.39155-0.52534 0.12233-0.12233 0.31185 0.24457 0.567 0.49972 0.567 0.567 0 0.26666-0.26607 0.095-0.68933-0.44467zm-143.53-0.324c-0.40301-0.51388-0.39155-0.52534 0.12233-0.12233 0.31185 0.24457 0.567 0.49972 0.567 0.567 0 0.26666-0.26606 0.095-0.68933-0.44467zm26.933 0.44467c0-0.0673 0.25515-0.32243 0.567-0.567 0.51388-0.40301 0.52534-0.39155 0.12233 0.12233-0.42326 0.5397-0.68933 0.71133-0.68933 0.44467zm-55.404-0.324c0-0.0673 0.25515-0.32243 0.567-0.567 0.51388-0.40301 0.52534-0.39155 0.12233 0.12233-0.42326 0.5397-0.68933 0.71133-0.68933 0.44467zm144.99-1.8217c0.69602-0.7128 1.3384-1.296 1.4275-1.296s-0.40748 0.5832-1.1035 1.296c-0.69602 0.71279-1.3384 1.296-1.4275 1.296s0.40748-0.5832 1.1035-1.296zm25.416 0.081-1.1166-1.215 1.215 1.1166c1.1309 1.0393 1.364 1.3134 1.1166 1.3134-0.0541 0-0.60089-0.54675-1.215-1.215zm-69.804-0.081c0.32254-0.3564 0.65933-0.648 0.74843-0.648s-0.10189 0.2916-0.42443 0.648c-0.32254 0.35639-0.65933 0.64799-0.74843 0.64799s0.10189-0.2916 0.42443-0.64799zm-98.009-0.77033c0-0.0673 0.25515-0.32243 0.567-0.56699 0.51388-0.40302 0.52534-0.39156 0.12233 0.12232-0.42326 0.5397-0.68933 0.71133-0.68933 0.44467zm22.963-0.44467c-0.40301-0.51388-0.39155-0.52534 0.12233-0.12232 0.31185 0.24456 0.567 0.49971 0.567 0.56699 0 0.26666-0.26607 0.095-0.68933-0.44467zm32.765 0.44467c0-0.0673 0.25514-0.32243 0.56699-0.56699 0.51388-0.40302 0.52534-0.39156 0.12233 0.12232-0.42326 0.5397-0.68932 0.71133-0.68932 0.44467zm21.222-1.4977c0.8776-0.891 1.6685-1.62 1.7576-1.62s-0.55604 0.72899-1.4336 1.62c-0.8776 0.89099-1.6685 1.62-1.7576 1.62s0.55604-0.729 1.4336-1.62zm-142.72-0.81c0.41852-0.4455 0.83385-0.80999 0.92295-0.80999s-0.18043 0.36449-0.59895 0.80999c-0.41853 0.4455-0.83385 0.81-0.92295 0.81s0.18042-0.3645 0.59895-0.81zm71.543-0.70732c0.23389-0.0936 0.51334-0.0821 0.621 0.0256 0.10766 0.10766-0.0837 0.18423-0.42525 0.17017-0.37744-0.0155-0.45421-0.0923-0.19575-0.19575zm11.664 0c0.23388-0.0936 0.51334-0.0821 0.621 0.0256 0.10766 0.10766-0.0837 0.18423-0.42525 0.17017-0.37744-0.0155-0.45421-0.0923-0.19575-0.19575zm45.508-3e-3c0.31524-0.0821 0.75264-0.0768 0.972 0.012 0.21935 0.0888-0.0386 0.15596-0.57316 0.14936-0.5346-7e-3 -0.71408-0.0792-0.39884-0.16136zm86.36 3e-3c0.23388-0.0936 0.51334-0.0821 0.621 0.0256 0.10766 0.10766-0.0837 0.18423-0.42525 0.17017-0.37744-0.0155-0.45421-0.0923-0.19575-0.19575zm11.34 0c0.23388-0.0936 0.51334-0.0821 0.621 0.0256 0.10766 0.10766-0.0837 0.18423-0.42525 0.17017-0.37744-0.0155-0.45421-0.0923-0.19575-0.19575zm-241.07-0.31725c0.22275-0.0899 0.58724-0.0899 0.80999 0s0.0405 0.16342-0.40499 0.16342c-0.4455 0-0.62775-0.0735-0.405-0.16342zm9.234-0.0236c0.84644-0.0667 2.2315-0.0667 3.078 0 0.84645 0.0667 0.1539 0.12136-1.539 0.12136s-2.3854-0.0546-1.539-0.12136zm48.606 0.0136c0.31524-0.0822 0.75263-0.0768 0.97199 0.012s-0.0386 0.15597-0.57316 0.14936c-0.5346-7e-3 -0.71407-0.0792-0.39883-0.16136zm129.59 1e-3c0.31185-0.0815 0.82215-0.0815 1.134 0s0.0567 0.14817-0.567 0.14817-0.87884-0.0667-0.567-0.14817zm46.818-0.0155c0.93554-0.0654 2.4664-0.0654 3.402 0 0.93554 0.0654 0.1701 0.119-1.701 0.119s-2.6365-0.0536-1.701-0.119z" fill="#8c8c8c"/>
 </g>
 <g transform="matrix(1.025 0 0 1.025 334.37 191.85)" stroke-width=".324">
  <path d="m-73.947 77.274c-2.7826-0.42668-6.2878-2.249-8.0096-4.164-2.6571-2.9554-4.1244-6.5587-8.3908-20.606-1.2448-4.0986-3.2576-10.587-4.473-14.418s-2.6756-8.4969-3.245-10.368-2.4677-7.9218-4.2184-13.446c-1.7507-5.5242-3.5736-11.356-4.0509-12.96-0.47728-1.6038-2.4685-7.9461-4.4249-14.094-1.9564-6.1479-4.2889-13.483-5.1834-16.301s-1.7785-5.0718-1.9645-5.0098c-0.34401 0.11467-2.3799 6.0745-4.1807 12.238-0.54664 1.8711-2.2274 7.1928-3.7351 11.826-1.5076 4.6332-2.8263 9.0273-2.9304 9.7646-0.15639 1.1083 0.23684 2.6243 2.2692 8.748 1.3521 4.074 3.1779 9.813 4.0572 12.753 0.87936 2.9403 3.0674 9.9386 4.8623 15.552 1.7949 5.6133 4.6675 14.653 6.3837 20.088 3.6362 11.516 5.4357 15.657 7.9678 18.334l1.7183 1.8168-8.9058-0.11253c-8.6467-0.10926-8.952-0.13529-10.495-0.89486-1.9428-0.95622-5.6362-4.3828-6.9474-6.4454-0.88955-1.3993-4.18-10.963-8.3267-24.2-0.83731-2.673-1.8415-5.8715-2.2316-7.1077-0.39008-1.2363-0.8621-2.2987-1.0489-2.361-0.18683-0.0623-0.67443 0.6576-1.0836 1.5997-0.74238 1.7096-6.7982 20.238-6.7982 20.8 0 0.31975-4.5638 14.688-5.3866 16.958l-0.49898 1.377h-10.503c-7.5749 0-10.503-0.1018-10.503-0.36514 0-0.50847 3.3731-11.451 6.6289-21.505 1.5004-4.6332 3.3302-10.392 4.0663-12.798s2.781-8.8938 4.5443-14.418c1.7633-5.5242 3.9316-12.463 4.8183-15.419 0.88674-2.9561 2.6528-8.5694 3.9245-12.474 1.2717-3.9046 3.0855-9.6507 4.0307-12.769 0.94515-3.1185 3.2753-10.554 5.1782-16.524 6.7048-21.035 9.9567-31.298 10.882-34.344 0.51407-1.6929 2.6814-8.5455 4.8163-15.228 2.1349-6.6825 4.0565-12.806 4.2703-13.608 1.0786-4.0463 5.5099-17.615 7.9984-24.492 2.2356-6.1777 7.0528-10.492 12.319-11.033 1.1193-0.11498 2.112-0.33362 2.2061-0.48586 0.22356-0.36173 4.9928-0.36139 4.9928 3.6e-4 0 0.15243 0.96197 0.36697 2.1377 0.47677 3.8356 0.35817 7.5835 2.6618 9.9642 6.1243 2.0116 2.9257 5.2063 11.378 8.1459 21.551 2.0737 7.1765 4.7703 15.311 5.0756 15.311 0.14511 0 0.47608-0.50796 0.73548-1.1288 0.7654-1.8318 3.9978-11.815 4.5652-14.099 1.573-6.3325 5.428-17.003 7.3732-20.409 2.2549-3.9481 6.0712-6.5722 10.371-7.1307 1.2858-0.16705 5.3789-0.30822 9.0957-0.31372l6.7579-0.01-1.7643 1.9056c-2.9704 3.2084-5.5287 9.0358-8.3378 18.992-0.40222 1.4256-2.1607 7.1118-3.9078 12.636-1.747 5.5242-3.5656 11.356-4.0412 12.96-0.4756 1.6038-2.4442 7.8732-4.3747 13.932-4.7407 14.879-5.184 16.411-5.184 17.924 0 1.4079 1.0406 4.9767 5.4964 18.85 1.5739 4.9005 3.264 10.259 3.7557 11.907 0.53701 1.8002 1.0636 2.997 1.3186 2.997 0.48994 0 2.6887-6.7196 12.828-39.204 1.2515-4.0095 4.0646-12.976 6.2513-19.926 2.1868-6.9498 4.4877-14.313 5.1133-16.362 4.0391-13.231 8.1787-25.779 9.1789-27.823 1.501-3.0674 4.788-6.4949 7.3563-7.6707 1.1743-0.53763 2.8214-0.93716 4.6617-1.1308 3.5711-0.37574 15.224-0.4046 15.45-0.0383 0.0927 0.14996-0.35002 0.76961-0.9838 1.377-3.4751 3.3304-5.5073 7.9719-9.9879 22.812-1.9839 6.5709-5.0727 16.399-11.252 35.802-1.6173 5.0787-4.0668 12.879-5.4433 17.334s-3.8189 12.255-5.4276 17.334c-1.6087 5.0787-4.8433 15.358-7.188 22.842-7.8154 24.946-8.8412 28.181-9.2555 29.189-0.37582 0.91369-0.24861 1.5201 1.4612 6.966 1.0301 3.2808 2.4201 7.7876 3.089 10.015 1.6074 5.3534 5.8525 18.127 6.1096 18.384 0.41208 0.41207 0.81737-0.49757 1.9837-4.4521 0.65694-2.2275 2.6268-8.4968 4.3776-13.932 1.7507-5.4351 3.5692-11.194 4.0411-12.798s2.5137-8.0919 4.5373-14.418c2.0236-6.3261 3.9213-12.377 4.217-13.446 0.29567-1.0692 1.9723-6.3909 3.7258-11.826 1.7535-5.4351 3.5746-11.194 4.0467-12.798 0.47216-1.6038 2.1459-6.9255 3.7195-11.826s3.3942-10.66 4.0457-12.798c0.65158-2.1384 2.2801-7.3143 3.619-11.502 1.3389-4.1877 3.2461-10.238 4.2383-13.446s3.6145-11.591 5.8273-18.63c2.2128-7.0389 4.311-13.746 4.6626-14.904 0.3516-1.1583 1.3697-3.6114 2.2624-5.4514 1.3116-2.7033 2.0705-3.7981 3.9544-5.7037 3.3555-3.3942 4.6081-3.8265 11.596-4.0015 4.1938-0.10503 5.817-0.0218 7.3794 0.37849 3.6056 0.92371 6.9119 3.6354 9.0964 7.4603 1.4318 2.5071 3.6607 8.5342 5.4735 14.801 0.89715 3.1014 2.6532 8.7735 3.9023 12.605s3.015 9.4446 3.9243 12.474c0.90923 3.0294 2.7505 8.8614 4.0917 12.96 1.3412 4.0986 3.1597 9.8576 4.041 12.798 0.88134 2.9403 3.0497 9.8658 4.8187 15.39 3.6027 11.251 8.0274 25.244 10.45 33.048 1.8677 6.0168 7.8523 24.939 12.604 39.852 1.8169 5.7024 3.8747 12.263 4.5729 14.58 1.9466 6.4589 8.0093 25.403 8.6839 27.135l0.59956 1.539h-21.593l-0.34762-0.891c-0.19122-0.49005-0.73262-2.2032-1.2032-3.807-1.5407-5.2514-3.6078-11.873-5.8074-18.602-1.1891-3.6378-2.649-8.3034-3.2444-10.368s-2.6041-8.4923-4.4639-14.284c-1.8598-5.7915-3.7063-11.623-4.1034-12.96-0.39706-1.3365-2.1842-6.9444-3.9714-12.462-1.7872-5.5177-3.5219-11.058-3.8549-12.312-0.33297-1.2539-1.9294-6.3622-3.5476-11.352-1.6182-4.9896-3.318-10.311-3.7773-11.826-0.4593-1.5147-2.209-7.0551-3.8882-12.312-1.6792-5.2569-3.5674-11.235-4.1961-13.284-0.62873-2.0493-2.5307-8.1-4.2265-13.446-1.6959-5.346-3.6622-11.615-4.3695-13.932-3.0365-9.9441-5.817-18.306-6.0871-18.306-0.40423 0-1.3572 2.6539-3.2931 9.1713-0.9101 3.0638-2.8685 9.2885-4.352 13.833-3.5545 10.888-3.7495 11.593-3.3888 12.253 0.33073 0.60534 6.4327 19.426 8.2493 25.444 0.63736 2.1114 2.8251 9.0368 4.8616 15.39 3.591 11.202 11.115 35.001 12 37.957 0.5496 1.8352 6.4083 20.417 11.85 37.584 8.1536 25.722 8.9578 28.353 8.7418 28.597-0.12027 0.13613-5.0112 0.20903-10.869 0.162l-10.65-0.0855-1.0955-3.564c-0.6025-1.9602-2.6773-8.5212-4.6107-14.58-5.9581-18.671-9.054-28.448-12.157-38.394-3.416-10.948-6.3496-20.208-12.009-37.908-2.1937-6.8607-4.1594-13.162-4.3682-14.003-0.77505-3.121-0.99361-2.7732-3.964 6.3088-1.5298 4.6774-3.5856 11.202-4.5684 14.498-0.9828 3.2967-2.0858 6.8551-2.4511 7.9077-0.96331 2.7756-0.84339 4.0134 0.91319 9.4259 0.86755 2.6732 1.8227 5.7351 2.1225 6.8043 0.29985 1.0692 2.2324 7.2657 4.2945 13.77 6.7423 21.266 11.716 36.993 13.548 42.84 0.98965 3.1584 1.8847 5.9651 1.9891 6.237 0.16771 0.43703-1.0521 0.49439-10.515 0.49439h-10.705l-0.21026-0.729c-0.11564-0.40095-0.991-3.1347-1.9452-6.075-0.95424-2.9403-2.6883-8.4806-3.8535-12.312-4.1881-13.771-6.8329-21.537-7.3695-21.64-0.38642-0.0744-0.71944 0.59674-1.3655 2.752-5.1902 17.314-9.3556 29.534-10.902 31.982-1.4743 2.3345-3.5461 4.3776-5.3885 5.314-1.6127 0.81964-6.7387 1.622-8.2229 1.287-0.61832-0.13952-2.2906-0.16961-3.7162-0.0669-3.2848 0.23674-6.6628-0.3066-8.6582-1.3926-2.1481-1.1692-4.5169-3.7784-5.8462-6.4397-1.0465-2.095-4.8518-13.158-6.3974-18.6-0.37964-1.3365-2.1925-7.0956-4.0285-12.798-1.8361-5.7024-4.0689-12.774-4.9618-15.714-0.89292-2.9403-2.6108-8.3348-3.8174-11.988-1.2066-3.6531-2.6092-8.1-3.1167-9.882-0.86488-3.0364-2.763-9.0498-12.119-38.394-2.0739-6.5043-4.3311-13.721-5.0162-16.038-0.68504-2.3166-2.5071-8.0756-4.0489-12.798-1.5419-4.7223-3.3614-10.481-4.0433-12.798-2.1707-7.3735-7.7152-23.978-7.9875-23.921-0.14426 0.0304-0.59441 1.1239-1.0003 2.43-0.40591 1.3061-2.4816 7.8948-4.6127 14.642-2.1311 6.7468-4.1767 13.386-4.5459 14.755l-0.67124 2.4876 0.97847 2.6538c0.53816 1.4596 1.2106 3.568 1.4944 4.6853 0.28376 1.1174 2.171 7.2074 4.1938 13.534 2.0228 6.3261 4.0646 12.814 4.5372 14.418 0.47259 1.6038 2.0794 6.7068 3.5706 11.34 1.4913 4.6332 3.4605 10.903 4.3761 13.932 0.9156 3.0294 2.7355 8.8613 4.0443 12.96 1.3088 4.0986 3.1304 9.9305 4.048 12.96 0.91765 3.0294 3.1043 10.028 4.8593 15.552 1.755 5.5242 3.93 12.45 4.8335 15.39 6.2912 20.475 7.9248 24.475 11.244 27.535 0.81151 0.74803 1.4279 1.4041 1.3698 1.4579-0.29611 0.27424-14.958 0.40783-16.63 0.15152zm-178.31-0.55575c-7.9104-0.0667-10.121-0.17423-9.9916-0.486 1.032-2.485 1.9722-5.2513 5.0362-14.818 1.969-6.1479 3.7461-11.834 3.9491-12.636 0.203-0.80189 1.7213-5.6133 3.374-10.692 1.6527-5.0787 3.4826-10.838 4.0664-12.798s2.5624-8.3025 4.3968-14.094c1.8344-5.7915 3.725-11.842 4.2013-13.446 0.47632-1.6038 2.1056-6.7797 3.6206-11.502 1.515-4.7223 3.5484-11.21 4.5187-14.418 0.9703-3.2076 3.2051-10.279 4.9663-15.714 1.7612-5.4351 3.5147-10.975 3.8967-12.312 0.38199-1.3365 2.2026-7.1685 4.0459-12.96s3.604-11.405 3.9128-12.474c0.30881-1.0692 2.3657-7.6302 4.5708-14.58 2.2051-6.9498 4.5952-14.499 5.3113-16.776 0.71611-2.2769 1.7891-5.0744 2.3844-6.2166 3.1838-6.1081 7.4281-9.2455 12.508-9.2455 0.70403 0 1.28-0.1458 1.28-0.324 0-0.42618 4.7586-0.42618 5.022 0 0.1162 0.18801 1.8983 0.324 4.2458 0.324h4.0456l-1.6415 2.025c-2.3641 2.9165-4.2624 6.8387-5.998 12.393-0.83526 2.673-2.8076 8.8694-4.3831 13.77-1.5754 4.9005-3.1761 10.003-3.557 11.34-0.57157 2.0052-4.9782 15.873-6.6622 20.966-0.24808 0.75029-0.95093 3.0831-1.5619 5.184-0.61095 2.1009-2.4484 7.9751-4.0832 13.054-1.6348 5.0787-3.4577 10.911-4.0508 12.96s-2.7531 8.9748-4.7998 15.39c-8.159 25.573-11.287 35.481-12.326 39.042-0.5979 2.0493-2.3611 7.6626-3.9181 12.474s-3.3353 10.498-3.9517 12.636c-0.61636 2.1384-2.4865 8.1162-4.1559 13.284-2.9725 9.2017-5.6138 17.757-5.9238 19.187-0.18161 0.83798-0.63695 1.2597-1.5421 1.4282-0.3564 0.0664-5.219 0.0821-10.806 0.035zm33.972-0.26712c0-0.28313 1.0782-3.8917 2.3961-8.019 1.3178-4.1273 3.9324-12.316 5.81-18.196 1.8777-5.8806 3.9502-12.442 4.6056-14.58 0.6554-2.1384 2.5523-8.1162 4.2153-13.284 1.663-5.1678 3.6017-11.291 4.3082-13.608 0.70646-2.3166 2.7666-8.8776 4.578-14.58 1.8114-5.7024 5.1856-16.346 7.498-23.652 2.3125-7.3062 5.6742-17.877 7.4706-23.49 1.7964-5.6133 3.7719-11.883 4.39-13.932 0.61816-2.0493 2.4825-7.9542 4.143-13.122s3.5557-11.146 4.2116-13.284c3.631-11.837 7.8461-24.299 8.9864-26.568 1.5507-3.0852 4.456-6.1194 7.0965-7.4112 2.3049-1.1277 6.8936-1.9201 9.8244-1.6966 1.2517 0.0955 3.1461 0.16843 4.2098 0.16214 1.0637-6e-3 2.7805 0.0868 3.8151 0.20691l1.8811 0.21832-1.0795 1.1949c-2.8442 3.1482-5.0113 7.3995-6.8723 13.482-0.65431 2.1384-2.792 8.918-4.7505 15.066-1.9585 6.1479-3.6856 11.615-3.8381 12.15-0.15246 0.53459-1.7346 5.5647-3.5158 11.178s-4.0619 12.903-5.0681 16.2-2.9037 9.3474-4.2167 13.446c-1.313 4.0986-3.1355 9.9306-4.0501 12.96-0.91458 3.0294-3.0298 9.7362-4.7004 14.904-1.6706 5.1678-3.3947 10.635-3.8313 12.15-0.43658 1.5147-2.0431 6.6177-3.57 11.34-1.5269 4.7223-3.928 12.304-5.3357 16.848-4.3266 13.966-8.079 25.953-11.411 36.45-1.7533 5.5242-3.6532 11.648-4.2222 13.608-0.56893 1.9602-1.1783 3.7462-1.3541 3.969-0.24415 0.3093-2.8366 0.40499-10.972 0.40499-9.5174 0-10.652-0.0548-10.652-0.51478z" fill="#e55a1f"/>
  <path d="m-139.92-129.01c-2.8732 0.0174-6.6381 0.74704-8.6548 1.7338-2.6405 1.2919-5.5461 4.3262-7.0968 7.4115-1.1403 2.2687-5.3556 14.731-8.9866 26.568-0.65593 2.1384-2.5512 8.1157-4.2117 13.284-1.6605 5.1678-3.5248 11.073-4.1429 13.122-0.61815 2.0493-2.5936 8.3183-4.3899 13.932-1.7964 5.6133-5.1579 16.184-7.4704 23.49-2.3125 7.3062-5.6868 17.95-7.4983 23.652-1.8114 5.7024-3.8716 12.263-4.578 14.58-0.70646 2.3166-2.6447 8.4403-4.3078 13.608-1.663 5.1678-3.5604 11.146-4.2158 13.284-0.65541 2.1384-2.7278 8.6995-4.6054 14.58-1.8777 5.8806-4.4922 14.069-5.81 18.196-1.3178 4.1273-2.3963 7.7361-2.3963 8.0192 0 0.45998 1.1352 0.5147 10.653 0.5147 8.1353 0 10.728-0.09583 10.972-0.40513 0.17582-0.22275 0.785-2.0086 1.3539-3.9688 0.56894-1.9602 2.4687-8.0839 4.222-13.608 3.3316-10.497 7.0842-22.484 11.411-36.45 1.4077-4.5441 3.8087-12.126 5.3356-16.848 1.5269-4.7223 3.1338-9.8253 3.5704-11.34 0.43657-1.5147 2.1607-6.9819 3.8313-12.15 1.6706-5.1678 3.7854-11.875 4.7-14.904 0.91458-3.0294 2.7374-8.8614 4.0504-12.96 1.313-4.0986 3.2106-10.149 4.2168-13.446 1.0062-3.2967 3.2867-10.587 5.0679-16.2 1.7812-5.6133 3.3631-10.643 3.5156-11.178 0.15247-0.5346 1.8796-6.0024 3.838-12.15 1.9585-6.1479 4.0963-12.927 4.7506-15.066 1.861-6.082 4.0283-10.333 6.8725-13.481l1.0795-1.1948-1.881-0.21859c-1.0346-0.12011-2.7516-0.21271-3.8153-0.20671s-2.9579-0.0668-4.2096-0.16227c-0.36635-0.0279-0.75898-0.0397-1.1694-0.0372zm148.56 0.24856c-0.20788-2e-4 -0.4182 0-0.62994 5.3e-4 -3.3879 8e-3 -7.1938 0.10928-8.9794 0.29714-1.8403 0.19364-3.4869 0.59306-4.6612 1.1307-2.5683 1.1758-5.8557 4.6035-7.3567 7.6709-1.0002 2.0441-5.1397 14.592-9.1788 27.823-0.62559 2.0493-2.9267 9.4121-5.1134 16.362-2.1867 6.9498-4.9999 15.917-6.2513 19.926-9.373 30.03-11.866 37.694-12.591 38.733l11.056 35.039c0.0044-0.01093 0.0037-0.0231 0.0083-0.03411 0.41432-1.0073 1.4399-4.2423 9.2553-29.189 2.3447-7.4844 5.5796-17.763 7.1882-22.842 1.6087-5.0787 4.0511-12.879 5.4276-17.334s3.8263-12.255 5.4436-17.334c6.1788-19.402 9.2672-29.231 11.251-35.802 4.4805-14.84 6.513-19.482 9.9881-22.812 0.63378-0.60738 1.0766-1.2267 0.98393-1.3767-0.10612-0.1717-2.7228-0.25641-5.841-0.25942zm-126.7 94.986c0.0422-0.06804 0.13362-0.30999 0.15864-0.31833 0.18606-0.06202 1.0698 2.1927 1.9642 5.0101 0.89444 2.8174 3.2273 10.153 5.1837 16.3 1.9564 6.1479 3.9473 12.49 4.4246 14.094 0.47729 1.6038 2.3002 7.4358 4.0509 12.96 1.7507 5.5242 3.6495 11.575 4.2189 13.446 0.56943 1.8711 2.0295 6.5366 3.2448 10.368 1.2153 3.8313 3.2283 10.319 4.4731 14.418 4.2664 14.047 5.7336 17.651 8.3908 20.606 1.7217 1.915 5.2268 3.7374 8.0094 4.1641 1.6715 0.2563 16.333 0.12282 16.63-0.15142 0.05809-0.05379-0.55844-0.70975-1.3699-1.4578-3.3191-3.0595-4.9526-7.0603-11.244-27.535-0.90345-2.9403-3.0784-9.8657-4.8333-15.39-1.755-5.5242-3.942-12.522-4.8597-15.552-0.91764-3.0294-2.7391-8.8614-4.0478-12.96-1.3088-4.0986-3.1286-9.9306-4.0442-12.96-0.9156-3.0294-2.8847-9.2989-4.376-13.932-1.4913-4.6332-3.0983-9.7362-3.5709-11.34-0.4726-1.6038-2.5144-8.0917-4.5372-14.418-2.0228-6.3261-3.9098-12.416-4.1936-13.534-0.28377-1.1174-0.95633-3.2254-1.4945-4.685l-0.97875-2.6541s-10.673 33.826-11.199 35.521zm155.03-32.755-11.595 33.2c0.38363-0.33539 0.61412 0.35472 0.94414 1.6836 0.20887 0.84106 2.1746 7.1422 4.3682 14.003 5.6593 17.699 8.5932 26.96 12.009 37.908 3.1032 9.9456 6.1988 19.723 12.157 38.394 1.9334 6.0588 4.0081 12.62 4.6106 14.58l1.0955 3.5636 10.65 0.08578c5.8575 0.04702 10.748-0.02619 10.869-0.16227 0.21601-0.2445-0.58806-2.8754-8.7416-28.597-5.4418-17.167-11.3-35.748-11.85-37.583-0.88517-2.9556-8.4099-26.755-12.001-37.957-2.0366-6.3531-4.2239-13.278-4.8612-15.39-1.5863-5.255-6.2295-19.602-7.6549-23.728z" fill="#016dc0"/>
 </g>
</svg>
