<?xml version="1.0" encoding="UTF-8"?>
<!-- Generator: Adobe Illustrator 18.0.0, SVG Export Plug-In . SVG Version: 6.00 Build 0)  -->
<svg width="640" height="400" version="1.1" viewBox="0 0 640 400" xml:space="preserve" xmlns="http://www.w3.org/2000/svg">
<path d="m402.41 222c-2.9704-2.9704-6.9202-4.6059-11.121-4.6059-4.201 0-8.1507 1.6355-11.121 4.6059l-13.657 13.657-20.03-20.03 61.379-61.376c9.9005 4.2574 20.651 6.5096 31.748 6.5096h1e-3c21.517 0 41.736-8.3934 56.927-23.631 20.735-20.8 28.472-51.247 20.19-79.46-0.48119-1.6411-1.795-2.9069-3.4516-3.3289-1.6567-0.42334-3.4149 0.06209-4.6229 1.2743l-50.623 50.777c-3.0382-1.2319-10.692-5.4329-24.857-19.555s-18.393-21.764-19.636-24.799l50.62-50.78c1.2079-1.2122 1.6863-2.9704 1.2602-4.6271-0.42758-1.6567-1.6962-2.9662-3.3402-3.4432-7.297-2.1153-14.858-3.1878-22.474-3.1878-21.518 0-41.733 8.3906-56.921 23.628-23.838 23.913-29.45 59.194-16.907 88.484l-61.405 61.404-62.849-62.849c-0.055-0.10725-0.0931-0.21731-0.15382-0.32315l-28.728-49.25c-0.49672-0.85091-1.1712-1.5805-1.9798-2.1421l-48.461-33.624c-2.6797-1.8599-6.3035-1.5325-8.6079 0.77189l-21.59 21.59c-2.3058 2.3044-2.6304 5.9296-0.77189 8.6079l33.624 48.461c0.56164 0.80858 1.2912 1.4845 2.1421 1.9798l49.251 28.728c0.10866 0.0635 0.22296 0.11007 0.33444 0.16651l62.835 62.835-47.284 47.284c-9.9005-4.2574-20.649-6.5096-31.746-6.5096-21.52 0-41.737 8.392-56.928 23.631-20.735 20.8-28.471 51.248-20.188 79.457 0.4812 1.6412 1.7936 2.9069 3.4516 3.3289 1.6567 0.42051 3.4149-0.0621 4.6229-1.2743l50.623-50.778c3.0382 1.2333 10.691 5.4371 24.854 19.556 14.168 14.124 18.396 21.764 19.637 24.799l-50.62 50.78c-1.2079 1.2122-1.6863 2.9704-1.2601 4.6271 0.42757 1.6567 1.6962 2.9662 3.3402 3.4418 7.2956 2.1167 14.856 3.1906 22.474 3.1906 21.516 0 41.731-8.392 56.919-23.629 15.158-15.206 23.488-35.404 23.456-56.876-0.0169-11.065-2.2705-21.778-6.5152-31.643l47.276-47.274 20.03 20.03-13.656 13.656c-2.9704 2.9718-4.6074 6.9216-4.6074 11.123 0 4.2024 1.6355 8.1507 4.6059 11.121l96.471 96.469c2.9704 2.9704 6.9188 4.6059 11.12 4.6059 4.201 0 8.1507-1.6355 11.123-4.6059l52.263-52.264c2.9718-2.9704 4.6088-6.9202 4.6088-11.123 0-4.2009-1.6355-8.1507-4.6059-11.121zm34.147 136.66c-3.4389 3.4404-9.0115 3.4404-12.448 0l-61.891-61.89c-3.4375-3.4361-3.4375-9.0087 0-12.448 3.4375-3.4375 9.0101-3.4375 12.448 3e-3l61.89 61.888c3.4375 3.4361 3.4389 9.0101 1e-3 12.446zm28.005-28.005c-3.4361 3.4375-9.0115 3.4375-12.448 0l-61.888-61.891c-3.4375-3.4361-3.4375-9.0101-1e-3 -12.446 3.4375-3.4375 9.0115-3.4375 12.448 0l61.89 61.891c3.4361 3.4375 3.4361 9.0101 0 12.446z" stroke-width="1.4111"/>















</svg>
