<?xml version="1.0" encoding="UTF-8"?>
<svg width="2e3" height="1250" version="1.1" viewBox="0 0 51.2 32" xmlns="http://www.w3.org/2000/svg">
 <style>.st0{fill:url(#a)}.st1{fill:url(#j)}.st2{opacity:.4;fill:url(#i);enable-background:new}.st3{fill:#fff}.st4{opacity:.4;fill:url(#h);enable-background:new}.st5{fill:#565f64}.st6{fill:url(#g)}.st7{fill:#a4aaae;fill-opacity:.6}.st8{fill:#333e46}.st9{fill:url(#f)}.st10{fill:url(#e);fill-opacity:.8}.st11{opacity:.8;fill:url(#d);enable-background:new}.st12{fill:url(#c)}.st13{fill:url(#b)}.st14{fill:url(#o)}.st15{fill:url(#n)}.st16{fill:url(#m)}.st17{fill:url(#l)}.st18{fill:url(#k)}.st19{fill:#fbfbfb}.st20{fill:#333f47}</style>
 <linearGradient id="a" x1="7.998" x2="56.002" y1="54.102" y2="13.898" gradientTransform="matrix(1,0,0,-1,0,66)" gradientUnits="userSpaceOnUse">
  <stop stop-color="#fff" offset="0"/>
  <stop stop-color="#e7e8e6" offset=".1"/>
  <stop stop-color="#cdd0d0" offset=".1"/>
  <stop stop-color="#b5bbbd" offset=".2"/>
  <stop stop-color="#a5acaf" offset=".2"/>
  <stop stop-color="#9ba3a7" offset=".3"/>
  <stop stop-color="#98a0a4" offset=".3"/>
  <stop stop-color="#828a8f" offset=".4"/>
  <stop stop-color="#667075" offset=".5"/>
  <stop stop-color="#535c63" offset=".6"/>
  <stop stop-color="#475158" offset=".7"/>
  <stop stop-color="#434d54" offset=".8"/>
  <stop stop-color="#475157" offset="1"/>
 </linearGradient>
 <linearGradient id="j" x1="9.471" x2="54.471" y1="52.941" y2="15.141" gradientTransform="matrix(1,0,0,-1,0,66)" gradientUnits="userSpaceOnUse">
  <stop stop-color="#0b1f2a" offset="0"/>
  <stop stop-color="#333f47" offset=".2"/>
  <stop stop-color="#777f84" offset=".5"/>
  <stop stop-color="#81898d" offset=".5"/>
  <stop stop-color="#b3b8b8" offset=".7"/>
  <stop stop-color="#d2d5d3" offset=".8"/>
  <stop stop-color="#dee0dd" offset=".8"/>
  <stop stop-color="#fbfbfb" offset="1"/>
 </linearGradient>
 <linearGradient id="i" x1="1648.7" x2="1670.6" y1="-160.94" y2="-221.14" gradientTransform="matrix(-1,0,0,1,1691.7,223.01)" gradientUnits="userSpaceOnUse">
  <stop stop-color="#e1e3e1" offset="0"/>
  <stop stop-color="#c1c5c4" offset=".1"/>
  <stop stop-color="#9ba1a2" offset=".3"/>
  <stop stop-color="#7d8487" offset=".5"/>
  <stop stop-color="#687074" stop-opacity="0" offset=".7"/>
  <stop stop-color="#5b6469" stop-opacity="0" offset=".8"/>
  <stop stop-color="#576065" stop-opacity="0" offset="1"/>
 </linearGradient>
 <linearGradient id="h" x1="18.201" x2="45.799" y1="57.899" y2="10.101" gradientTransform="matrix(1,0,0,-1,0,66)" gradientUnits="userSpaceOnUse">
  <stop stop-color="#e1e3e1" offset="0"/>
  <stop stop-color="#c1c5c4" offset=".1"/>
  <stop stop-color="#9ba1a2" offset=".3"/>
  <stop stop-color="#7d8487" offset=".5"/>
  <stop stop-color="#687074" stop-opacity="0" offset=".7"/>
  <stop stop-color="#5b6469" stop-opacity="0" offset=".8"/>
  <stop stop-color="#576065" stop-opacity="0" offset="1"/>
 </linearGradient>
 <linearGradient id="g" x1="44.488" x2="42.788" y1="26.607" y2="23.807" gradientTransform="matrix(1,0,0,-1,0,66)" gradientUnits="userSpaceOnUse">
  <stop stop-color="#27343c" offset="0"/>
  <stop stop-color="#00111e" stop-opacity="0" offset="1"/>
 </linearGradient>
 <linearGradient id="f" x1="39.58" x2="36.78" y1="36.888" y2="41.388" gradientTransform="matrix(1,0,0,-1,0,66)" gradientUnits="userSpaceOnUse">
  <stop stop-color="#02131f" offset=".1"/>
  <stop stop-color="#02131f" stop-opacity="0" offset=".9"/>
 </linearGradient>
 <linearGradient id="e" x1="31.982" x2="27.782" y1="29.664" y2="28.464" gradientTransform="matrix(1,0,0,-1,0,66)" gradientUnits="userSpaceOnUse">
  <stop stop-color="#02131f" offset=".2"/>
  <stop stop-color="#02131f" stop-opacity="0" offset=".9"/>
 </linearGradient>
 <linearGradient id="d" x1="20.791" x2="20.191" y1="24.096" y2="25.596" gradientTransform="matrix(1,0,0,-1,0,66)" gradientUnits="userSpaceOnUse">
  <stop stop-color="#02131f" offset="0"/>
  <stop stop-color="#02131f" offset=".1"/>
  <stop stop-color="#02131f" stop-opacity="0" offset="1"/>
 </linearGradient>
 <linearGradient id="c" x1="35.602" x2="32.202" y1="48.786" y2="48.386" gradientTransform="matrix(1,0,0,-1,0,66)" gradientUnits="userSpaceOnUse">
  <stop stop-color="#02131f" offset=".3"/>
  <stop stop-color="#02131f" stop-opacity="0" offset=".8"/>
 </linearGradient>
 <linearGradient id="b" x1="35.708" x2="33.407" y1="48.843" y2="48.543" gradientTransform="matrix(1,0,0,-1,0,66)" gradientUnits="userSpaceOnUse">
  <stop stop-color="#27343c" offset=".4"/>
  <stop stop-color="#3b474e" stop-opacity="0" offset="1"/>
 </linearGradient>
 <linearGradient id="o" x1="-.36" x2="27.54" y1="33.169" y2="17.069" gradientTransform="matrix(1,0,0,-1,0,66)" gradientUnits="userSpaceOnUse">
  <stop stop-color="#24303a" stop-opacity="0" offset="0"/>
  <stop stop-color="#25323b" stop-opacity="0" offset="0"/>
  <stop stop-color="#27343c" offset=".1"/>
 </linearGradient>
 <linearGradient id="n" x1="31.95" x2="31.95" y1="28.6" y2="33.4" gradientTransform="matrix(1,0,0,-1,0,66)" gradientUnits="userSpaceOnUse">
  <stop stop-color="#a5abaf" offset=".3"/>
  <stop stop-color="#a5abaf" stop-opacity="0" offset="1"/>
 </linearGradient>
 <linearGradient id="m" x1="47.65" x2="47.65" y1="63.7" y2="2.7" gradientTransform="matrix(1,0,0,-1,0,66)" gradientUnits="userSpaceOnUse">
  <stop stop-color="#dee0dd" offset="0"/>
  <stop stop-color="#c5c9c7" offset="0"/>
  <stop stop-color="#9ea4a5" offset="0"/>
  <stop stop-color="#82898c" offset="0"/>
  <stop stop-color="#71797d" offset="0"/>
  <stop stop-color="#6b7378" offset="0"/>
  <stop stop-color="#333f47" offset=".2"/>
  <stop stop-color="#27343c" offset=".5"/>
  <stop stop-color="#333f47" offset=".8"/>
  <stop stop-color="#434d54" offset="1"/>
 </linearGradient>
 <linearGradient id="l" x1="32" x2="32.3" y1="65.3" y2="65.3" gradientTransform="matrix(1,0,0,-1,0,66)" gradientUnits="userSpaceOnUse">
  <stop stop-color="#dee0dd" offset="0"/>
  <stop stop-color="#c5c9c7" offset="0"/>
  <stop stop-color="#9ea4a5" offset="0"/>
  <stop stop-color="#82898c" offset="0"/>
  <stop stop-color="#71797d" offset="0"/>
  <stop stop-color="#6b7378" offset="0"/>
  <stop stop-color="#333f47" offset=".2"/>
  <stop stop-color="#27343c" offset=".5"/>
  <stop stop-color="#333f47" offset=".8"/>
  <stop stop-color="#434d54" offset="1"/>
 </linearGradient>
 <linearGradient id="k" x1="57.289" x2="43.789" y1="57.907" y2="38.107" gradientTransform="matrix(1,0,0,-1,0,66)" gradientUnits="userSpaceOnUse">
  <stop stop-color="#27343c" offset=".7"/>
  <stop stop-color="#2b373f" offset=".7"/>
  <stop stop-color="#36424a" offset=".7"/>
  <stop stop-color="#49545b" offset=".7"/>
  <stop stop-color="#646d73" stop-opacity="0" offset=".8"/>
  <stop stop-color="#868d92" stop-opacity="0" offset=".8"/>
  <stop stop-color="#b0b5b8" stop-opacity="0" offset=".8"/>
  <stop stop-color="#e1e3e4" stop-opacity="0" offset=".8"/>
  <stop stop-color="#fff" stop-opacity="0" offset=".8"/>
 </linearGradient>
 <g transform="matrix(.5 0 0 .5 9.6 0)">
  <path class="st0" d="m63.3 32c0 17.3-14 31.3-31.3 31.3s-31.3-14-31.3-31.3 14-31.3 31.3-31.3 31.3 14 31.3 31.3zm-31.3-29.4c-16.3 0-29.4 13.1-29.4 29.4s13.2 29.4 29.4 29.4c16.3 0 29.4-13.2 29.4-29.4 0-16.3-13.1-29.4-29.4-29.4z" fill="url(#a)"/>
  <path class="st1" d="m32 2.6c-16.3 0-29.4 13.1-29.4 29.4s13.2 29.4 29.4 29.4c16.3 0 29.4-13.2 29.4-29.4 0-16.3-13.1-29.4-29.4-29.4zm0 56.9c-15.2 0-27.5-12.3-27.5-27.5s12.3-27.5 27.5-27.5 27.5 12.3 27.5 27.5-12.3 27.5-27.5 27.5z" fill="url(#j)"/>
  <path class="st2" d="m32 63.3c17.3 0 31.3-14 31.3-31.3s-14-31.3-31.3-31.3-31.3 14-31.3 31.3 14 31.3 31.3 31.3zm0-63.3c17.6 0 32 14.4 32 32s-14.4 32-32 32-32-14.4-32-32 14.4-32 32-32z" fill="url(#i)"/>
  <path class="st3" d="m2.2 32.1c0-16.4 13.3-29.9 29.8-29.9s29.8 13.4 29.8 29.9c0 16.4-13.3 29.7-29.8 29.7s-29.8-13.3-29.8-29.7zm9.3-20.6c-5.3 5.3-8.6 12.6-8.6 20.6s3.3 15.3 8.5 20.5c5.3 5.2 12.6 8.5 20.6 8.5s15.3-3.2 20.5-8.5c5.3-5.2 8.5-12.5 8.5-20.5s-3.3-15.3-8.5-20.6-12.5-8.6-20.5-8.6-15.3 3.3-20.5 8.6z"/>
  <path class="st4" d="m32 59.6c-7.4 0-14.3-2.9-19.5-8.1s-8.1-12.1-8.1-19.5 2.9-14.3 8.1-19.5 12.1-8.1 19.5-8.1 14.3 2.9 19.5 8.1 8.1 12.1 8.1 19.5-2.9 14.3-8.1 19.5-12.1 8.1-19.5 8.1zm0-0.8c7.1 0 13.9-2.8 18.9-7.8 5.1-5.1 7.8-11.8 7.8-18.9s-2.8-13.9-7.8-18.9c-5.1-5.1-11.8-7.8-18.9-7.8s-13.9 2.8-18.9 7.8c-5.1 4.9-7.9 11.7-7.9 18.8s2.8 13.9 7.8 18.9c5.1 5.1 11.9 7.9 19 7.9z" fill="url(#h)"/>
  <path class="st3" d="m56.3 45c-0.5-0.4-19.8-15.7-19.8-15.7l-4.5-25.7c-0.3 0.1-0.7 0.4-0.9 0.8l-3.2 25-19.9 15.3s-0.4 0.5-0.6 0.8c-0.1 0.2-0.1 0.5-0.1 0.8l24.6-10.1 24.6 10.1c0.2-0.5 0-1-0.2-1.3z"/>
  <path class="st5" d="m32.2 32.8-0.2 4.6 22.6 9.1c0.8 0.4 1.4 0.2 2-0.2l-24.1-13.6c-0.1-0.1-0.3 0-0.3 0.1z"/>
  <path class="st6" d="m32.2 32.8s1.3 2.3 2.8 3.9c2.1 2.3 4.9 3.9 4.9 3.9l14.7 5.9c0.8 0.4 1.4 0.2 2-0.2l-24.1-13.6c-0.1-0.1-0.3 0-0.3 0.1z" fill="url(#g)"/>
  <path class="st7" d="m56.5 45.4c0-0.1-0.1-0.2-0.2-0.4l-20.6-15.1-2.8 1.8s0.2 0.1 0.3 0c0.3-0.1 0.9-0.2 1.5 0 0.5 0.2 21.8 13.8 21.8 13.7z"/>
  <path class="st8" d="m55.8 44.5-19.2-15.2-0.9 0.6 20.6 15.2c-0.1-0.2-0.3-0.4-0.5-0.6z"/>
  <path class="st5" d="m32.5 31.3-0.1 0.1s0 0.2 0.2 0.1c0.1-0.1 3-1.6 4-2.2l-3.5-24c-0.1-0.9-0.5-1.3-1.2-1.6l0.4 27.8z"/>
  <path class="st7" d="m30.8 5.3v1.3l-2.2 22.1c0 0.3 0.1 0.6 0.4 0.8l1.3 1 0.9-24.4 0.1-1.9c-0.3 0.2-0.4 0.6-0.5 1.1zm-1.2 25.6-1.2-1-20.3 14.7s-0.6 0.4-0.7 0.8l0.7-0.4 21.3-13.4c0.4-0.2 0.5-0.4 0.2-0.7z"/>
  <path class="st5" d="m31.7 32.8c0-0.1-0.1-0.2-0.2-0.1l-24.2 13.7c0.6 0.4 1.2 0.5 2 0.2l22.6-9.1z"/>
  <path class="st9" d="m32.4 31.4 0.1-0.1-0.1 0.1s0 0.1 0.1 0.1h0.1c0.1-0.1 3-1.6 4-2.2l-0.4-2.9-3.1-21.1c0-0.4-0.1-0.7-0.3-0.9 0 0 1.5 20.2 1.5 22.4 0 2.9-1.9 4.6-1.9 4.6z" fill="url(#f)"/>
  <path class="st10" d="m31.7 32.8c0-0.1-0.1-0.2-0.2-0.1l-24.2 13.7c0.6 0.4 1.2 0.5 2 0.2l22.6-9.1z" fill="url(#e)"/>
  <path class="st11" d="m9.3 46.5 22.6-9.1-0.2-4.4c-0.4 1.2-1.1 2.5-3 3.5-1.4 0.8-14.8 7.4-19.6 9.7-0.3 0.2-0.7 0.3-0.9 0.4 0.4 0.2 0.7 0.1 1.1-0.1z" fill="url(#d)"/>
  <path class="st12" d="m32.5 31.3-0.1 0.1s0 0.2 0.2 0.1c0.1-0.1 3-1.6 4-2.2l-3.5-24c-0.1-0.9-0.5-1.3-1.2-1.6l0.4 27.8z" fill="url(#c)"/>
  <path class="st13" d="m32.5 31.3-0.1 0.1s0 0.2 0.2 0.1c0.1-0.1 3-1.6 4-2.2l-3.5-24c-0.1-0.9-0.5-1.3-1.2-1.6l0.4 27.8z" fill="url(#b)"/>
  <path class="st14" d="m5.1 44.4c-0.7-1.6-4.7-9.4-0.3-24.4h-1.7c-0.9 3-1.6 4.8-2 7.5 0 0-0.2 1-0.3 2.1s-0.1 1.7-0.1 2.4c0 6 1.5 9.5 1.5 9.5 1.6 5 4.4 9.5 8.2 12.9 3.3 2.9 8.4 5.1 12.6 5.9-0.7-0.1-12.7-5.2-17.9-15.9z" fill="url(#o)"/>
  <path class="st15" d="m32.4 32.6h-0.9c0.1 0 0.2 0 0.2 0.1l0.2 4.6h0.1l0.2-4.6c0-0.1 0.1-0.2 0.2-0.1z" fill="url(#n)"/>
  <path class="st16" d="m42 2.3c10.5 4 20.4 15 20.4 28.9 0 16.8-13.4 30.5-30.4 30.5v1.6c17 0 31.3-14 31.3-31.3 0-13.8-8.8-25.4-21.3-29.7z" fill="url(#m)"/>
  <path class="st17" d="m32.3 0.7h-0.3z" fill="url(#l)"/>
  <path class="st18" d="m58.8 20.2c-7-16.1-22.8-17-23.7-17.1h-0.1c12.1 2.2 19.8 10.1 22.5 18.4v0.1c1.2 3.2 1.8 6.6 1.9 10.3 0.1 3.5-0.7 7.4-2.2 11-0.1 0.5-0.2 1.1-0.3 1.1h1.6c4.8-9 2.7-18.1 0.3-23.8z" fill="url(#k)"/>
  <path class="st19" d="m2.2 32.1c0-16.4 13.3-29.9 29.8-29.9s29.8 13.4 29.8 29.9c0 16.4-13.3 29.7-29.8 29.7s-29.8-13.3-29.8-29.7zm9.3-20.6c-5.3 5.3-8.6 12.6-8.6 20.6s3.3 15.3 8.5 20.5c5.3 5.2 12.6 8.5 20.6 8.5s15.3-3.2 20.5-8.5c5.3-5.2 8.5-12.5 8.5-20.5s-3.3-15.3-8.5-20.6-12.5-8.6-20.5-8.6-15.3 3.3-20.5 8.6z"/>
  <path class="st20" d="m7.9 44.8 20.4-14.7c1.1 0.6 2.9 1.4 3.1 1.4 0.2 0.1 0.2-0.1 0.2-0.1l-2.5-2.1c-0.3-0.2-0.4-0.5-0.4-0.8l2.4-24.1c-0.1 0.1-0.1 0.3-0.2 0.4-0.1 0.2-0.1 0.3-0.1 0.5l-3.5 24.1-19.2 15.1c-0.1 0.1-0.2 0.2-0.2 0.3z"/>
 </g>
</svg>
