<?xml version="1.0" encoding="UTF-8"?>
<svg width="1440" height="720" version="1.1" viewBox="0 -.1 219 109.51" xmlns="http://www.w3.org/2000/svg">
 <g transform="matrix(1.0506 0 0 1.0506 -5.6431 4.1395)">
  <path d="m71.337 48.085c0-21.4 17.3-38.7 38.7-38.7s38.7 17.3 38.7 38.7-17.3 38.7-38.7 38.7-38.7-17.4-38.7-38.7" fill="#a29061"/>
  <path d="m78.937 25.085c0.6 0.3 1.2 0.6 1.9 1 2.9 2 4.8 3.7 9.2 7.4 1.3 1.3 2.8 3.4 3.9 4.7 2.4 3 4.1 5.1 4.4 7.6 0.7 5 1.4 7.8 3.3 12.9 0.2 0.5 1 1.2 1.5 1.8 1.2 1.5 1.7 3.9 3.9 5.2 1.2 0.7 1.4 0.8 1.8 1.1 0.6 0.5-0.4 2.3-3.5 1.9 1.6 0.8 1.4 2.6-0.9 2.7-4.5 0.2-7.3-2.4-7.9-3.1-0.3-0.3-1.2 0.9-2.8 1.5-1.6 0.8-3.8 0-5.5 0.3-1.6 0.3-3.7 1.3-5.4 1.4-3 0.1-3.4-2-3.4-3.8v-0.8c-0.3 1.1-1.4 3-1.4 3-0.4 0.9-1 2-2.1 2.4l-3.2 0.4c-2.5 1.1-5 1.9-7.6 2.8-1.5 0.3-3.2 0-4.3-0.9-0.9-0.7-1.4-1.6-1.9-2.5-0.5-0.2-1.2 0-1.8-0.2-0.5-0.1-0.8-0.5-1.1-0.8l-2.2-3.7c-0.2-0.5-0.2-1.2 0-1.7 0.4-0.8 1.3-1.2 2.2-1.2 1.6-0.1 3.4-0.6 5 0 0.7-0.8 1.8-0.7 2.8-0.9-0.4-0.6-1-0.9-1.5-1.4-2.9 0.7-6.1 0.2-8.9-0.3-2.6-0.6-4.8 0.9-7.4 0.5l-0.8 1.7c-1.2 1.3-1.3 3.5-3.1 4.4-1.3 0.3-2.3 1.2-3.4 1.8-2 1.1-4.7 0.6-6.9 0.2-0.9-0.1-1.5 0-2.3 0.3-0.7 0.5-1.5 1.3-2.3 1.9-1.3 0.5-2.4 1.6-3.8 1.7-0.8 0-1.6-0.5-2.4-0.3-1 1.1-1.5 2.9-3.1 3.4s-3.6 0.1-5.2-0.3c-0.5 0.2-0.8 0.6-1.4 0.5-1.1-0.3-2.2-0.6-3.2-1.2-0.4-0.4-0.5-0.9-0.6-1.3 0-0.7 0.6-1.3 0.9-1.9 0.1-0.7 0.1-1.7 0.4-2.4 0.5-1.1 1.6-1.8 2.7-2.3 0.1-0.8 0.6-1.5 1.3-1.9 1.3-0.7 2.7-2.3 4.4-1.4l1.8 1.5c1.6-0.7 1.2-2.3 2-3.6 0.4-0.9 0.9-1.9 1.9-1.9 0.7-0.1 1.5 0.1 2.2 0 1-0.3 2.1-0.7 2.8-1.5l-0.1-0.6c-1-1.9-1.3-4.2-1.4-6.5-1.8 0.2-3.7 0.5-5.6 0.1-2.8-0.4-5.5-2.6-6.6-5.4-1.2-2.7-0.7-6.5 1.2-8.8 1.5-1.8 3.2-3.4 5-4.8-0.6-0.2-1.3-0.1-1.9-0.3-2.6-0.4-5.2-2.7-5.8-5.3-0.4-1.7 0-3.3 0.8-4.7 0.3-0.3 0.6-0.6 1.1-0.4 1.3 0.5 1.7 1.2 2.9 1.8l0.7 0.4c3.3 1.1 7.7 1.1 9 5.2 0.8 3.2-1.2 5.6-3.5 7.4-1.8 1.3-3.6 2.9-4.5 4.8-0.4 1.4-0.2 2.8 1 3.8 1.2 1.2 3.3 1.2 4.8 0.6 2.8-1.2 5.4-3 7.9-4.9 2.4-1.8 5.3-2.5 8.4-2.6 1.4-0.3 2.6-0.9 3.7-1.8 1.9-1.8 3.9-3.3 6.3-3.9 1.1-0.2 2.2-0.3 3.3-0.4 0.9-0.4 1.5-1.5 2.2-2 3.3-2.9 7.7-2.8 11.2-5.1 2-1.5 4.2-2.5 6.8-2.4 1.2 0.1 2.3 0.3 3.3 0.7zm3.3 34c-2.2 0.1-3.6 0.6-5.1 0.8 0.1 1.4 0.9 2.6 2 4.1 0.6-2.3 2.5-3.2 3.1-4.9m56.3 0.5c1 1.5 1.6 3 2.5 4.6 0.9-1.7 1.7-3.3 2.5-4.3-0.1-0.1-2.7 0.2-5-0.3m2.1 7.4c-0.1 0.3-0.3 0.4-0.7 0.4 0.3 1.4-0.7 4-3.2 4.1-1.7 0.1-4.5-1.6-6.1-1.7-1.7-0.1-4.8 1.2-6.6-1.5-2.4 2.9-5.2 3.7-7.6 3.6-1.4 0-2.9-0.8-0.8-2.6-4.6 1.5-4.6-1.6-3.8-2.2 0.5-0.4 1.1-0.7 2.8-2.4 6.4-6.7 4-18.3 11-26 2.7-3 4.9-4.7 10.4-8.6 1.9-1.3 3.8-3.2 5.6-4.5l0.1 0.2v-0.1c1.1-0.8 2.1-1.6 3.3-1.9 2.5-0.3 4.8 0.5 6.7 1.8 1 0.7 1.8 1.5 2.6 2.5 0.6 0.6 1.5 0.6 2.3 0.9 2.3 0.4 4.3 1.3 6.2 2.5 1.3 0.8 2.4 2.2 4 2.4 1.9 0.3 3.6 0.9 5.3 1.9 2 1.3 3.8 2.9 6.2 3.3 4.8 0.5 8.8 3.2 12.6 5.9 2.2 1.3 4.8 2.8 7.5 1.9 0.8-0.3 1.4-1 1.6-1.7 0.2-1.8-0.9-3.2-2-4.5-2.3-2.7-6.3-5-5.8-8.9 0.7-2.9 3.9-4.6 6.4-5.4 1.4-0.5 3.1-0.3 4.3-1.5 0.6-0.4 0.9-1.8 1.9-1.3 0.8 0.5 0.9 1.5 1 2.4 0.4 2.8-0.2 5.6-2.8 7.2-1.2 0.8-2.5 1.1-3.9 1.4 2.1 1.7 4.2 3.8 5.4 6.2 0.7 1.4 1.1 2.6 1.2 4.2-0.1 3-1.9 5.6-4.5 7.1-1.5 0.8-3.2 1.1-5 1.1-0.7 0-1.3-0.2-1.9-0.2 0.3 1.4 0.3 3.3 0 4.9-0.1 0.8-0.6 1.7-0.6 2.7 0.4 0.5 1 0.5 1.5 0.5 1.3 0 2.9-0.1 3.6 1.3 0.6 1.3 0.9 2.8 1.4 4.1 0.2 0.2 0.3 0.7 0.6 0.6 0.9-0.8 1.8-1.9 3.1-1.6 1.2 0.8 2.4 1.7 3.6 2.6 0.3 0.3 0.4 0.7 0.5 1.2 1 0.4 2.3 1.1 2.6 2.3 0.2 0.8 0.1 1.6 0.3 2.3 0.3 0.8 1.1 1.8 0.5 2.8l-0.4 0.3-3.8 1.2c-0.3 0-0.6-0.2-0.9-0.5-2-0.1-4.4 0.5-6-0.9-0.7-0.6-1.2-1.3-1.7-2.1-1.2 0.6-2.9 1-4.1 0.2-2.5-1.9-5-3.8-8.4-3.7-1.5 0.3-3.3 0.7-4.8 0.1-1.4-1-3-1.5-4.1-3-1.6-1.7-1.6-3.7-2.2-5.8-2.2 0.5-4.6 0.2-6.8 0.1-1.8-0.1-3.5 0.2-5.2 0.6-2.1 0.4-4.4 0.6-6.6 0.5l-1.1 0.8c0.5 0.1 1 0.1 1.4 0.5l0.4 0.4c1.8 0.2 3.9-0.1 5.6 0.3 0.4 0.1 0.8 0.5 1 0.9 0.2 0.5 0.2 1.1-0.1 1.5-0.9 1.2-1.4 2.6-2.6 3.6-0.3 0.4-1.2-0.1-1.3 0.6-0.4 1.8-2.1 3.3-3.8 3.7-0.7 0.1-1.5 0-2.1-0.2-2.1-0.7-4.2-1.3-6.3-1.9-0.7-0.2-1.3-0.9-1.9-1.3-0.9 0-2.2 0.3-2.8-0.5-0.3-0.2-0.6-0.9-0.7-1.2-0.7-0.9-1.2-2.5-1.5-3.9" clip-rule="evenodd" fill="#ffd300" fill-rule="evenodd"/>
  <g transform="translate(-70.463 -91.115)" fill="#e21b4d">
   <path d="m148.4 128.8c0.6 1.5 0.6 3.5 0.2 5.1-0.1 0.1-0.2 0.1-0.3 0-0.3-1.4-0.6-2.8-1.1-4.2-0.3-0.8-1.3-1.5-0.9-2.4 0.2-0.2 0.6-0.2 0.9-0.1 0.5 0.5 0.8 1 1.2 1.6m16 14c1.1 1.3 1.9 2.7 1.5 4.4-0.2 0.3-0.1 0.9-0.6 1-0.2 0.1-0.4-0.1-0.4-0.3-0.1-0.9-0.1-1.9-0.6-2.6-0.6-0.6-1.3-1.8-2.3-1.8-0.7 0.2-1.2 1-1.6 1.5 0 0.1-0.1 0.1-0.2 0-0.4-1 0.4-1.8 0.7-2.6 0.6-0.6 0.5-2.3 1.8-1.8 0.9 0.6 1.1 1.6 1.7 2.2m-2.1 11.9c0.1 0.6 0.1 1.5-0.5 1.9-0.6 0.2-1.4 0.3-2.1 0.2-0.2-0.1-0.4-0.2-0.3-0.4 0.3-0.9 1.2-1.9 2.2-2.1 0.2 0 0.6 0 0.7 0.4m-73-36.5c2.4 0.6 5 0.6 6.8 2.5 1 1.2 1.1 3.3 0.3 4.5-1.4 2.4-4.2 3.6-5.9 5.7-1.7 1.4-2.3 3.6-1.8 5.8 0.6 1.9 2.5 3.2 4.4 3.3 3 0.1 5.2-1.4 7.6-2.8 2.4-1.7 4.6-3.9 7.3-4.6 1.8-0.6 3.8-0.3 5.6-1 1.9-0.4 3.4-2 4.9-3.4 1.7-1.4 3.7-2.2 5.9-2.1 2 0.3 3.1-1.5 4.5-2.7 2.3-2.1 5.3-2.3 8-3.5 1.9-0.6 3.4-2 5.2-2.9 1.7-0.7 4-0.9 5.7-0.2 1.1 0.5 2.3 1 3.3 1.8l8.1 6.8c0.1 0.3 0.4 0.5 0.6 0.6 2.3 2.8 4.7 5.5 6.6 8.6 0.6 1.1 0.9 2.2 1.2 3.4 0.4 4.6 1.6 8.6 3.1 12.6 0.4 0.6 1.2 1.1 1.6 1.7 1.3 1.8 2.1 4.1 4.2 5.3l1.2 0.6c0.1 0.1 0.1 0.3 0 0.4l-0.2 0.2c-2.5 0.4-4.4-1.1-5.7-2.9-0.8-1.6-1.9-3.3-3.7-4-0.1 0-0.2 0.1-0.2 0.1 0.2 0.6 0.8 1 1 1.5 0.7 1.1 1.3 2.3 1.6 3.5 0.4 1.3 1.8 2.2 2.9 2.9l1.6 0.8c0.2 0.1 0.3 0.4 0.1 0.6l-0.2 0.1c-2.7 0.1-5.1-0.8-7-2.8-0.4-0.5-1-0.9-1.7-0.9-1.2 1.1-2.4 2.1-4 2.2-1.7-0.3-3.5-0.3-5 0.3-1.4 0.5-2.8 1.1-4.3 1.1-0.7 0-1.5-0.3-1.8-1 0-0.9-0.6-1.9-0.1-2.8l1-1.5c0-0.2-0.1-0.4-0.3-0.4-0.4-0.1-1.1 0.6-1.3-0.1 0.1-1.5 1.6-2.5 2.6-3.5 0.2-1.2 0.7-2.3 1.6-3.3 0-0.1-0.1-0.3-0.3-0.3-1.3 0.2-2.6 0.5-4 0.5-1.1 0.6-2.5 1-3.8 0.6-0.3-0.2-0.2-0.5-0.1-0.7 1.4-1.9 1.9-4.3 1.5-6.6-0.1-0.1-0.1-0.3-0.3-0.3s-0.2 0.2-0.3 0.3c-0.3 2.2-1 3.9-2.2 5.8-0.9 0.9-2.3 0.9-3.5 1.2-0.3 0.1-0.6 0.4-0.6 0.7 0 0.8 0.5 1.3 0.8 2l2.6 4.8c0.1 1.3-0.5 2.6-0.8 3.8 0.1 0.2 0.3 0.1 0.5 0 0.9-0.8 1.5-1.9 1.9-3.1 0.1-0.5-0.1-1.1-0.3-1.5l-2.7-5.4c0.2-0.3 0.6-0.3 0.9-0.4 0.6 0 1.2 0.3 1.8 0.5 0.6 1.6 1.3 3.3 2.4 4.7 0.2 0.9 0.5 2.1-0.1 2.8-0.6 1.2-1.2 2.2-2 3.3-0.7 0.7-1.7 0.6-2.7 0.7h-0.3c-2.4 1.3-4.9 2.1-7.5 2.9-1.1 0.5-2.4 0.1-3.3-0.6s-1.3-1.7-1.9-2.6c-0.7-0.9-1.8-0.1-2.6-0.6-0.7-1.1-1.4-2.2-2-3.4 0-0.3 0-0.6 0.3-0.8 0.9-0.3 1.9-0.3 2.9-0.4 0.9-0.1 1.9 0.1 2.5 0.7 1.2 1.4 1.7 3.3 3.5 4.2 1.4 0.1 2.6-0.3 3.8-0.9 0.7-0.4 1.5-1 1.5-1.9-0.1-1.8-1.3-3.2-2.8-4.2-1.5-0.8-3.1-1.9-4.2-3.3-0.6-0.8-0.7-1.7-1-2.5-0.1-0.2-0.5-0.2-0.6-0.1-0.6 0.5-0.1 1.4-0.1 2 0.1 0.4 0.3 0.9 0.1 1.2-0.9 0.7-2.1 0.3-3.2 0.4-2.2-0.1-4.3-1-6.6-0.8-2.2 0.1-5.2 1.6-6.8-0.6-0.8-2.1-0.6-4.6-0.2-6.7 0-0.2-0.2-0.4-0.4-0.4-0.2-0.1-0.4 0-0.5 0.2-0.6 2.1-0.7 4.4-1.2 6.6-0.8 1.9-2.2 3.9-4.1 4.9-1.7 0.9-3.7 1.2-5.8 1.4-3.8 0.1-7.3 0.8-9.7 4.1-0.2 0.3-0.5 0.6-0.4 1 0.1 0.1 0.4 0.2 0.5 0.1 2.6-2.9 5.9-4.1 9.7-3.9 3.6 0 7.2-0.6 9.5-3.7 0.6-0.7 1-1.4 1.5-2.2 0.4 0 0.7 0.5 1 0.7 0.1 1.1-0.8 1.8-1.2 2.7-0.5 1-1 2.2-2 2.8-1.2 0.3-2.2 1.1-3.3 1.7-1.1 0.5-2.5 0.7-3.8 0.4-1.6-0.3-3.8-0.7-5.4 0-0.8 0.5-1.5 1.4-2.3 1.9-1.1 0.5-2.1 1.4-3.4 1.3-0.9-0.2-2-0.8-2.8 0-1 0.9-1.2 2.5-2.5 3.1-1.5 0.8-3.1 0-4.6-0.1 0.2-1.5 0.4-2.9 1.4-4 0.6-0.1 1.1-0.2 1.6-0.6 0.6-0.5 1-1.2 1.4-1.9 1.3-0.8 2.8-1.4 3.6-2.8 0.6-1.3 0.6-2.5 1.6-3.7l0.5-0.2 2.7-0.2c1.1-0.5 2.1-1 3.1-1.8 0.3-0.3 0.4-0.8 0.3-1.3-0.5-1.3-0.9-2.2-1.2-3.6s-0.1-2.8-0.3-4.4c-0.1-0.1-0.2-0.4-0.4-0.4-1.8 0.4-3.5 0.9-5.5 0.6-2.7-0.3-5.5-2.1-6.5-4.8-0.9-2.3-0.7-5.6 1-7.5 1.6-2 3.6-3.5 5.6-5.2 0.3-0.2 0.3-0.6 0.4-0.9 0-0.4-0.4-0.7-0.7-0.9-1.2-0.3-2.6 0.1-3.8-0.4-2.1-0.7-3.7-2.7-4-4.9-0.1-1 0.1-1.8 0.6-2.6 1.6 1.4 2.8 2.6 4.3 3m-6 44.7v0.3c-0.5 1.2-0.8 2.6-1.2 4-0.9-0.1-1.7-0.4-2.4-0.7-0.2-0.2 0-0.4 0-0.6 0.9-0.8 0.6-1.8 0.8-2.9 0.1-0.6 0.7-1.1 1.3-1.4 0.7 0.1 1.1 0.8 1.5 1.3m4.4-4.2c-0.5 1-1.2 2.2-2.3 2.8-0.4 0.1-0.9 0.1-1.3-0.1-0.2-0.2-0.6-0.4-0.6-0.8 0.1-0.4-0.1-0.9 0.3-1.1 0.8-0.5 1.6-1 2.4-1.7 0.2-0.1 0.6-0.2 0.7 0 0.4 0.3 0.7 0.5 0.8 0.9m50.1-0.4c0.1 0.4 0.7 0.9 0.3 1.3-0.8 0.6-1.7 1-2.8 0.9-0.8-0.6-0.7-1.7-1.4-2.5-0.2-0.6-1.1-0.6-0.9-1.2l0.3-0.2c1.1 0 2.2 0 3.3-0.2 1.1-0.1 0.8 1.2 1.2 1.9m63.2-16.3c0.6 0.8 1.1 1.6 1.5 2.6 0.1 0.2 0 0.4-0.1 0.6s-0.3 0.4-0.6 0.2c-0.7-0.2-0.6-1.3-1.5-1.2-0.6 0-1 0.5-1.5 0.8-0.9 0.8-2.1 1.6-2.3 2.8-0.2 0.4-0.1 1.1-0.5 1.3-0.2 0.1-0.5-0.1-0.5-0.3-0.1-1.6 0.4-3.1 1.5-4.2 1.1-0.9 1.9-2.2 2.8-3.3 0.6-0.1 1 0.3 1.2 0.7m0.4 13.3c0.2 0.4 0.6 0.9 0.3 1.4-0.4 0.3-1.1 0.1-1.6 0.1-0.6-0.3-0.8-1.1-0.8-1.8 0-0.2 0-0.3 0.2-0.5 0.7 0 1.4 0.2 1.9 0.8m15-30.6c0.3 0.4 0 0.8-0.2 1.1-1.4 1.3-3.1 2.7-4.1 4.3-0.4 0.5-0.7 1.1-0.9 1.7 0 0.1-0.1 0.1-0.2 0.1-0.3-0.8 0.1-1.7 0.3-2.5 0.7-1.9 2.3-3.7 4-5 0.2-0.1 0.9-0.2 1.1 0.3m5.7-6.4c1.1 0.7 1.5 2.2 2.8 2.5 2.2 0.5 4.4 1 6.4 2 1.4 0.7 2.7 1.7 4 2.8 1.2 0.6 2.7 0.6 4 1 1.9 0.5 3.4 1.9 5.1 3 2.2 1.7 5.3 1.5 7.8 2.6 4 1.3 7.2 4.4 10.9 6.2 1.9 1 4.8 1.4 6.7 0.3 1.3-0.9 2.1-2.1 1.8-3.8-0.7-4.1-5.2-6.2-7.3-9.6-0.4-0.8-0.7-1.9-0.5-2.8 0.8-2 2.9-3.1 4.7-3.8 1.4-0.7 3.2-0.5 4.5-1.3 0.5-0.3 0.9-0.7 1.2-1 0.3 0 0.3 0.3 0.4 0.5 0.4 2.4 0 4.9-2.1 6.3-0.8 0.6-1.8 0.8-2.7 1-0.8 0.3-2.4-0.3-2.3 1.1 0.2 0.7 0.8 1.1 1.3 1.6 2.8 2.3 5.4 5.3 5.7 8.9 0.1 2.8-1.8 5.2-4.2 6.4-1.8 0.7-4 1-5.9 0.5-0.5-0.1-1.3-0.6-1.7 0.1-0.1 0.8 0.4 1.4 0.4 2.1 0.2 1.3 0.2 3-0.2 4.3-0.2 1-1.2 2.2-0.3 3.2 0.9 1.4 2.7 1 4.2 1.2 0.8 0.1 1.1 1 1.3 1.6 0.3 0.8 0.3 1.7 0.6 2.3 0 1.5 1.7 2.1 2.5 3.1 1 1.1 1.9 3 3.6 2.9 0.6 1.2 0.9 2.3 1.1 3.7l-0.2 0.2c-1.4 0-3.3 0.4-4.3-0.6-1.2-0.8-1.6-3-3.4-2.4-0.8 0.6-1.9 0.8-2.8 0.4-0.9-0.3-1.5-1.1-2.3-1.6-2.4-1.8-5.6-2.7-8.7-2-1.8 0.5-3.2-0.8-4.6-1.6-1.9-0.8-2.4-2.8-2.8-4.5l-0.3-2.1c0-0.2 0.2-0.4 0.4-0.5h0.3c1.1 2.5 3.2 5.3 5.9 6.2 2.5 1 4.8-0.3 7.5 0.2 2.5 0.3 4.5 1.9 6.4 3.4 0.2 0 0.3-0.1 0.4-0.3v-0.2c-2.3-2.9-5.5-4.4-9.2-4.1-3.1 0.6-6.1-0.4-7.9-3-1-1.5-1.7-3.1-2-4.8-0.3-2-0.7-4.2-1.4-6-0.2-0.1-0.4-0.3-0.6-0.2l-0.2 0.3c0.3 1.9 0.9 4.2 0.2 6.2-0.5 1.6-2.1 2.2-3.6 2.3s-2.9-0.2-4.5-0.2c-3.6-0.1-6.8 1.3-10.5 1 0.3-0.9 0.9-1.8 0.6-2.8-0.1-0.2-0.4-0.2-0.6-0.2-0.7 0.4-0.6 1.3-1 1.9-0.8 1.3-2.3 2.5-3.8 2.8-1.1 0.8-2.1 1.9-3 2.9-0.3 0.3-0.3 0.9-0.2 1.3 0.7 1.8 2.8 2 4.4 2.5 0.8 0.1 1.5-0.2 1.9-0.9 0.7-1.1 0.8-2.9 2.4-3.1h3.5c0.3 0.1 0.5 0.3 0.7 0.6l-0.1 0.5c-0.8 0.9-1.1 2.2-2.1 2.8-0.6 0.2-1.3 0-1.7 0.5-0.2 1.2-0.5 2.5-1.7 3.1-0.9 0.8-2.2 0.4-3.2 0.1-1.9-0.7-3.8-1.1-5.7-1.7-0.8-0.2-1.1-1.2-2-1.4-0.8-0.2-1.7 0.4-2.4-0.3-0.4-0.9-0.6-1.5-0.8-2.5-0.3-0.6-0.5-1.3-0.6-2-0.1-0.6 0-1 0.2-1.5l2.6-4.7c0.2-0.3 0.4-0.6 0.7-0.7 0.6 0.1 1.3 0.4 1.9 0.7l-0.1 0.3-2.7 4.1c-0.6 1.3 0 2.8 0.6 3.9 0.1 0.1 0.2 0.3 0.3 0.2-0.1-0.8-0.2-1.6 0-2.5 0.2-0.8 0.7-1.5 1.1-2.2l2.1-3.1c0.2-0.5 0.2-1.3-0.2-1.8-0.9-0.9-2.2-1.2-3-2.4-1.7-2.3-1.9-5-2.1-7.9 0-0.2-0.2-0.5-0.5-0.6-0.2-0.1-0.4 0.2-0.5 0.3-0.5 1.9-0.2 4.2 0.3 5.9 0.3 1.3 0.9 2.6 1.5 3.8 0.1 0.2-0.1 0.5-0.3 0.6-1.4 0.1-2.8 0-4.1-0.2-1.8-0.3-3.1-1.7-4.6-2.8-0.2-0.1-0.3 0.1-0.4 0.2 0.4 2 2.6 3.2 3.3 5 0.4 1.5 1.9 2.6 2.2 4.2 0 0.2-0.2 0.5-0.4 0.6-0.5 0.1-1-0.2-1.5 0.1-0.1 0.9 0.5 1.8 0.1 2.6-0.5 0.8-1.2 1.7-2.1 1.7-1.8-0.6-3.6-1.4-5.4-1.9-1.3-0.1-2.6 0.1-3.8 0.2-1.2-0.2-2-1.3-2.9-1.9-0.3-0.1-0.6-0.1-0.8 0.1-2 2-4.2 4.2-7.2 4.1-0.2 0-0.3-0.2-0.3-0.4v-0.2c1.3-1.2 2.9-2.4 3.5-4.1 0.4-1.4 1.6-2.4 2.1-3.7 0.1-0.2-0.1-0.3-0.3-0.4l-0.3 0.2c-1.5 1.5-2.6 3.2-3.7 4.8-1.1 1.1-2.7 1.8-4.4 1.4-0.2-0.1-0.2-0.4-0.1-0.6 6.2-3.8 6.9-10.6 8.6-16.8 1.2-4.1 2.1-8.3 5.3-11.6 4.8-5.3 10.8-8.4 16.1-13 0.8-0.7 1.6-1.4 2.6-1.4 2.6-0.2 4.6 0.8 6.4 2.3m57.1 44.2c0.5 0.7 0.3 1.8 0.5 2.6 0.1 0.6 0.9 1.1 0.5 1.7l-2.2 0.7c-0.4 0-0.2-0.5-0.4-0.7-0.2-1.3-0.5-2.2-0.9-3.4-0.1-0.7 0.6-1.2 1.1-1.6 0.5-0.2 0.9 0.4 1.4 0.7m-5.1-4.5c0.8 0.7 1.9 1.2 2.5 2.1 0.1 0.4-0.2 0.8-0.4 1.1-0.3 0.3-0.7 0.5-1.2 0.5s-0.9-0.3-1.2-0.7c-0.5-0.8-1.2-1.5-1.4-2.3 0.3-0.5 1-1.3 1.7-0.7m-48.2-0.8c-0.1 1-0.4 1.9-0.8 2.8-0.3 0.6-1.2 0.4-1.8 0.3-0.6-0.2-1.6-0.3-1.7-1.2-0.1-0.8 0.3-1.6 0.7-2.2 0.9-0.1 2 0.1 2.9-0.1 0.4 0 0.7 0.1 0.7 0.4" clip-rule="evenodd" fill-rule="evenodd"/>
  </g>
 </g>
 <path transform="matrix(.1521 0 0 .1521 -.01 -.1)" d="m326.7 550.5c-21.196 0.0558-34.642 1.8311-53.74 7.0527-19.695 5.3845-35.742 16.107-29.797 19.91 5.1268 3.2797 13.963-0.40645 22.715-9.4746 7.4504-7.7199 9.8254-8.8457 25.377-12.041 16.747-3.4408 43.741-4.6227 58.004-2.5391 11.575 1.691 26.412 6.081 26.412 7.8144 0 0.59651-4.2592 1.084-9.4648 1.084h-9.4648v8.834l-18.613 8e-3c-35.176 0.0141-57.045 5.5256-70.258 17.705l-5.291 4.877-16.334-2.998c-35.444-6.5046-48.182-7.6078-87.635-7.5664-40.036 0.0392-48.629 0.94795-72.564 7.666-22.711 6.3743-41.014 18.019-41.014 26.094 0 6.432 7.2681 11.548 15.311 10.779l4.25-0.40625 0.85742-8.6699c0.70451-7.1284 1.4896-9.3367 4.416-12.402 4.9321-5.1668 19.283-11.808 32.006-14.812 33.291-7.8622 93.883-6.5226 144.45 3.1934 14.857 2.855 14.17 2.4617 14.17 8.0723 0 5.9141 2.7753 10.581 8.2988 13.949 3.9435 2.4043 9.7129 3.3441 9.7129 1.582 0-0.48754-1.6649-2.617-3.6992-4.7324-4.0494-4.2072-5.7731-9.2177-4.0742-11.818 0.85494-1.3086 4.7653-0.26368 18.387 4.9121 15.97 6.0683 17.701 7.0451 22.477 12.709 6.3211 7.4965 11.423 9.1599 25.592 8.3418 12.019-0.6943 16.267-2.4592 18.811-7.8203 1.5372-3.2395 3.2743-4.4204 9.209-6.2559 4.0235-1.2443 9.7298-3.5889 12.68-5.209l5.3633-2.9453v5.541c0 5.3277-0.18249 5.5919-4.7324 6.8594-5.5068 1.534-8.6127 3.9477-13.281 10.322-4.6512 6.3508-14.702 11.174-23.289 11.174-5.8239 0-6.8785 0.38217-7.8066 2.8379-1.271 3.3633-0.66034 4.8665 1.623 3.9902 2.5732-0.98736 4.6649 2.5292 4.2891 7.2129l-0.3418 4.2559 13.883-0.17578c9.2431-0.11721 15.727-0.85377 19.404-2.207 10.566-3.8889 10.252-4.3678 10.252 15.635v17.668h27.693l0.35156-17.982 0.34961-17.984 7.1055-0.37305 7.1035-0.375 0.88281 4.791c2.8387 15.417 13.87 27.408 30.07 32.688v-4e-3c3.3667 1.0968 9.4853 1.598 16.676 1.3613 14.638-0.48114 24.656-4.6788 32.807-13.744 5.3402-5.9396 10.732-17.278 10.732-22.568 0-2.274 0.69858-2.5011 6.625-2.1602l6.625 0.38086 0.34961 17.984 0.35157 17.982h27.693v-36.598h37.811l0.74414 3.4707c4.8663 22.743 21.294 35.65 45.373 35.65 22.138 0 38.908-12.469 44.129-32.811l1.457-5.6797 12.773-0.35742c12.099-0.33985 12.793-0.50763 13.17-3.1562 0.37127-2.6108 1.1303-2.82 11.439-3.1602l11.043-0.36328v-9.998l0.63477-1.8906-0.37305-8.5195-0.37305-8.5176h-29.422c-29.332 0-29.438-9e-3 -34.09-3.166-19.774-13.419-41.075-13.834-59.592-1.1582-6.169 4.2228-6.942 4.4215-15.775 4.0664l-9.2871-0.37305-0.38868-5.3633-0.38867-5.3633h-6.2871c-7.6089 0-14.796 3.3923-19.305 9.1133l-3.2598 4.1367-0.0352-11.988h-27.611l-0.39063 4.7324-0.39258 4.7324-11.635 0.36328c-11.457 0.35678-11.733 0.29571-17.973-3.9961-9.2975-6.3956-17.81-8.912-29.705-8.7793-11.615 0.12994-18.554 2.2948-27.924 8.709-6.4524 4.417-6.5076 4.4282-18.93 4.0664l-12.459-0.36328-0.35937-13.566-0.35742-13.566h27.85v-26.502h-27.326c-26.552 0-27.517-0.0886-34.018-3.1641-13.289-6.2869-26.85-8.6438-49.711-8.6426-0.3404 2e-5 -0.67919-8.9e-4 -1.0156 0zm30.041 27.924v10.385h26.502v14.006l-9.1856 4.3633c-5.052 2.3992-13.144 5.1997-17.982 6.2246v-2e-3c-10.992 2.3307-29.413 2.31-38.145-0.041-7.2037-1.9397-41.814-15.145-43.074-16.434-1.0509-1.0752 6.9003-7.7038 13.107-10.928 9.9668-5.1766 16.816-6.2751 43.223-6.9355zm114.84 73.484c16.401 0 17.668 0.16853 17.668 2.3535 0 3.1628-4.4437 8.6263-8.8828 10.922-5.0766 2.6254-13.667 2.3438-18.504-0.60547-3.7534-2.2886-7.9492-8.2766-7.9492-11.346 0-0.86172 6.1735-1.3242 17.668-1.3242zm170.37 0c16.869 0 17.668 0.11529 17.668 2.543 0 1.3983-1.9057 4.6212-4.2344 7.1621-3.7981 4.1445-4.9985 4.6696-11.672 5.0996-5.848 0.37634-8.3046-0.0656-11.48-2.0606-3.7632-2.3637-7.9492-8.3768-7.9492-11.42 0-0.86172 6.1735-1.3242 17.668-1.3242z" fill="#00194c" stroke-width="1.262"/>
 <path d="m116.79 84.342-0.0508 5.6276-0.0511 5.6276 0.0954 0.28756v8.0614h3.8348l0.0998-16.411 1.6716 5e-3c1.8102 0.0049 2.2858 0.2058 3.1153 1.3169 0.53 0.70994 0.53031 2.0166 6.1e-4 2.7431-0.49924 0.68469-1.8926 1.4057-2.7167 1.4057h-0.63126v4.6152l4.2284 6.3257h2.3126c1.7991 0 2.2797-0.0533 2.1665-0.24003-0.08-0.13196-1.3828-1.961-2.8952-4.0644-1.5124-2.1035-2.6829-3.8852-2.6011-3.9596s0.46529-0.2362 0.85228-0.35974c0.98844-0.31564 2.3887-1.6119 2.9956-2.7731 0.42389-0.81093 0.51405-1.2361 0.51482-2.4232 1e-3 -2.4029-1.1041-4.1139-3.3337-5.1594-1.0404-0.48792-1.1994-0.50481-5.34-0.56413zm46.176 6.7499c-2.6617 3e-3 -4.6457 1.4804-4.871 3.8253-0.19293 2.0079 0.55425 2.9927 2.8509 3.7576 1.7624 0.58692 2.3002 1.1193 1.9369 1.9167-0.39579 0.86739-1.8731 0.87096-3.538 7e-3l-0.92416-0.47946-0.17557 0.46223c-0.0967 0.25424-0.39907 0.90282-0.67196 1.4414l-0.4961 0.97913 1.0484 0.48006c0.5767 0.26402 1.4222 0.55873 1.8786 0.65503v1e-3c2.3034 0.48566 4.9396-0.33553 6.0001-1.8688 0.58674-0.84844 0.87235-2.5353 0.6078-3.5894-0.24202-0.96428-1.197-1.7697-2.7591-2.3275-1.7786-0.6351-2.193-0.94971-2.1163-1.6062 0.10357-0.88622 1.4841-1.1028 3.0824-0.48362 0.27376 0.10607 0.44455-0.10111 0.89891-1.0899 0.66234-1.4415 0.59809-1.5517-1.1143-1.9072-0.56641-0.11754-1.115-0.17402-1.6374-0.17344zm-11.163 0.0021c-2.634 0.0035-4.6144 1.468-4.8407 3.8223-0.19293 2.0079 0.55425 2.9927 2.8509 3.7576 1.7624 0.58692 2.3004 1.1193 1.9372 1.9167-0.39772 0.8726-1.8478 0.87362-3.5146 2e-3l-0.9408-0.49194-0.17913 0.47144c-0.0986 0.25932-0.40264 0.91203-0.67553 1.4506l-0.4961 0.97913 1.0486 0.48006c0.5767 0.26402 1.4219 0.55872 1.8783 0.65503v3e-4c2.3034 0.48565 4.9397-0.33554 6.0001-1.8688 0.58676-0.84843 0.87235-2.5353 0.60779-3.5894-0.24203-0.96426-1.197-1.7697-2.7591-2.3275-1.7786-0.6351-2.193-0.9497-2.1163-1.6062 0.10328-0.88396 1.4842-1.1029 3.0731-0.48719 0.26092 0.10112 0.45734-0.13273 0.95002-1.1318 0.34153-0.69262 0.57762-1.3028 0.52461-1.3558-0.0531-0.05305-0.65204-0.23872-1.3308-0.41262-0.70055-0.17947-1.3784-0.26464-2.0177-0.26379zm23.657 0.0199c-2.5444 0.01791-4.8809 1.3226-6.0533 3.5235-0.46467 0.87207-0.51124 1.1528-0.51124 3.0714 0 1.918 0.0471 2.2003 0.51302 3.0832 0.86251 1.6343 2.2713 2.7126 4.2338 3.241 3.3965 0.91442 7.0815-0.75032 8.2426-3.7237 0.30876-0.79073 0.42091-1.5103 0.43462-2.7927 0.0161-1.4924-0.0455-1.8448-0.45243-2.591-1.1251-2.0634-2.3219-3.0259-4.4367-3.568-0.65976-0.16914-1.3218-0.24816-1.9704-0.24359zm-37.66 0.07308c-1.4532 0.0038-1.8986 0.08416-2.8061 0.5059-1.407 0.65389-2.5719 1.7233-3.194 2.9323-0.71344 1.3865-0.83281 3.9636-0.25459 5.4978 0.74243 1.9698 2.2783 3.32 4.4361 3.8999 3.4022 0.91425 6.8528-0.55685 8.2121-3.5012 0.42325-0.91683 0.50241-1.3585 0.50441-2.8411 3e-3 -1.6286-0.0447-1.8497-0.66394-3.0636-1.1975-2.3476-3.1789-3.4375-6.2339-3.4299zm57.998 2.203c-0.36925 0.0058-0.51095 0.1016-0.51095 0.34103 0 0.60593-0.57 1.178-1.3986 1.4036-0.44483 0.12109-2.6225 0.28928-4.8395 0.37371l-4.0309 0.15328 5.2785-0.06832c5.2867-0.06845 6.6243-0.22466 7.3946-0.86386 0.61251-0.50835-0.53974-1.3395-1.857-1.3395-0.0123 0-0.0243-1.52e-4 -0.0362 0zm-20.258 1.1523c0.54008-0.0074 1.0758 0.13101 1.5218 0.43164 0.9431 0.63555 1.3617 1.4766 1.3617 2.7348 0 1.19-0.38451 2.0284-1.2129 2.646-1.1688 0.87097-3.1831 0.52894-4.0793-0.69276-0.60502-0.82467-0.56955-3.0559 0.0627-3.9423 0.53281-0.74703 1.4458-1.1649 2.3459-1.1773zm-37.602 3.04e-4c0.83486-0.0037 1.6718 0.34813 2.244 1.0757 1.2619 1.6042 0.77639 4.0735-0.98061 4.9877-1.1536 0.60019-2.8703 0.15462-3.656-0.94882-0.63296-0.88882-0.68192-2.6688-0.1013-3.6762 0.54398-0.94372 1.5175-1.4341 2.4939-1.4384z" fill="#ed1846" stroke-width=".19194"/>
</svg>
