<?xml version="1.0" encoding="UTF-8"?>
<!-- Created with Inkscape (http://www.inkscape.org/) -->
<svg width="640" height="400" version="1.1" viewBox="0 0 169.33 105.83" xmlns="http://www.w3.org/2000/svg">
 <path transform="matrix(.26458 0 0 .26458 0 -.000625)" d="m136.61 37.592c0.41192 16.87 0.45703 109.05 0.45703 163.08v168.02h38.372c-0.20519-7.0008-0.23437-77.813-0.23437-93.325v-53.139l126.31 1.1016 0.55664 51.211c0.20719 16.414 0.33489 87.416 0.16016 94.151h44.994c-0.31055-7.0885-0.41992-78.229-0.41992-94.245v-52.143h68.055c76.837 0 76.626 7.1964 84.154-8.3552 3.7792-7.8087 4.0684-12.831 4.0684-70.609v-105.75h-32.005v149.65h-124.27v-59.25c0-11.839 0.0155-83.599 0.10156-90.402h-44.363v149.65h-127.34v-58.676c0-12.239 6e-3 -84.119 0.0957-90.974z"/>
 <g stroke-width=".99998">
  <circle cx="41.658" cy="14.631" r="12.337"/>
  <circle cx="85.478" cy="15.301" r="12.337"/>
  <circle cx="41.4" cy="89.752" r="12.337"/>
  <circle cx="85.22" cy="90.422" r="12.337"/>
  <circle cx="129.3" cy="15.492" r="12.337"/>
 </g>
</svg>
