<?xml version="1.0" encoding="UTF-8"?>
<svg width="640" height="400" enable-background="new 0 0 32 32" version="1.1" viewBox="0 0 640 400" xml:space="preserve" xmlns="http://www.w3.org/2000/svg">
		<path d="m320 0c-110.45 0-200 89.55-200 200 0 110.45 89.55 200 200 200s200-89.55 200-200c0-110.45-89.55-200-200-200zm0 50c65.088 0 120.06 41.925 140.82 100h-281.65c20.763-58.075 75.737-100 140.82-100zm0 175c-13.813 0-25-11.187-25-25s11.187-25 25-25 25 11.187 25 25-11.187 25-25 25zm-150-25c68.312 0 123.64 65.825 124.8 147.46-70.7-12.112-124.8-73.387-124.8-147.46zm175.2 147.46c1.1625-81.638 56.488-147.46 124.8-147.46 0 74.075-54.1 135.35-124.8 147.46z" fill="#030104" stroke-width="12.5"/>
</svg>
